<svg xmlns="http://www.w3.org/2000/svg" width="19.429" height="16.877" viewBox="0 0 19.429 16.877">
  <g id="next_1_" data-name="next (1)" transform="translate(0 -33.625)">
    <g id="Group_32" data-name="Group 32" transform="translate(0 41.283)">
      <g id="Group_31" data-name="Group 31">
        <path id="Path_25" data-name="Path 25" d="M18.492,235.408H.781a.781.781,0,1,0,0,1.563H18.492a.781.781,0,1,0,0-1.563Z" transform="translate(0 -235.408)" fill="#eff2f8"/>
      </g>
    </g>
    <g id="Group_34" data-name="Group 34" transform="translate(10.21 33.625)">
      <g id="Group_33" data-name="Group 33" transform="translate(0 0)">
        <path id="Path_26" data-name="Path 26" d="M278.031,41.511l-7.657-7.657a.781.781,0,0,0-1.1,1.105l7.1,7.1-7.1,7.1a.781.781,0,1,0,1.1,1.1l7.657-7.657A.781.781,0,0,0,278.031,41.511Z" transform="translate(-269.04 -33.625)" fill="#eff2f8"/>
      </g>
    </g>
  </g>
</svg>
