<svg xmlns="http://www.w3.org/2000/svg" viewBox="0 0 500 500"><g id="freepik--Virus--inject-99"><path d="M315,369.86c-1.8,7.67-9.08,12.88-16.87,11.05-4.67-1.09-8.51-3.76-10.36-7.7a14.29,14.29,0,0,1-.73-9.49c2.16-9.2,10.15-13.1,17.77-11.31a13.11,13.11,0,0,1,7.73,5A15.48,15.48,0,0,1,315,369.86Z" style="fill:#6C63FF;opacity:0.30000000000000004"></path><path d="M308.84,368.43a7.91,7.91,0,0,1-9.41,6.17,8.25,8.25,0,0,1-5.78-4.3,7.94,7.94,0,0,1-.4-5.29,8,8,0,0,1,9.91-6.31,7.32,7.32,0,0,1,4.31,2.77A8.68,8.68,0,0,1,308.84,368.43Z" style="fill:#6C63FF;opacity:0.30000000000000004"></path><path d="M237.16,88.73c-2.59,11-13.06,18.51-24.25,15.88-6.73-1.57-12.24-5.4-14.91-11.07a20.55,20.55,0,0,1-1-13.65c3.09-13.23,14.59-18.83,25.55-16.26a18.79,18.79,0,0,1,11.12,7.15A22.27,22.27,0,0,1,237.16,88.73Z" style="fill:#6C63FF;opacity:0.30000000000000004"></path><path d="M228.24,86.67C226.8,92.82,221,97,214.72,95.53a11.84,11.84,0,0,1-8.32-6.17,11.47,11.47,0,0,1-.58-7.62c1.73-7.38,8.14-10.5,14.25-9.07a10.52,10.52,0,0,1,6.21,4A12.4,12.4,0,0,1,228.24,86.67Z" style="fill:#6C63FF;opacity:0.30000000000000004"></path><path d="M81.57,313.64A8.16,8.16,0,0,1,71.88,320a8.49,8.49,0,0,1-5.95-4.42,8.76,8.76,0,0,1,9.79-11.95,7.56,7.56,0,0,1,4.44,2.86A8.87,8.87,0,0,1,81.57,313.64Z" style="fill:#6C63FF;opacity:0.30000000000000004"></path><path d="M78,312.82a4.54,4.54,0,0,1-5.4,3.54,4.71,4.71,0,0,1-3.32-2.46,4.52,4.52,0,0,1-.23-3,4.59,4.59,0,0,1,5.69-3.62,4.13,4.13,0,0,1,2.47,1.59A4.93,4.93,0,0,1,78,312.82Z" style="fill:#6C63FF;opacity:0.30000000000000004"></path><path d="M444.27,258.68a8.14,8.14,0,0,1-9.68,6.35,8.47,8.47,0,0,1-5.95-4.42,8.75,8.75,0,0,1,9.78-12,7.52,7.52,0,0,1,4.44,2.86A8.87,8.87,0,0,1,444.27,258.68Z" style="fill:#6C63FF;opacity:0.30000000000000004"></path><path d="M440.71,257.86a4.53,4.53,0,0,1-5.4,3.54,4.75,4.75,0,0,1-3.32-2.46,4.89,4.89,0,0,1,5.46-6.67,4.21,4.21,0,0,1,2.48,1.6A5,5,0,0,1,440.71,257.86Z" style="fill:#6C63FF;opacity:0.30000000000000004"></path><path d="M401.68,376.66A8.15,8.15,0,0,1,392,383a8.49,8.49,0,0,1-5.95-4.42,8.76,8.76,0,0,1,9.79-11.94,7.47,7.47,0,0,1,4.44,2.85A8.89,8.89,0,0,1,401.68,376.66Z" style="fill:#6C63FF;opacity:0.30000000000000004"></path><path d="M398.12,375.84a4.54,4.54,0,0,1-5.4,3.53,4.71,4.71,0,0,1-3.32-2.46,4.52,4.52,0,0,1-.23-3,4.6,4.6,0,0,1,5.69-3.62,4.18,4.18,0,0,1,2.47,1.59A4.94,4.94,0,0,1,398.12,375.84Z" style="fill:#6C63FF;opacity:0.30000000000000004"></path><path d="M406.28,280.36s2.92-4,3.05-4.2-.54-1.36-.32-1.62,3,.89,2.73,1.45c-.18.33-1.14.42-1.24.57s-2.1,4.93-2.1,4.93Z" style="fill:#6C63FF"></path><path d="M409.28,274.63a6,6,0,0,0,2.3,1.13"></path><path d="M406.28,280.36s2.92-4,3.05-4.2-.54-1.36-.32-1.62,3,.89,2.73,1.45c-.18.33-1.14.42-1.24.57s-2.1,4.93-2.1,4.93Z" style="opacity:0.1"></path><path d="M399.17,280.53s-.78-4.9-.81-5.13-1.35-.58-1.39-.92,2.78-1.5,3-.9c.11.36-.51,1.1-.47,1.28s2,5,2,5Z" style="fill:#6C63FF"></path><path d="M397.23,274.36a6,6,0,0,0,2.43-.83"></path><path d="M399.17,280.53s-.78-4.9-.81-5.13-1.35-.58-1.39-.92,2.78-1.5,3-.9c.11.36-.51,1.1-.47,1.28s2,5,2,5Z" style="opacity:0.1"></path><path d="M394.26,285.68l-4.2-3.05c-.19-.14-1.37.54-1.63.33s.89-3,1.45-2.74c.33.18.42,1.14.57,1.24s4.93,2.1,4.93,2.1Z" style="fill:#6C63FF"></path><path d="M388.52,282.69a6,6,0,0,0,1.13-2.31"></path><path d="M394.26,285.68l-4.2-3.05c-.19-.14-1.37.54-1.63.33s.89-3,1.45-2.74c.33.18.42,1.14.57,1.24s4.93,2.1,4.93,2.1Z" style="opacity:0.1"></path><path d="M394.42,292.8l-5.12.81c-.23,0-.59,1.35-.92,1.38s-1.51-2.77-.91-3c.36-.11,1.1.51,1.28.47s5-2,5-2Z" style="fill:#6C63FF"></path><path d="M388.25,294.73a6,6,0,0,0-.83-2.43"></path><path d="M394.42,292.8l-5.12.81c-.23,0-.59,1.35-.92,1.38s-1.51-2.77-.91-3c.36-.11,1.1.51,1.28.47s5-2,5-2Z" style="opacity:0.1"></path><path d="M399.57,297.71l-3.05,4.2c-.14.19.54,1.37.33,1.63s-3-.9-2.73-1.46c.17-.33,1.13-.42,1.23-.57s2.1-4.93,2.1-4.93Z" style="fill:#6C63FF"></path><path d="M396.58,303.44a6,6,0,0,0-2.3-1.13"></path><path d="M399.57,297.71l-3.05,4.2c-.14.19.54,1.37.33,1.63s-3-.9-2.73-1.46c.17-.33,1.13-.42,1.23-.57s2.1-4.93,2.1-4.93Z" style="opacity:0.1"></path><path d="M406.69,297.54s.77,4.9.81,5.13,1.35.58,1.38.92-2.77,1.5-3,.9c-.11-.36.51-1.1.47-1.28s-2-5-2-5Z" style="fill:#6C63FF"></path><path d="M408.62,303.71a5.88,5.88,0,0,0-2.42.83"></path><path d="M406.69,297.54s.77,4.9.81,5.13,1.35.58,1.38.92-2.77,1.5-3,.9c-.11-.36.51-1.1.47-1.28s-2-5-2-5Z" style="opacity:0.1"></path><path d="M411.6,292.39l4.2,3.05c.19.14,1.37-.54,1.63-.33s-.9,3-1.45,2.74c-.34-.18-.43-1.14-.58-1.24s-4.93-2.1-4.93-2.1Z" style="fill:#6C63FF"></path><path d="M417.33,295.39a6,6,0,0,0-1.13,2.3"></path><path d="M411.6,292.39l4.2,3.05c.19.14,1.37-.54,1.63-.33s-.9,3-1.45,2.74c-.34-.18-.43-1.14-.58-1.24s-4.93-2.1-4.93-2.1Z" style="opacity:0.1"></path><path d="M411.43,285.28l5.13-.82c.23,0,.58-1.35.92-1.38s1.51,2.77.9,3c-.36.11-1.1-.51-1.28-.47s-5,2-5,2Z" style="fill:#6C63FF"></path><path d="M417.6,283.34a6.12,6.12,0,0,0,.83,2.43"></path><path d="M411.43,285.28l5.13-.82c.23,0,.58-1.35.92-1.38s1.51,2.77.9,3c-.36.11-1.1-.51-1.28-.47s-5,2-5,2Z" style="opacity:0.1"></path><path d="M405.21,279.6s3.11-6.17,3.22-6.37-.7-1.3-.52-1.58,3.13.53,2.9,1.12c-.13.35-1.08.55-1.16.72s-2.19,7-2.19,7Z" style="fill:#6C63FF"></path><path d="M408.19,271.71a6.12,6.12,0,0,0,2.43.85"></path><path d="M398,280.87s-2.16-6.56-2.22-6.78-1.42-.43-1.49-.75,2.58-1.84,2.84-1.26c.16.34-.37,1.16-.31,1.33s3.39,6.48,3.39,6.48Z" style="fill:#6C63FF"></path><path d="M394.53,273.18a6,6,0,0,0,2.32-1.12"></path><path d="M393.8,286.86l-6.37-3.22c-.2-.11-1.3.7-1.58.52s.53-3.12,1.12-2.9c.35.14.55,1.09.72,1.17s7,2.18,7,2.18Z" style="fill:#6C63FF"></path><path d="M385.91,283.88a6,6,0,0,0,.85-2.43"></path><path d="M395.07,294.07l-6.78,2.23c-.23.06-.42,1.41-.75,1.49s-1.84-2.59-1.26-2.85c.35-.15,1.16.38,1.33.32s6.48-3.4,6.48-3.4Z" style="fill:#6C63FF"></path><path d="M387.38,297.54a6.14,6.14,0,0,0-1.11-2.32"></path><path d="M401.07,298.27s-3.11,6.17-3.23,6.37.71,1.3.53,1.59-3.13-.53-2.91-1.12c.14-.36,1.09-.56,1.17-.72s2.18-7,2.18-7Z" style="fill:#6C63FF"></path><path d="M398.08,306.17a6,6,0,0,0-2.43-.86"></path><path d="M408.27,297s2.17,6.56,2.23,6.78,1.42.43,1.49.76-2.59,1.83-2.84,1.26c-.16-.35.37-1.16.31-1.34s-3.39-6.48-3.39-6.48Z" style="fill:#6C63FF"></path><path d="M411.75,304.69a6.07,6.07,0,0,0-2.33,1.12"></path><path d="M412.47,291l6.37,3.22c.21.11,1.3-.7,1.59-.52s-.53,3.12-1.12,2.9c-.36-.14-.56-1.08-.72-1.17s-7-2.18-7-2.18Z" style="fill:#6C63FF"></path><path d="M420.37,294a6,6,0,0,0-.86,2.43"></path><path d="M411.21,283.8l6.78-2.23c.22-.06.42-1.41.75-1.49s1.84,2.59,1.26,2.85c-.35.15-1.16-.38-1.34-.32s-6.48,3.4-6.48,3.4Z" style="fill:#6C63FF"></path><path d="M418.9,280.33a6,6,0,0,0,1.11,2.32"></path><path d="M414.58,291.57c-1.47,6.31-7.47,10.59-13.88,9.09-4.06-1-7.35-3.33-8.77-6.88a12,12,0,0,1-.36-7.27c1.77-7.58,8.35-10.78,14.63-9.31a11,11,0,0,1,4.07,1.83C414.35,282,415.57,287.32,414.58,291.57Z" style="fill:#6C63FF"></path><path d="M414.58,291.57c-1.47,6.31-7.47,10.59-13.88,9.09-4.06-1-7.35-3.33-8.77-6.88,2.8,2.22,8.59,5.77,14.39,3,8-3.81,7.48-13,3.95-17.77C414.35,282,415.57,287.32,414.58,291.57Z" style="opacity:0.1"></path><path d="M404,280.25h-2.74a2.9,2.9,0,0,1,0-.3c.16-1.11.74-4.87.77-5.09s-1.27-1.09-1.19-1.47c0-.17.76-.33,1.54-.39.94-.08,2,0,2,.39s-.92,1-.94,1.24S404,280.25,404,280.25Z" style="fill:#6C63FF"></path><path d="M401.24,273.34a6.86,6.86,0,0,0,2.92-.09Z"></path><path d="M401.34,280c.16-1.11.74-4.87.77-5.09s-1.27-1.09-1.19-1.47c0-.17.76-.33,1.54-.39a2.23,2.23,0,0,0-.73.32l-.06.08c-.06.1,0,.2.07.3.25.29.85.63.87.93S401.38,279.8,401.34,280Z" style="opacity:0.1"></path><path d="M397.48,281.74l-1.94,1.93-.07-.1v0c-.51-.68-3-4.09-3.15-4.28s-1.67.13-1.88-.19.84-1.55,1.64-2.2c.37-.29.69-.45.85-.29.3.31.08,1.38.21,1.54S397.48,281.74,397.48,281.74Z" style="fill:#6C63FF"></path><path d="M390.62,278.82a6.8,6.8,0,0,0,2-2.13Z"></path><path d="M395.46,283.55c-.51-.68-3-4.09-3.15-4.28s-1.67.13-1.88-.19.84-1.55,1.64-2.2a4.94,4.94,0,0,0-.73,1.17,1.14,1.14,0,0,0-.08.27c0,.12,0,.21.07.23.31.1,1-.14,1.29.05S395.28,283.22,395.46,283.55Z" style="opacity:0.1"></path><path d="M393.9,287.42v2.74h0l-5.39-.82c-.26,0-1.08,1.27-1.46,1.2s-.66-3-.14-3.47A.2.2,0,0,1,387,287c.43,0,1,.92,1.24.94C388.63,288,393.9,287.42,393.9,287.42Z" style="fill:#6C63FF"></path><path d="M387,290.21a6.87,6.87,0,0,0-.09-2.92Z"></path><path d="M393.88,290.15l-5.39-.82c-.26,0-1.08,1.27-1.46,1.2s-.66-3-.14-3.47a2.64,2.64,0,0,0,.06,2.14,1,1,0,0,0,.13.23c.08.11.16.17.22.16.31-.07.78-.71,1.22-.68S393.59,290.08,393.88,290.15Z" style="opacity:0.1"></path><path d="M392.91,299.14c-.16.11,0,.94-.05,1.47a.57.57,0,0,1-.13.41c-.32.21-3-2-2.5-2.49.31-.31,1.38-.08,1.54-.21s1.53-1.8,2.53-3h0l1.07-1.31,1.93,1.93Z" style="fill:#6C63FF"></path><path d="M392.46,300.83a6.8,6.8,0,0,0-2.13-2Z"></path><path d="M392.86,300.61a.57.57,0,0,1-.13.41c-.32.21-3-2-2.5-2.49.31-.31,1.38-.08,1.54-.21s1.53-1.8,2.53-3a24.69,24.69,0,0,1-2.21,3.41c-.25.12-.93.12-1,.45a.36.36,0,0,0,.06.22,3.45,3.45,0,0,0,.5.7,4.17,4.17,0,0,0,.66.62l.1.06c.13.08.23.12.3.08A.43.43,0,0,0,392.86,300.61Z" style="opacity:0.1"></path><path d="M404.17,304.41c0,.09-.24.18-.55.25-1,.23-3,.3-3-.25s.92-1,.94-1.24-.24-2.87-.4-4.44h0l-.12-1.17h2.73L403,303C402.93,303.21,404.25,304,404.17,304.41Z" style="fill:#6C63FF"></path><path d="M403.85,304.46a6.87,6.87,0,0,0-2.92.09Z"></path><path d="M403.62,304.66c-1,.23-3,.3-3-.25s.92-1,.94-1.24-.24-2.87-.4-4.44c.29,1.47.86,4.33.83,4.45s-.75.91-.55,1.16a.22.22,0,0,0,.07.06,1.37,1.37,0,0,0,.4.12A9.31,9.31,0,0,0,403.62,304.66Z" style="opacity:0.1"></path><path d="M413.77,300.18c-.61.69-1.34,1.29-1.6,1s-.08-1.38-.22-1.54-3.22-2.69-4.1-3.41h0l-.24-.19,1.93-1.94,3.24,4.4c.16.22,1.67-.13,1.88.19C414.76,298.87,414.32,299.56,413.77,300.18Z" style="fill:#6C63FF"></path><path d="M414.47,299a6.8,6.8,0,0,0-2,2.13Z"></path><path d="M413.77,300.18c-.61.69-1.34,1.29-1.6,1s-.08-1.38-.22-1.54-3.22-2.69-4.1-3.41h0s4.58,2.91,4.61,3.15-.06,1.23.25,1.27a.54.54,0,0,0,.2,0A4.79,4.79,0,0,0,413.77,300.18Z" style="opacity:0.1"></path><path d="M418.05,290.8c-.23,0-.5-.26-.74-.5s-.4-.43-.5-.44c-.35,0-5.62.53-5.62.53v-2.74l1.11.17h0l4.27.66c.26,0,1.09-1.28,1.46-1.21S418.77,290.8,418.05,290.8Z" style="fill:#6C63FF"></path><path d="M418.1,287.6a6.86,6.86,0,0,0,.09,2.92Z"></path><path d="M418.05,290.8c-.23,0-.5-.26-.74-.5a4.8,4.8,0,0,0,.67,0,.14.14,0,0,0,.12-.08.38.38,0,0,0,.08-.17,3,3,0,0,0,0-1.3,2,2,0,0,0-.13-.39h0c-.05-.09-.1-.14-.16-.14-.35,0-1,.74-1.47.67s-2.74-.72-4.06-1.09l4.27.66c.26,0,1.09-1.28,1.46-1.21S418.77,290.8,418.05,290.8Z" style="opacity:0.1"></path><path d="M414.85,279.28c-.3.31-1.38.08-1.54.21s-3.6,4.35-3.6,4.35l-1.94-1.94.42-.31h0l4-2.92c.21-.16-.13-1.67.19-1.89.16-.1.95.42,1.6,1h0C414.59,278.38,415.1,279,414.85,279.28Z" style="fill:#6C63FF"></path><path d="M412.62,277a6.8,6.8,0,0,0,2.13,2Z"></path><path d="M414,277.81a2.75,2.75,0,0,0-.78-.31.35.35,0,0,0-.17,0c-.16,0-.27.06-.29.21-.07.4.18,1.13,0,1.37s-4.35,2.44-4.52,2.53l4-2.92c.21-.16-.13-1.67.19-1.89C412.52,276.68,413.31,277.2,414,277.81Z" style="opacity:0.1"></path><g style="opacity:0.1"><path d="M399.23,296.23c-.11.26-.55.31-1,.11s-.67-.56-.55-.81.55-.31,1-.11S399.35,296,399.23,296.23Z"></path><path d="M399,297.14a2.87,2.87,0,0,1-1.68-.79.91.91,0,0,1-.27-1c.18-.45.61-.44,1-.48a0,0,0,0,0,0,0c-.71-.08-1.56.22-1.43,1.08.15,1,1.44,1.46,2.33,1.39C399,297.3,399.05,297.16,399,297.14Z"></path><path d="M400.84,281.68c0,.28-.44.57-1.06.65s-1.15-.07-1.19-.35.44-.57,1.06-.65S400.8,281.4,400.84,281.68Z"></path><path d="M399.23,282.92a2.32,2.32,0,0,1-.92-.3.68.68,0,0,1-.19-1,2.1,2.1,0,0,1,1.52-.83s0-.06,0-.05c-.71,0-1.76.38-2,1.14-.3,1,.9,1.17,1.59,1.16A.06.06,0,0,0,399.23,282.92Z"></path><path d="M409.57,285.21c0,.28-.39.5-.86.48s-.84-.24-.83-.53.39-.49.86-.48S409.58,284.93,409.57,285.21Z"></path><path d="M408.64,286.33a3.5,3.5,0,0,1-1.31-.65c-.66-.71.36-1.14.92-1.31,0,0,0-.05,0-.05-.61.06-1.54.43-1.41,1.19s1.15,1.07,1.79,1A.08.08,0,0,0,408.64,286.33Z"></path><path d="M396.06,293.09c0,.22-.32.38-.68.36s-.64-.21-.63-.43.31-.38.67-.36S396.07,292.87,396.06,293.09Z"></path><path d="M395.31,293.94a2.76,2.76,0,0,1-1-.53c-.5-.56.31-.88.74-1,0,0,0,0,0,0-.47,0-1.2.3-1.11.89s.87.86,1.36.78C395.36,294.05,395.36,294,395.31,293.94Z"></path><path d="M411.73,293.37c.06.34-.36.7-.93.8s-1.08-.1-1.14-.44.35-.71.93-.81S411.67,293,411.73,293.37Z"></path><path d="M409.68,292.79s0,0,0,0c-.54.41-1.3,1.07-.76,1.8a1.65,1.65,0,0,0,2.05.33.06.06,0,0,0,0-.11,2.76,2.76,0,0,1-1.48-.19C408.55,294.15,409.16,293.25,409.68,292.79Z"></path></g><path d="M111.64,258.5l3.06-4.2c.13-.19-.54-1.37-.33-1.63s3,.9,2.73,1.45c-.18.34-1.14.42-1.24.58s-2.09,4.93-2.09,4.93Z" style="fill:#6C63FF"></path><path d="M114.64,252.76a5.93,5.93,0,0,0,2.3,1.14" style="fill:#263238"></path><path d="M111.64,258.5l3.06-4.2c.13-.19-.54-1.37-.33-1.63s3,.9,2.73,1.45c-.18.34-1.14.42-1.24.58s-2.09,4.93-2.09,4.93Z" style="opacity:0.1"></path><path d="M104.53,258.67s-.78-4.9-.81-5.13-1.35-.59-1.39-.92,2.78-1.51,3-.91c.12.37-.5,1.11-.47,1.28s2,5,2,5Z" style="fill:#6C63FF"></path><path d="M102.59,252.49a6,6,0,0,0,2.43-.82" style="fill:#263238"></path><path d="M104.53,258.67s-.78-4.9-.81-5.13-1.35-.59-1.39-.92,2.78-1.51,3-.91c.12.37-.5,1.11-.47,1.28s2,5,2,5Z" style="opacity:0.1"></path><path d="M99.62,263.82l-4.2-3.05c-.19-.14-1.37.54-1.63.32s.89-3,1.45-2.73c.34.18.42,1.14.57,1.24s4.94,2.09,4.94,2.09Z" style="fill:#6C63FF"></path><path d="M93.88,260.82a5.93,5.93,0,0,0,1.14-2.3" style="fill:#263238"></path><path d="M99.62,263.82l-4.2-3.05c-.19-.14-1.37.54-1.63.32s.89-3,1.45-2.73c.34.18.42,1.14.57,1.24s4.94,2.09,4.94,2.09Z" style="opacity:0.1"></path><path d="M99.79,270.93l-5.13.81c-.23,0-.59,1.35-.92,1.39s-1.51-2.78-.91-3c.36-.11,1.1.5,1.28.47s5-2,5-2Z" style="fill:#6C63FF"></path><path d="M93.61,272.87a6,6,0,0,0-.82-2.43" style="fill:#263238"></path><path d="M99.79,270.93l-5.13.81c-.23,0-.59,1.35-.92,1.39s-1.51-2.78-.91-3c.36-.11,1.1.5,1.28.47s5-2,5-2Z" style="opacity:0.1"></path><path d="M104.93,275.84s-2.91,4-3.05,4.2.54,1.37.33,1.63-3-.89-2.73-1.45c.17-.33,1.14-.42,1.23-.57s2.1-4.93,2.1-4.93Z" style="fill:#6C63FF"></path><path d="M101.94,281.58a6,6,0,0,0-2.3-1.13" style="fill:#263238"></path><path d="M104.93,275.84s-2.91,4-3.05,4.2.54,1.37.33,1.63-3-.89-2.73-1.45c.17-.33,1.14-.42,1.23-.57s2.1-4.93,2.1-4.93Z" style="opacity:0.1"></path><path d="M112.05,275.68s.78,4.89.81,5.12,1.35.59,1.38.92-2.77,1.51-2.95.91c-.12-.36.5-1.1.46-1.28s-2-5-2-5Z" style="fill:#6C63FF"></path><path d="M114,281.85a6,6,0,0,0-2.43.82" style="fill:#263238"></path><path d="M112.05,275.68s.78,4.89.81,5.12,1.35.59,1.38.92-2.77,1.51-2.95.91c-.12-.36.5-1.1.46-1.28s-2-5-2-5Z" style="opacity:0.1"></path><path d="M117,270.53l4.2,3.05c.19.14,1.37-.54,1.63-.33s-.9,3-1.45,2.73c-.34-.17-.42-1.13-.58-1.23s-4.93-2.1-4.93-2.1Z" style="fill:#6C63FF"></path><path d="M122.7,273.52a6,6,0,0,0-1.14,2.3" style="fill:#263238"></path><path d="M117,270.53l4.2,3.05c.19.14,1.37-.54,1.63-.33s-.9,3-1.45,2.73c-.34-.17-.42-1.13-.58-1.23s-4.93-2.1-4.93-2.1Z" style="opacity:0.1"></path><path d="M116.79,263.41l5.13-.81c.23,0,.59-1.35.92-1.38s1.51,2.77.91,3c-.36.11-1.11-.51-1.28-.47s-5,2-5,2Z" style="fill:#6C63FF"></path><path d="M123,261.48a6,6,0,0,0,.82,2.42" style="fill:#263238"></path><path d="M116.79,263.41l5.13-.81c.23,0,.59-1.35.92-1.38s1.51,2.77.91,3c-.36.11-1.11-.51-1.28-.47s-5,2-5,2Z" style="opacity:0.1"></path><path d="M110.57,257.74s3.11-6.17,3.23-6.37-.71-1.3-.53-1.59,3.13.53,2.9,1.12c-.13.36-1.08.56-1.16.72s-2.18,7-2.18,7Z" style="fill:#6C63FF"></path><path d="M113.56,249.84a6,6,0,0,0,2.43.86" style="fill:#263238"></path><path d="M103.36,259s-2.16-6.56-2.22-6.79-1.42-.42-1.49-.75,2.58-1.83,2.84-1.26c.16.35-.37,1.16-.31,1.34s3.39,6.48,3.39,6.48Z" style="fill:#6C63FF"></path><path d="M99.89,251.31a6,6,0,0,0,2.33-1.11" style="fill:#263238"></path><path d="M99.16,265l-6.36-3.22c-.21-.12-1.3.7-1.59.52s.53-3.13,1.12-2.9c.36.13.56,1.08.72,1.16s7,2.19,7,2.19Z" style="fill:#6C63FF"></path><path d="M91.27,262a6.07,6.07,0,0,0,.86-2.43" style="fill:#263238"></path><path d="M100.43,272.21s-6.55,2.16-6.78,2.22-.42,1.42-.75,1.49-1.84-2.58-1.26-2.84c.35-.15,1.16.37,1.33.31S99.46,270,99.46,270Z" style="fill:#6C63FF"></path><path d="M92.74,275.68a5.91,5.91,0,0,0-1.11-2.32" style="fill:#263238"></path><path d="M106.43,276.41l-3.22,6.37c-.12.2.7,1.3.52,1.58s-3.13-.53-2.9-1.12c.13-.35,1.08-.55,1.16-.72s2.19-7,2.19-7Z" style="fill:#6C63FF"></path><path d="M103.45,284.3a6.12,6.12,0,0,0-2.44-.85" style="fill:#263238"></path><path d="M113.64,275.14s2.16,6.56,2.22,6.78,1.42.42,1.49.75-2.58,1.84-2.84,1.26c-.16-.35.37-1.16.31-1.33s-3.39-6.48-3.39-6.48Z" style="fill:#6C63FF"></path><path d="M117.11,282.83a6.07,6.07,0,0,0-2.32,1.11" style="fill:#263238"></path><path d="M117.84,269.14s6.16,3.11,6.37,3.23,1.3-.71,1.58-.53-.53,3.13-1.12,2.91c-.35-.14-.56-1.09-.72-1.17s-7-2.18-7-2.18Z" style="fill:#6C63FF"></path><path d="M125.73,272.13a5.89,5.89,0,0,0-.85,2.43" style="fill:#263238"></path><path d="M116.57,261.94s6.55-2.17,6.78-2.23.42-1.42.75-1.49,1.84,2.59,1.26,2.84c-.35.16-1.16-.37-1.33-.31s-6.48,3.39-6.48,3.39Z" style="fill:#6C63FF"></path><path d="M124.26,258.46a6,6,0,0,0,1.11,2.33" style="fill:#263238"></path><path d="M119.94,269.71c-1.47,6.31-7.47,10.59-13.88,9.09-4.06-.95-7.35-3.33-8.77-6.88a12,12,0,0,1-.36-7.27c1.77-7.58,8.35-10.78,14.63-9.31a11,11,0,0,1,4.07,1.83C119.71,260.11,120.93,265.46,119.94,269.71Z" style="fill:#6C63FF"></path><path d="M119.94,269.71c-1.47,6.31-7.47,10.59-13.88,9.09-4.06-.95-7.35-3.33-8.77-6.88,2.8,2.22,8.59,5.77,14.39,3,8-3.81,7.48-13,3.95-17.77C119.71,260.11,120.93,265.46,119.94,269.71Z" style="opacity:0.1"></path><path d="M109.39,258.39h-2.74l0-.3c.17-1.11.74-4.87.78-5.1s-1.28-1.08-1.2-1.46c0-.17.76-.33,1.54-.39,1-.08,2,0,2,.39s-.92,1-.93,1.24S109.39,258.39,109.39,258.39Z" style="fill:#6C63FF"></path><path d="M106.6,251.48a6.86,6.86,0,0,0,2.92-.09Z" style="fill:#263238"></path><path d="M106.7,258.09c.17-1.11.74-4.87.78-5.1s-1.28-1.08-1.2-1.46c0-.17.76-.33,1.54-.39a2,2,0,0,0-.73.32.21.21,0,0,0-.06.08.24.24,0,0,0,.07.3c.25.29.85.63.87.92S106.75,257.93,106.7,258.09Z" style="opacity:0.1"></path><path d="M102.84,259.87l-1.93,1.94-.08-.1v0l-3.15-4.28c-.16-.21-1.67.13-1.88-.19s.84-1.55,1.65-2.2c.36-.3.68-.45.84-.29.31.3.08,1.38.21,1.54S102.84,259.87,102.84,259.87Z" style="fill:#6C63FF"></path><path d="M96,257a6.8,6.8,0,0,0,2-2.13Z" style="fill:#263238"></path><path d="M100.82,261.69l-3.15-4.28c-.16-.21-1.67.13-1.88-.19s.84-1.55,1.65-2.2a4.63,4.63,0,0,0-.74,1.17.78.78,0,0,0-.07.26q0,.19.06.24c.31.1,1-.14,1.29,0S100.64,261.36,100.82,261.69Z" style="opacity:0.1"></path><path d="M99.26,265.55v2.74h0l-5.38-.82c-.26,0-1.09,1.27-1.46,1.19s-.67-3-.15-3.46a.2.2,0,0,1,.15-.06c.43,0,1,.92,1.23.94C94,266.11,99.26,265.55,99.26,265.55Z" style="fill:#6C63FF"></path><path d="M92.34,268.34a6.69,6.69,0,0,0-.09-2.92Z" style="fill:#263238"></path><path d="M99.24,268.29l-5.38-.82c-.26,0-1.09,1.27-1.46,1.19s-.67-3-.15-3.46a2.68,2.68,0,0,0,.06,2.14,1.42,1.42,0,0,0,.13.22c.08.11.16.17.23.16.3-.07.77-.7,1.21-.67S99,268.22,99.24,268.29Z" style="opacity:0.1"></path><path d="M98.27,277.27c-.15.12,0,1,0,1.48a.57.57,0,0,1-.13.41c-.32.21-3-2-2.49-2.49.3-.31,1.37-.09,1.53-.22s1.53-1.79,2.53-3h0l1.07-1.32,1.93,1.94Z" style="fill:#6C63FF"></path><path d="M97.82,279a6.8,6.8,0,0,0-2.13-2Z" style="fill:#263238"></path><path d="M98.22,278.75a.57.57,0,0,1-.13.41c-.32.21-3-2-2.49-2.49.3-.31,1.37-.09,1.53-.22s1.53-1.79,2.53-3a26.71,26.71,0,0,1-2.2,3.41c-.26.11-.94.11-1,.45a.73.73,0,0,0,.06.22,3.55,3.55,0,0,0,.5.69,4.61,4.61,0,0,0,.66.62l.1.07c.13.08.23.11.3.08A.47.47,0,0,0,98.22,278.75Z" style="opacity:0.1"></path><path d="M109.53,282.55c0,.09-.23.18-.55.25-1,.23-3,.29-3-.25s.92-1,.93-1.24-.24-2.87-.4-4.45h0l-.12-1.17h2.74l-.83,5.4C108.29,281.35,109.61,282.17,109.53,282.55Z" style="fill:#6C63FF"></path><path d="M109.21,282.6a6.86,6.86,0,0,0-2.92.09Z" style="fill:#263238"></path><path d="M109,282.8c-1,.23-3,.29-3-.25s.92-1,.93-1.24-.24-2.87-.4-4.45c.3,1.47.86,4.33.83,4.46s-.74.9-.55,1.16a.16.16,0,0,0,.08,0,1,1,0,0,0,.39.13A9.31,9.31,0,0,0,109,282.8Z" style="opacity:0.1"></path><path d="M119.13,278.32c-.61.69-1.34,1.29-1.6,1s-.08-1.38-.21-1.54-3.23-2.7-4.11-3.41h0l-.24-.2,1.93-1.93,3.24,4.4c.16.21,1.67-.13,1.88.18C120.12,277,119.68,277.7,119.13,278.32Z" style="fill:#6C63FF"></path><path d="M119.83,277.12a6.8,6.8,0,0,0-2,2.13Z" style="fill:#263238"></path><path d="M119.13,278.32c-.61.69-1.34,1.29-1.6,1s-.08-1.38-.21-1.54-3.23-2.7-4.11-3.41h0s4.58,2.9,4.62,3.15-.06,1.23.24,1.26a.38.38,0,0,0,.2,0A4.19,4.19,0,0,0,119.13,278.32Z" style="opacity:0.1"></path><path d="M123.41,268.94c-.22,0-.5-.26-.74-.51s-.4-.42-.5-.43c-.35,0-5.62.52-5.62.52v-2.73l1.11.16h0l4.27.65c.27,0,1.09-1.27,1.46-1.2S124.13,268.94,123.41,268.94Z" style="fill:#6C63FF"></path><path d="M123.47,265.73a6.74,6.74,0,0,0,.09,2.93Z" style="fill:#263238"></path><path d="M123.41,268.94c-.22,0-.5-.26-.74-.51.19,0,.45,0,.67,0a.26.26,0,0,0,.13-.08.54.54,0,0,0,.07-.17,3.09,3.09,0,0,0,0-1.31,1.53,1.53,0,0,0-.13-.38h0c-.05-.09-.1-.14-.16-.14-.35,0-1,.74-1.46.67s-2.75-.72-4.07-1.09l4.27.65c.27,0,1.09-1.27,1.46-1.2S124.13,268.94,123.41,268.94Z" style="opacity:0.1"></path><path d="M120.21,257.41c-.3.31-1.37.08-1.53.22s-3.61,4.34-3.61,4.34L113.13,260l.43-.31h0l4-2.93c.21-.16-.14-1.67.18-1.88.16-.11,1,.42,1.6,1h0C120,256.52,120.46,257.17,120.21,257.41Z" style="fill:#6C63FF"></path><path d="M118,255.11a6.84,6.84,0,0,0,2.12,2Z" style="fill:#263238"></path><path d="M119.32,255.94a2.64,2.64,0,0,0-.78-.31l-.17,0c-.16,0-.26.07-.29.22-.07.4.18,1.13,0,1.36s-4.35,2.45-4.52,2.54l4-2.93c.21-.16-.14-1.67.18-1.88C117.88,254.81,118.67,255.34,119.32,255.94Z" style="opacity:0.1"></path><g style="opacity:0.1"><path d="M104.6,274.37c-.12.25-.56.3-1,.11s-.68-.56-.56-.82.56-.3,1-.11S104.71,274.11,104.6,274.37Z"></path><path d="M104.31,275.28a2.88,2.88,0,0,1-1.67-.8.87.87,0,0,1-.27-1c.17-.45.6-.44,1-.48,0,0,0,0,0,0-.71-.08-1.56.21-1.43,1.08s1.45,1.45,2.34,1.38C104.39,275.44,104.41,275.29,104.31,275.28Z"></path><path d="M106.2,259.82c0,.27-.43.57-1,.65s-1.16-.07-1.2-.35.44-.57,1.06-.66S106.17,259.54,106.2,259.82Z"></path><path d="M104.6,261.06a2.48,2.48,0,0,1-.93-.3.7.7,0,0,1-.19-1,2.13,2.13,0,0,1,1.52-.82s0-.06,0-.06c-.7,0-1.76.39-2,1.15-.29,1,.91,1.16,1.6,1.15C104.66,261.17,104.66,261.07,104.6,261.06Z"></path><path d="M114.93,263.34c0,.29-.39.5-.86.49s-.84-.25-.83-.53.39-.5.86-.49S114.94,263.06,114.93,263.34Z"></path><path d="M114,264.47a3.58,3.58,0,0,1-1.31-.65c-.66-.71.36-1.15.93-1.31a0,0,0,0,0,0-.05c-.61.05-1.54.43-1.41,1.19s1.15,1.07,1.79,1A.07.07,0,0,0,114,264.47Z"></path><path d="M101.42,271.23c0,.21-.31.37-.68.36s-.64-.21-.63-.43.31-.38.67-.36S101.43,271,101.42,271.23Z"></path><path d="M100.68,272.08a2.61,2.61,0,0,1-1-.53c-.51-.56.3-.88.74-1,0,0,0,0,0,0-.47,0-1.2.31-1.11.9s.87.85,1.36.78A.06.06,0,0,0,100.68,272.08Z"></path><path d="M117.09,271.5c.06.35-.35.71-.93.81s-1.08-.1-1.14-.45.36-.7.93-.8S117,271.16,117.09,271.5Z"></path><path d="M115,270.93s0,0,0,0c-.54.41-1.3,1.08-.75,1.81a1.62,1.62,0,0,0,2,.32s0-.11,0-.11a2.78,2.78,0,0,1-1.48-.18C113.91,272.29,114.53,271.39,115,270.93Z"></path></g><path d="M325.08,182.7l8.84,6.42c.4.29,2.88-1.14,3.43-.69s-1.88,6.37-3.06,5.75c-.7-.37-.88-2.39-1.2-2.6-.55-.36-10.38-4.42-10.38-4.42Z" style="fill:#6C63FF"></path><path d="M337.15,189s-2.13,2.7-2.38,4.84" style="fill:#263238"></path><path d="M325.08,182.7l8.84,6.42c.4.29,2.88-1.14,3.43-.69s-1.88,6.37-3.06,5.75c-.7-.37-.88-2.39-1.2-2.6-.55-.36-10.38-4.42-10.38-4.42Z" style="opacity:0.1"></path><path d="M324.73,167.72,335.52,166c.49-.07,1.23-2.84,1.94-2.91s3.17,5.84,1.9,6.23c-.76.24-2.32-1.06-2.69-1-.64.14-10.46,4.22-10.46,4.22Z" style="fill:#6C63FF"></path><path d="M337.72,163.65s.41,3.41,1.74,5.11" style="fill:#263238"></path><path d="M324.73,167.72,335.52,166c.49-.07,1.23-2.84,1.94-2.91s3.17,5.84,1.9,6.23c-.76.24-2.32-1.06-2.69-1-.64.14-10.46,4.22-10.46,4.22Z" style="opacity:0.1"></path><path d="M313.89,157.39l6.43-8.84c.28-.4-1.14-2.88-.7-3.43s6.38,1.88,5.76,3c-.37.71-2.4.89-2.61,1.21-.36.55-4.41,10.38-4.41,10.38Z" style="fill:#6C63FF"></path><path d="M320.2,145.31s2.7,2.14,4.84,2.39" style="fill:#263238"></path><path d="M313.89,157.39l6.43-8.84c.28-.4-1.14-2.88-.7-3.43s6.38,1.88,5.76,3c-.37.71-2.4.89-2.61,1.21-.36.55-4.41,10.38-4.41,10.38Z" style="opacity:0.1"></path><path d="M298.92,157.74s-1.63-10.31-1.71-10.79-2.84-1.24-2.91-1.94,5.84-3.17,6.23-1.91c.23.77-1.07,2.32-1,2.7.14.64,4.22,10.46,4.22,10.46Z" style="fill:#6C63FF"></path><path d="M294.84,144.75s3.42-.41,5.11-1.74" style="fill:#263238"></path><path d="M298.92,157.74s-1.63-10.31-1.71-10.79-2.84-1.24-2.91-1.94,5.84-3.17,6.23-1.91c.23.77-1.07,2.32-1,2.7.14.64,4.22,10.46,4.22,10.46Z" style="opacity:0.1"></path><path d="M288.58,168.58l-8.84-6.43c-.39-.29-2.88,1.14-3.42.69s1.88-6.37,3.05-5.75c.71.37.89,2.39,1.21,2.6.55.36,10.38,4.42,10.38,4.42Z" style="fill:#6C63FF"></path><path d="M276.51,162.27s2.13-2.7,2.39-4.84" style="fill:#263238"></path><path d="M288.58,168.58l-8.84-6.43c-.39-.29-2.88,1.14-3.42.69s1.88-6.37,3.05-5.75c.71.37.89,2.39,1.21,2.6.55.36,10.38,4.42,10.38,4.42Z" style="opacity:0.1"></path><path d="M288.94,183.55l-10.8,1.71c-.48.07-1.23,2.84-1.93,2.91s-3.17-5.84-1.91-6.23c.76-.23,2.32,1.07,2.7,1,.64-.14,10.45-4.22,10.45-4.22Z" style="fill:#6C63FF"></path><path d="M275.94,187.63s-.4-3.42-1.73-5.12" style="fill:#263238"></path><path d="M288.94,183.55l-10.8,1.71c-.48.07-1.23,2.84-1.93,2.91s-3.17-5.84-1.91-6.23c.76-.23,2.32,1.07,2.7,1,.64-.14,10.45-4.22,10.45-4.22Z" style="opacity:0.1"></path><path d="M299.77,193.89l-6.42,8.84c-.29.39,1.14,2.88.69,3.42s-6.37-1.88-5.75-3.05c.37-.71,2.39-.89,2.6-1.21.36-.55,4.41-10.38,4.41-10.38Z" style="fill:#6C63FF"></path><path d="M293.47,206s-2.7-2.14-4.84-2.39" style="fill:#263238"></path><path d="M299.77,193.89l-6.42,8.84c-.29.39,1.14,2.88.69,3.42s-6.37-1.88-5.75-3.05c.37-.71,2.39-.89,2.6-1.21.36-.55,4.41-10.38,4.41-10.38Z" style="opacity:0.1"></path><path d="M314.74,193.53s1.64,10.31,1.71,10.8,2.85,1.23,2.92,1.93-5.84,3.17-6.23,1.91c-.24-.76,1.06-2.32,1-2.7-.13-.64-4.21-10.46-4.21-10.46Z" style="fill:#6C63FF"></path><path d="M318.82,206.53s-3.42.4-5.11,1.73" style="fill:#263238"></path><path d="M314.74,193.53s1.64,10.31,1.71,10.8,2.85,1.23,2.92,1.93-5.84,3.17-6.23,1.91c-.24-.76,1.06-2.32,1-2.7-.13-.64-4.21-10.46-4.21-10.46Z" style="opacity:0.1"></path><path d="M326.69,180.44s13,6.54,13.41,6.78,2.73-1.48,3.33-1.1-1.11,6.58-2.36,6.11c-.74-.29-1.17-2.28-1.51-2.45-.59-.3-14.7-4.6-14.7-4.6Z" style="fill:#6C63FF"></path><path d="M343.3,186.72s-1.8,2.95-1.79,5.12" style="fill:#263238"></path><path d="M324,165.27s13.8-4.55,14.27-4.68.89-3,1.59-3.14,3.86,5.44,2.65,6c-.74.32-2.45-.79-2.81-.67-.63.22-13.64,7.15-13.64,7.15Z" style="fill:#6C63FF"></path><path d="M340.21,158s.81,3.36,2.34,4.89" style="fill:#263238"></path><path d="M311.4,156.43s6.55-13,6.79-13.4-1.48-2.74-1.1-3.34,6.58,1.12,6.1,2.36c-.28.75-2.28,1.17-2.45,1.52-.29.59-4.59,14.69-4.59,14.69Z" style="fill:#6C63FF"></path><path d="M317.68,139.82s2.95,1.8,5.12,1.8" style="fill:#263238"></path><path d="M296.23,159.1s-4.55-13.8-4.68-14.27-3-.89-3.14-1.58,5.45-3.87,6-2.65c.32.73-.79,2.44-.66,2.8.21.63,7.14,13.64,7.14,13.64Z" style="fill:#6C63FF"></path><path d="M288.92,142.92s3.37-.82,4.9-2.35" style="fill:#263238"></path><path d="M287.39,171.72s-13-6.54-13.4-6.78-2.74,1.48-3.34,1.1,1.12-6.58,2.36-6.11c.75.29,1.17,2.28,1.52,2.45.59.3,14.69,4.6,14.69,4.6Z" style="fill:#6C63FF"></path><path d="M270.78,165.44s1.8-2.95,1.8-5.12" style="fill:#263238"></path><path d="M290.07,186.89s-13.8,4.55-14.28,4.68-.89,3-1.58,3.14-3.86-5.44-2.65-6c.73-.32,2.44.79,2.81.67.62-.22,13.64-7.15,13.64-7.15Z" style="fill:#6C63FF"></path><path d="M273.88,194.2s-.81-3.36-2.35-4.89" style="fill:#263238"></path><path d="M302.68,195.73s-6.54,13-6.78,13.4,1.48,2.74,1.1,3.34-6.58-1.12-6.11-2.36c.29-.75,2.29-1.17,2.46-1.52.29-.59,4.59-14.69,4.59-14.69Z" style="fill:#6C63FF"></path><path d="M296.41,212.34s-3-1.8-5.12-1.8" style="fill:#263238"></path><path d="M317.85,193.06s4.55,13.8,4.68,14.27,3,.89,3.14,1.58-5.44,3.87-6,2.65c-.33-.73.78-2.44.66-2.8-.21-.63-7.14-13.64-7.14-13.64Z" style="fill:#6C63FF"></path><path d="M325.16,209.24s-3.36.82-4.89,2.35" style="fill:#263238"></path><path d="M331.74,182.53c-3.6,15.36-18.82,20.32-30.24,17.64A25.88,25.88,0,0,1,284.33,187a23.23,23.23,0,0,1-2-16.07c3.17-13.49,13.86-22.95,29.8-19.21A28.11,28.11,0,0,1,323.33,157C331.09,163.15,334,173,331.74,182.53Z" style="fill:#6C63FF"></path><path d="M331.74,182.53c-3.6,15.36-18.82,20.32-30.24,17.64A25.88,25.88,0,0,1,284.33,187c6.25,4.68,17.77,11,29.31,5.53,15.91-7.54,15.89-25.07,9.69-35.56C331.09,163.15,334,173,331.74,182.53Z" style="opacity:0.1"></path><path d="M325.31,178v-5.77l.64.1c2.33.35,10.25,1.57,10.73,1.63s2.28-2.68,3.08-2.52c.35.08.69,1.6.82,3.25.16,2,0,4.17-.82,4.17s-2.17-1.93-2.61-2C336.41,176.78,325.31,178,325.31,178Z" style="fill:#6C63FF"></path><path d="M339.86,172.08s-.7,3.86.19,6.15Z" style="fill:#263238"></path><path d="M326,172.29c2.33.35,10.25,1.57,10.73,1.63s2.28-2.68,3.08-2.52c.35.08.69,1.6.82,3.25a4.25,4.25,0,0,0-.68-1.54.59.59,0,0,0-.17-.12c-.2-.12-.4-.06-.63.14-.6.53-1.33,1.79-1.94,1.83S326.27,172.39,326,172.29Z" style="opacity:0.1"></path><path d="M322.19,164.17l-4.07-4.07.21-.16,0,0,9-6.62c.45-.34-.28-3.52.4-4,.45-.31,3.27,1.78,4.63,3.46.62.77.94,1.44.61,1.78-.64.64-2.91.17-3.24.45C329.21,155.49,322.19,164.17,322.19,164.17Z" style="fill:#6C63FF"></path><path d="M328.33,149.73s2.23,3.22,4.48,4.21Z" style="fill:#263238"></path><path d="M318.37,159.91l9-6.62c.45-.34-.28-3.52.4-4,.45-.31,3.27,1.78,4.63,3.46a9.91,9.91,0,0,0-2.46-1.54,2.21,2.21,0,0,0-.56-.16c-.26-.05-.44,0-.49.14-.21.65.29,2.06-.09,2.71S319.07,159.54,318.37,159.91Z" style="opacity:0.1"></path><path d="M310.24,156.63h-5.76v0c.1-.64,1.66-10.8,1.73-11.34s-2.68-2.29-2.52-3.07,6.33-1.4,7.29-.31a.46.46,0,0,1,.13.31c0,.9-1.93,2.17-2,2.6C309.07,145.54,310.24,156.63,310.24,156.63Z" style="fill:#6C63FF"></path><path d="M304.37,142.08s3.86.7,6.15-.19Z" style="fill:#263238"></path><path d="M304.48,156.6c.1-.64,1.66-10.8,1.73-11.34s-2.68-2.29-2.52-3.07,6.33-1.4,7.29-.31a5.55,5.55,0,0,0-4.5.13,3.92,3.92,0,0,0-.47.27c-.23.17-.36.34-.34.47.15.64,1.49,1.64,1.43,2.57S304.64,156,304.48,156.6Z" style="opacity:0.1"></path><path d="M285.57,154.56c-.23-.33-2,0-3.1-.11a1.16,1.16,0,0,1-.86-.28c-.44-.67,4.18-6.31,5.24-5.25.65.64.17,2.9.45,3.24s3.78,3.21,6.36,5.31l0,0c1.54,1.27,2.76,2.25,2.76,2.25l-4.07,4.08S285.91,155,285.57,154.56Z" style="fill:#6C63FF"></path><path d="M282,153.61s3.22-2.23,4.21-4.48Z" style="fill:#263238"></path><path d="M282.47,154.45a1.16,1.16,0,0,1-.86-.28c-.44-.67,4.18-6.31,5.24-5.25.65.64.17,2.9.45,3.24s3.78,3.21,6.36,5.31c-2.66-1.49-7-4.25-7.17-4.64s-.24-2-.94-2.1a.84.84,0,0,0-.47.12,7.91,7.91,0,0,0-1.47,1.06,8.54,8.54,0,0,0-1.29,1.38,2.12,2.12,0,0,0-.15.21c-.17.27-.23.49-.16.63A.94.94,0,0,0,282.47,154.45Z" style="opacity:0.1"></path><path d="M274.47,178.25c-.19,0-.37-.5-.52-1.16-.48-2.09-.63-6.25.52-6.26.91,0,2.18,1.94,2.61,2s6.05-.5,9.36-.85h0l2.46-.25v5.76l-11.36-1.74C277,175.65,275.26,178.41,274.47,178.25Z" style="fill:#6C63FF"></path><path d="M274.36,177.57s.7-3.86-.18-6.15Z" style="fill:#263238"></path><path d="M274,177.09c-.48-2.09-.63-6.25.52-6.26.91,0,2.18,1.94,2.61,2s6.05-.5,9.36-.85c-3.1.62-9.12,1.82-9.38,1.75s-1.91-1.56-2.44-1.16a.55.55,0,0,0-.12.16,2.88,2.88,0,0,0-.26.84A18.8,18.8,0,0,0,274,177.09Z" style="opacity:0.1"></path><path d="M283.37,198.45c-1.44-1.28-2.72-2.81-2.16-3.37s2.9-.17,3.23-.45c.5-.41,5.68-6.78,7.18-8.64h0l.4-.51,4.08,4.08-9.26,6.8c-.45.34.27,3.52-.39,4C286.14,200.54,284.69,199.6,283.37,198.45Z" style="fill:#6C63FF"></path><path d="M285.9,199.92s-2.24-3.22-4.48-4.21Z" style="fill:#263238"></path><path d="M283.37,198.45c-1.44-1.28-2.72-2.81-2.16-3.37s2.9-.17,3.23-.45c.5-.41,5.68-6.78,7.18-8.64h0s-6.12,9.64-6.64,9.72-2.58-.13-2.66.52a1,1,0,0,0,.07.41A9.25,9.25,0,0,0,283.37,198.45Z" style="opacity:0.1"></path><path d="M303.12,207.47c0-.49.55-1.07,1.06-1.57s.9-.84.91-1c.07-.74-1.1-11.84-1.1-11.84h5.76l-.36,2.34v0c-.5,3.22-1.33,8.62-1.38,9-.07.55,2.68,2.29,2.53,3.08S303.12,209,303.12,207.47Z" style="fill:#6C63FF"></path><path d="M309.86,207.58s-3.86-.7-6.15.18Z" style="fill:#263238"></path><path d="M303.12,207.47c0-.49.55-1.07,1.06-1.57a12.64,12.64,0,0,0-.05,1.41.43.43,0,0,0,.16.27,1.54,1.54,0,0,0,.36.16,6.47,6.47,0,0,0,2.75-.09,3.31,3.31,0,0,0,.81-.28h0c.19-.1.3-.21.3-.33,0-.73-1.57-2-1.41-3.08.12-.75,1.51-5.77,2.29-8.57-.5,3.22-1.33,8.62-1.38,9-.07.55,2.68,2.29,2.53,3.08S303.12,209,303.12,207.47Z" style="opacity:0.1"></path><path d="M327.37,200.73c-.65-.64-.17-2.9-.45-3.24-.48-.57-9.15-7.59-9.15-7.59l4.08-4.07s.25.33.65.89h0l6.15,8.37c.34.44,3.52-.29,4,.39.23.33-.88,2-2.15,3.37h0C329.25,200.18,327.89,201.25,327.37,200.73Z" style="fill:#6C63FF"></path><path d="M332.21,196s-3.22,2.24-4.21,4.48Z" style="fill:#263238"></path><path d="M330.47,198.86a6.13,6.13,0,0,0,.65-1.65,1.17,1.17,0,0,0,0-.36c0-.33-.14-.55-.45-.6-.84-.15-2.39.38-2.87,0s-5.15-9.17-5.34-9.52l6.15,8.37c.34.44,3.52-.29,4,.39C332.85,195.82,331.74,197.48,330.47,198.86Z" style="opacity:0.1"></path><g style="opacity:0.1"><path d="M301.78,190.58c-.25.53-1.17.63-2.06.22s-1.42-1.18-1.17-1.71,1.17-.64,2.06-.23S302,190,301.78,190.58Z"></path><path d="M301.19,192.49a6,6,0,0,1-3.53-1.68,1.85,1.85,0,0,1-.57-2.07c.37-1,1.27-.92,2.14-1,0,0,.06-.08,0-.09-1.49-.17-3.27.45-3,2.28.32,2.15,3,3,4.91,2.91C301.34,192.83,301.39,192.52,301.19,192.49Z"></path><path d="M310.9,160.9c-.06.59-1.18.95-2.49.81s-2.32-.73-2.26-1.32,1.18-.95,2.49-.81S311,160.32,310.9,160.9Z"></path><path d="M307,162.64a5.3,5.3,0,0,1-1.74-1.08,1.45,1.45,0,0,1,.13-2.15,4.41,4.41,0,0,1,3.51-.92.06.06,0,0,0,0-.12c-1.46-.27-3.78-.1-4.64,1.33-1.1,1.85,1.26,2.84,2.68,3.17C307.07,162.9,307.11,162.69,307,162.64Z"></path><path d="M322.25,174.73c0,.59-.82,1.05-1.8,1s-1.77-.53-1.76-1.12.83-1,1.81-1S322.27,174.14,322.25,174.73Z"></path><path d="M320.29,177.1a7.41,7.41,0,0,1-2.75-1.37c-1.4-1.49.76-2.41,1.94-2.76a.05.05,0,1,0,0-.1c-1.27.11-3.23.9-2.95,2.5s2.42,2.26,3.76,2A.16.16,0,0,0,320.29,177.1Z"></path><path d="M293.53,176.27c.09.45-.44.93-1.18,1.09s-1.43-.09-1.52-.54.44-.93,1.18-1.09S293.44,175.82,293.53,176.27Z"></path><path d="M292.47,178.4a5.73,5.73,0,0,1-2.32-.55c-1.32-.88.15-2,1-2.43,0,0,0-.09,0-.07-1,.31-2.29,1.25-1.79,2.41s2.22,1.28,3.19.87A.12.12,0,0,0,292.47,178.4Z"></path><path d="M329.12,179.23c.12.72-.75,1.48-1.95,1.69s-2.29-.21-2.41-.93.75-1.48,1.95-1.69S329,178.51,329.12,179.23Z"></path><path d="M324.8,178s0-.07,0-.05c-1.14.86-2.73,2.26-1.59,3.8a3.43,3.43,0,0,0,4.3.68.13.13,0,0,0-.08-.23,5.88,5.88,0,0,1-3.11-.39C322.42,180.88,323.72,179,324.8,178Z"></path></g></g><g id="freepik--Table--inject-99"><polygon points="42.58 441.31 94.44 441.06 146.29 440.98 250 440.81 353.71 440.98 405.56 441.06 457.42 441.31 405.56 441.55 353.71 441.64 250 441.81 146.29 441.64 94.44 441.55 42.58 441.31" style="fill:#263238"></polygon></g><g id="freepik--Character--inject-99"><path d="M191.88,251.41c34.74,22.07,97.25,53,121,55,26.44,2.24,64.18-68.21,89.54-111.74,5.05-8.66-59.72-52-64.63-42.47-12.83,24.86-37.48,80.07-43.59,81.62-5,1.27-56.75-6.56-85.91-11.31C161.92,215,167.43,235.88,191.88,251.41Z" style="fill:#f7a9a0"></path><path d="M390.14,212.68c-8.11,5-59.26-31.33-59.66-41.11-.07-1.84.57-5.26,1.78-9.63l0,0s-2-21.74-10-39.24C315.49,108,303.8,86.89,311.57,83c11.33-5.75,29.31,19.12,38.77,34,4.54-8.46,9.24-15.31,13.44-18.3,14-9.92,66.18,46.74,61.41,63.49C420.59,178.34,398.26,207.67,390.14,212.68Z" style="fill:#f7a9a0"></path><path d="M345.35,118.28c2.34,8.59,11.12.92,11.12.92s-10,14.09-4.15,22c5.65,7.61,15.93-2,16.67-2.71-.52.75-9.35,13.94-2.67,21.29,6.95,7.64,15.61-3.81,16.17-4.55-.27.86-3.65,12.33,2.7,16.76,10.91,7.61,20.35-21.46,30.14-25.95,0,0,9.5,15.73,9.87,16.13,0,0,9.55-27.48,2.76-40.35-3.57-6.79-10.6-4.79-10.6-4.79s4.05-8.52-1-14.48c-2.62-3-9.82-1.58-9.82-1.58s3-7-1.89-12c-3.85-4-10.48-1.91-10.48-1.91s-.25-8-5.53-10.83C378,70.54,340.36,99.9,345.35,118.28Z" style="fill:#f7a9a0"></path><path d="M393.05,87.26a.13.13,0,0,0-.11-.23c-14.74,6.63-28.9,18.44-37,32.53-.27.47.37,1.1.76.65C367.83,107.27,378.73,96.68,393.05,87.26Z" style="fill:#263238"></path><path d="M406.64,100.76c.16-.1,0-.36-.19-.28-15.15,6.91-30.73,20.65-38.14,38-.26.6.11,1.39.46.73C374.57,128,393.71,109.17,406.64,100.76Z" style="fill:#263238"></path><path d="M382.39,156.63c7.75-16.36,20-28.59,34.32-39.35.19-.14,0-.39-.22-.31-8.45,3.35-16.89,11.16-22.94,17.79a47.82,47.82,0,0,0-11.74,21.6C381.74,156.68,382.22,157,382.39,156.63Z" style="fill:#263238"></path><path d="M356.17,119.23c-.32.56.84.41.54,1-1.27,2.37-7.64,17.34-3.22,21.09,3.55,3,10.05.31,12.14-1.7l5.25-5.06-3.17,6.58a29.68,29.68,0,0,0-2.82,9.25c-.38,3.14.07,6.38,2,8.5a6.09,6.09,0,0,0,7.48,1.72,18.41,18.41,0,0,0,6.91-6.14l5.05-7-2.47,8.25a28.41,28.41,0,0,0-1.17,7.06,11.57,11.57,0,0,0,1.44,6.51,5.48,5.48,0,0,0,5.18,2.58c2.07-.28,4.1-1.79,5.89-3.4,3.6-3.33,6.54-7.49,9.65-11.46,1.55-2,3.09-4,4.74-6s3.4-3.9,5.74-5c-2.2,1.29-3.66,3.42-5.19,5.4s-2.86,4.15-4.25,6.26a81.53,81.53,0,0,1-9.25,12.23c-1.86,1.79-3.94,3.68-6.93,4.3a7.8,7.8,0,0,1-7.79-3.52,14.14,14.14,0,0,1-2-8,30.63,30.63,0,0,1,1.19-7.88l2.58,1.23a21.15,21.15,0,0,1-8.08,7.34,8.92,8.92,0,0,1-6,.62,10,10,0,0,1-5-3.21c-2.67-3.08-3-7.26-2.55-10.76a32.6,32.6,0,0,1,3.26-10.12l2.08,1.52c-2.74,2.47-9.68,6.27-15.77,2.3C344.54,137.38,354.2,121.93,356.17,119.23Z" style="fill:#263238"></path><path d="M356.47,119.2a18.07,18.07,0,0,1-5.09,2,4.16,4.16,0,0,1-4-1.19,8.36,8.36,0,0,1-1.51-4.53c-.16-1.79-.23-3.68-.22-5.63a14.07,14.07,0,0,0-1.73,5.63,8.31,8.31,0,0,0,1.59,6.17,5.87,5.87,0,0,0,3.07,1.76,6.11,6.11,0,0,0,3.34-.35A9.53,9.53,0,0,0,356.47,119.2Z" style="fill:#263238"></path><path d="M248.41,288.93l46.79-59.18s-81.53-15.38-106.79-13.14c-28.42,2.53-20.91,16.51-.26,34.09S248.41,288.93,248.41,288.93Z" style="fill:#6C63FF"></path><path d="M295.2,229.76l-46.79,59.18s-39.61-20.66-60.26-38.24-28.16-31.56.26-34.09c1.44-.12,3.06-.19,4.85-.22h2.23c9.95.09,23.92,1.54,38.25,3.44l.79.1c11.32,1.52,22.84,3.31,32.76,4.93l4.18.71C285.36,227.9,295.2,229.76,295.2,229.76Z" style="fill:#455a64"></path><path d="M255.21,230.24a3.86,3.86,0,0,1-1.6.81,3.21,3.21,0,0,1-3-.93,4.23,4.23,0,0,0-4.66-.8,4.1,4.1,0,0,0-1.73,1.52c-.39.57-.82,1.13-1.17,1.74.63-.35,1.17-.77,1.76-1.17a4.06,4.06,0,0,1,1.59-.85,3.18,3.18,0,0,1,3,.8,4.28,4.28,0,0,0,4.62.94,4,4,0,0,0,1.78-1.46c.38-.6.8-1.14,1.15-1.77C256.35,229.44,255.79,229.86,255.21,230.24Zm-1.11,35.34c-.14-.68-.23-1.38-.42-2.06-.2.68-.28,1.38-.42,2.06a4.24,4.24,0,0,1-.53,1.75,3.15,3.15,0,0,1-2.69,1.55,4.28,4.28,0,0,0-3.93,2.59,4,4,0,0,0-.22,2.3c.14.7.22,1.38.41,2.07.2-.69.28-1.37.42-2.07a3.94,3.94,0,0,1,.58-1.69,3.23,3.23,0,0,1,2.78-1.49,4.14,4.14,0,0,0,4-5Zm-71.66-37.29a4,4,0,0,1-1.61.88,3.15,3.15,0,0,1-3-.81,4.3,4.3,0,0,0-4.61-1,4.14,4.14,0,0,0-1.79,1.49c-.31.46-.65.91-1,1.39a1.34,1.34,0,0,0,.07.18c.51-.3,1-.65,1.48-1a3.59,3.59,0,0,1,1.61-.8,3.21,3.21,0,0,1,3,.91,4.24,4.24,0,0,0,4.66.82,4.32,4.32,0,0,0,1.73-1.52c.39-.6.81-1.14,1.16-1.75C183.58,227.49,183,227.91,182.44,228.29Zm105.79,8.45a4.22,4.22,0,0,0-2.72-3.88,4.13,4.13,0,0,0-2.29-.14c-.68.14-1.38.21-2.06.4.68.19,1.38.28,2.06.42a4.4,4.4,0,0,1,1.75.52,3.25,3.25,0,0,1,1.57,2.69,4.23,4.23,0,0,0,1,2.74l1-1.32A3,3,0,0,1,288.23,236.74Zm-68.46,19.63a4,4,0,0,1-1.71-.58,3.33,3.33,0,0,1-1.49-2.78,4.17,4.17,0,0,0-2.7-3.86,4.31,4.31,0,0,0-2.31-.16c-.68.14-1.36.23-2.06.42.7.2,1.38.28,2.06.42a3.72,3.72,0,0,1,1.75.53,3.19,3.19,0,0,1,1.57,2.69,4.24,4.24,0,0,0,2.59,3.93,4,4,0,0,0,2.3.22c.68-.14,1.36-.22,2.06-.41C221.13,256.59,220.45,256.51,219.77,256.37Z" style="fill:#fff"></path><path d="M275.37,254.83l-27,34.1s-39.6-20.65-60.25-38.23c-15.23-13-23.31-24-15.09-29.88Z" style="fill:#37474f"></path><path d="M278.11,229.77c-1.94,1.79-16.81,20-20,24s-16.16,20.37-19.06,24.8a.18.18,0,0,0,.28.24c3.66-3.78,16.84-20.23,20.13-24.27S277.1,232.2,278.4,230C278.51,229.77,278.24,229.65,278.11,229.77Z" style="fill:#263238"></path><path d="M272.12,441.57H85.57s14.93-151.78,84.36-219.8c8.58-8.41,31.4-12.29,43-3.19,6.21,4.85,17.49,26.58,23.46,48.75S272.61,440.87,272.12,441.57Z" style="fill:#455a64"></path><path d="M219.77,256.37a4,4,0,0,1-1.71-.58,3.33,3.33,0,0,1-1.49-2.78,4.17,4.17,0,0,0-2.7-3.86,4.31,4.31,0,0,0-2.31-.16c-.68.14-1.36.23-2.06.42.7.2,1.38.28,2.06.42a3.72,3.72,0,0,1,1.75.53,3.19,3.19,0,0,1,1.57,2.69,4.24,4.24,0,0,0,2.59,3.93,4,4,0,0,0,2.3.22c.68-.14,1.36-.22,2.06-.41C221.13,256.59,220.45,256.51,219.77,256.37Zm32.3,136.36a3.8,3.8,0,0,1-1.71-.56,3.26,3.26,0,0,1-1.47-2.78,4.26,4.26,0,0,0-2.72-3.88,4.42,4.42,0,0,0-2.29-.14c-.7.14-1.38.21-2.06.41a20.31,20.31,0,0,0,2.06.42,4,4,0,0,1,1.73.52,3.16,3.16,0,0,1,1.57,2.69,4.3,4.3,0,0,0,2.59,3.95,3.92,3.92,0,0,0,2.3.21c.68-.14,1.38-.23,2.06-.42C253.45,393,252.75,392.89,252.07,392.73Zm-92.2-79.31a3.5,3.5,0,0,1-1.69-.58,3.2,3.2,0,0,1-1.49-2.77,4.12,4.12,0,0,0-5-4c-.68.14-1.38.22-2.06.42.68.19,1.38.28,2.06.42a4,4,0,0,1,1.74.52A3.14,3.14,0,0,1,155,310.1a4.28,4.28,0,0,0,2.58,3.93,4.16,4.16,0,0,0,2.31.23c.7-.14,1.38-.23,2.06-.42C161.25,313.65,160.57,313.56,159.87,313.42ZM238.13,435a4.14,4.14,0,0,0-5-4c-.7.14-1.38.23-2.06.42.68.19,1.36.28,2.06.42a4.15,4.15,0,0,1,1.73.53,3.13,3.13,0,0,1,1.57,2.69,4.24,4.24,0,0,0,.86,2.56h2.11A3.11,3.11,0,0,1,238.13,435Zm-135.84,0a3.85,3.85,0,0,1-1.71-.58,3.25,3.25,0,0,1-1.48-2.78,4.12,4.12,0,0,0-5-4c-.68.14-1.36.22-2.06.42.7.19,1.38.27,2.06.41a3.92,3.92,0,0,1,1.75.53,3.22,3.22,0,0,1,1.57,2.69,4.22,4.22,0,0,0,2.59,3.93,4.1,4.1,0,0,0,2.3.23c.68-.14,1.37-.23,2.06-.42C103.66,435.27,103,435.18,102.29,435Zm98.93-63.8a4,4,0,0,1-1.71-.57,3.22,3.22,0,0,1-1.47-2.78,4.2,4.2,0,0,0-2.73-3.86,4.12,4.12,0,0,0-2.28-.16c-.7.14-1.38.23-2.08.42.7.19,1.38.26,2.08.4a4.1,4.1,0,0,1,1.73.54,3.17,3.17,0,0,1,1.57,2.69,4.25,4.25,0,0,0,2.58,3.93,4,4,0,0,0,2.31.21c.68-.14,1.38-.21,2.06-.4C202.6,371.45,201.9,371.38,201.22,371.24Zm-74.17,12.19a3.89,3.89,0,0,1-1.72-.57,3.25,3.25,0,0,1-1.48-2.78,4.17,4.17,0,0,0-2.71-3.86,4.28,4.28,0,0,0-2.3-.16c-.69.14-1.37.23-2.07.42.7.19,1.38.28,2.07.42a3.88,3.88,0,0,1,1.74.53,3.22,3.22,0,0,1,1.57,2.69,4.24,4.24,0,0,0,2.59,3.93,4,4,0,0,0,2.31.22c.68-.14,1.36-.22,2.06-.42C128.41,383.66,127.73,383.57,127.05,383.43Zm108.3-68.37a3.43,3.43,0,0,1-1.69-.57,3.23,3.23,0,0,1-1.49-2.76,4.19,4.19,0,0,0-2.72-3.88,4.12,4.12,0,0,0-2.29-.14c-.68.14-1.38.21-2.06.4.68.19,1.38.28,2.06.42a4.4,4.4,0,0,1,1.75.52,3.25,3.25,0,0,1,1.57,2.69,4.19,4.19,0,0,0,2.57,3.93,4.13,4.13,0,0,0,2.3.23c.7-.14,1.38-.23,2.08-.42C236.73,315.29,236.05,315.2,235.35,315.06Zm-52.91-86.77a4,4,0,0,1-1.61.88,3.15,3.15,0,0,1-3-.81,4.3,4.3,0,0,0-4.61-1,4.14,4.14,0,0,0-1.79,1.49c-.38.57-.82,1.13-1.17,1.74.63-.34,1.17-.76,1.77-1.15a3.59,3.59,0,0,1,1.61-.8,3.21,3.21,0,0,1,3,.91,4.24,4.24,0,0,0,4.66.82,4.32,4.32,0,0,0,1.73-1.52c.39-.6.81-1.14,1.16-1.75C183.58,227.49,183,227.91,182.44,228.29ZM201,324.83c-.14-.7-.23-1.38-.42-2.06-.19.68-.28,1.36-.42,2.06a4,4,0,0,1-.52,1.73,3.16,3.16,0,0,1-2.69,1.57,4.26,4.26,0,0,0-3.93,2.58,4.06,4.06,0,0,0-.23,2.31c.14.68.23,1.38.42,2.06.19-.68.28-1.38.42-2.06a3.94,3.94,0,0,1,.57-1.71,3.26,3.26,0,0,1,2.78-1.47,4.22,4.22,0,0,0,3.86-2.72A4.15,4.15,0,0,0,201,324.83Zm-77.45,4.44c-.14-.68-.23-1.38-.42-2.06-.2.68-.28,1.38-.42,2.06a4.24,4.24,0,0,1-.53,1.75,3.15,3.15,0,0,1-2.69,1.55,4.27,4.27,0,0,0-3.93,2.59,4,4,0,0,0-.22,2.3c.14.7.22,1.38.41,2.06.2-.68.28-1.36.42-2.06a3.89,3.89,0,0,1,.58-1.69,3.23,3.23,0,0,1,2.78-1.49,4.14,4.14,0,0,0,4-5Zm39.87-71.45c-.14-.7-.22-1.38-.42-2.07-.19.69-.27,1.37-.41,2.07a4.15,4.15,0,0,1-.53,1.73,3.15,3.15,0,0,1-2.69,1.57,4.28,4.28,0,0,0-3.93,2.58,4.14,4.14,0,0,0-.23,2.31c.14.68.23,1.38.42,2.06.19-.68.28-1.38.42-2.06a3.9,3.9,0,0,1,.58-1.71,3.17,3.17,0,0,1,2.78-1.47,4.22,4.22,0,0,0,3.86-2.73A4.1,4.1,0,0,0,163.43,257.82Zm7.24,137.41c-.14-.7-.21-1.38-.41-2.08-.19.7-.28,1.38-.41,2.08a4.24,4.24,0,0,1-.53,1.73,3.15,3.15,0,0,1-2.69,1.57,4.3,4.3,0,0,0-3.95,2.58,4,4,0,0,0-.21,2.31c.14.68.23,1.38.42,2.06.19-.68.28-1.38.42-2.06a3.72,3.72,0,0,1,.56-1.71,3.24,3.24,0,0,1,2.78-1.47,4.25,4.25,0,0,0,3.88-2.73A4.18,4.18,0,0,0,170.67,395.23ZM132.32,285a3.83,3.83,0,0,1-1.61.81,3.2,3.2,0,0,1-3-.93,1.54,1.54,0,0,0-.19-.17c-.26.54-.51,1.08-.76,1.63a4.24,4.24,0,0,0,4.37.73,4,4,0,0,0,1.79-1.47c.38-.6.8-1.14,1.15-1.77C133.46,284.17,132.9,284.59,132.32,285Zm73.28.71a3.77,3.77,0,0,1-1.6.8,3.18,3.18,0,0,1-3-.92,4.13,4.13,0,0,0-6.39.71c-.39.58-.82,1.14-1.17,1.75.63-.35,1.17-.77,1.76-1.17a4.23,4.23,0,0,1,1.59-.86,3.2,3.2,0,0,1,3,.81,4.28,4.28,0,0,0,4.62.94,3.94,3.94,0,0,0,1.78-1.47c.38-.59.8-1.13,1.15-1.76C206.74,284.88,206.18,285.29,205.6,285.68Zm-44.75,72.69a3.65,3.65,0,0,1-1.61.78,3.19,3.19,0,0,1-3-.91,4.25,4.25,0,0,0-4.67-.82,4.46,4.46,0,0,0-1.73,1.52c-.38.6-.82,1.14-1.17,1.77.63-.37,1.17-.79,1.77-1.17a3.82,3.82,0,0,1,1.6-.86,3.18,3.18,0,0,1,3,.79,4.27,4.27,0,0,0,4.61,1,4.05,4.05,0,0,0,1.78-1.49c.39-.57.82-1.11,1.17-1.74C162,357.55,161.44,358,160.85,358.37Zm16.33,77.33a3.72,3.72,0,0,1-1.61.81,3.24,3.24,0,0,1-3-.93,4.23,4.23,0,0,0-4.66-.8,4.07,4.07,0,0,0-1.73,1.5c-.27.42-.56.8-.82,1.22h.47c.31-.19.63-.42.94-.63a4.07,4.07,0,0,1,1.61-.85,3.18,3.18,0,0,1,3,.78,4.18,4.18,0,0,0,1,.72h4.15a4.37,4.37,0,0,0,1.3-1.22c.38-.6.82-1.14,1.17-1.77C178.32,434.88,177.78,435.32,177.18,435.7Zm73.13-85a3.86,3.86,0,0,1-1.61.78,3.17,3.17,0,0,1-3-.91,4.25,4.25,0,0,0-4.67-.82,4.46,4.46,0,0,0-1.73,1.52c-.38.6-.82,1.14-1.17,1.77.63-.37,1.17-.79,1.77-1.17a3.63,3.63,0,0,1,1.59-.86,3.15,3.15,0,0,1,3,.79,4.29,4.29,0,0,0,4.61,1,4.05,4.05,0,0,0,1.78-1.49c.39-.57.8-1.12,1.17-1.74A18.52,18.52,0,0,0,250.31,350.72ZM216,404.89a3.92,3.92,0,0,1-1.61.8,3.24,3.24,0,0,1-3-.91,4.1,4.1,0,0,0-6.37.7c-.39.59-.83,1.14-1.18,1.75.63-.35,1.18-.77,1.75-1.16a4.13,4.13,0,0,1,1.61-.87,3.23,3.23,0,0,1,3,.8,4.26,4.26,0,0,0,4.6,1,4.14,4.14,0,0,0,1.79-1.49c.39-.58.81-1.13,1.16-1.75C217.12,404.08,216.56,404.5,216,404.89Zm-77.91,8.85a3.77,3.77,0,0,1-1.61.79,3.21,3.21,0,0,1-3-.91,4.23,4.23,0,0,0-4.67-.82,4.38,4.38,0,0,0-1.73,1.52c-.38.59-.82,1.14-1.17,1.76.63-.35,1.17-.78,1.77-1.17a4,4,0,0,1,1.59-.85,3.19,3.19,0,0,1,3,.78,4.22,4.22,0,0,0,4.61,1,4.06,4.06,0,0,0,1.78-1.46c.39-.6.81-1.14,1.17-1.77C139.2,412.92,138.66,413.36,138.07,413.74Z" style="fill:#fff"></path><path d="M144.7,244.69C91.94,306.85,55.89,405.12,74.61,419.56c21.25,16.38,91.12,29,122.3,31.69,9.68.84,34.94-68.31,24.65-69.7-12.06-1.62-74.86-17.71-76.12-17.73-2.7,0,22.93-81.35,30.34-113.23C186.1,206.19,164.51,221.35,144.7,244.69Z" style="fill:#f7a9a0"></path><path d="M213.86,380.94s28.59,2.18,47.22,4.49c10.39,1.29,28,5.09,35.21,9.52,10.78,6.64,51.59,41.29,43.41,51.37-7.42,9.12-38.7-25.1-38.7-25.1S335.62,453,324.68,462.3s-41.15-34-41.15-34,34.84,33.41,22,41.26c-9.68,5.93-39.25-31.8-39.25-31.8s29.75,28.92,20.05,35.45c-10.71,7.22-40.19-25.9-40.19-25.9-27.43,12.45-45.58,7.15-58,1.85C185.1,447.86,213.86,380.94,213.86,380.94Z" style="fill:#f7a9a0"></path><path d="M289.73,409.48c4.2,3.58,8.48,7.17,12.34,11.12s7.61,8,11.09,12.3c8.55,10.51,12.26,18.43,12,18-6.68-11-20.31-25.31-24.18-29.25s-7.53-8.06-11.39-12C289.47,409.52,289.63,409.39,289.73,409.48Z" style="fill:#263238"></path><path d="M275.24,423.19c5.16,4.8,10.47,9.38,15.43,14.42s9.17,10.19,13.75,15.53c.35.41,0,.47-.36.07-4.78-5.15-9.6-9.54-14.45-14.64s-9.49-10.37-14.5-15.27C275,423.23,275.16,423.12,275.24,423.19Z" style="fill:#263238"></path><path d="M260.69,432.72c8.27,6.94,15.25,15.4,21.9,23.86.33.42-.11.44-.47,0-7.13-8.07-12.67-14.45-21.68-23.6C260.3,432.87,260.51,432.58,260.69,432.72Z" style="fill:#263238"></path><path d="M163.37,322.34,88.72,311.47s48.69-67.18,68.58-82.89c22.39-17.69,26.54-2.37,23.61,24.59S163.37,322.34,163.37,322.34Z" style="fill:#455a64"></path><path d="M132.32,285a3.83,3.83,0,0,1-1.61.81,3.2,3.2,0,0,1-3-.93,4.23,4.23,0,0,0-4.66-.8,4.11,4.11,0,0,0-1.73,1.52c-.39.57-.83,1.13-1.17,1.74a19.89,19.89,0,0,0,1.76-1.17,4.13,4.13,0,0,1,1.59-.85,3.2,3.2,0,0,1,3,.8,4.27,4.27,0,0,0,4.61,1,4,4,0,0,0,1.79-1.47c.38-.6.8-1.14,1.15-1.77C133.46,284.17,132.9,284.59,132.32,285Zm31.11-27.15c-.14-.7-.22-1.38-.42-2.07-.19.69-.27,1.37-.41,2.07a4.15,4.15,0,0,1-.53,1.73,3.15,3.15,0,0,1-2.69,1.57,4.28,4.28,0,0,0-3.93,2.58,4.14,4.14,0,0,0-.23,2.31c.14.68.23,1.38.42,2.06.19-.68.28-1.38.42-2.06a3.9,3.9,0,0,1,.58-1.71,3.17,3.17,0,0,1,2.78-1.47,4.22,4.22,0,0,0,3.86-2.73A4.1,4.1,0,0,0,163.43,257.82ZM98.94,302.16c-.14-.69-.23-1.38-.42-2.06-.19.68-.28,1.37-.42,2.06a3.92,3.92,0,0,1-.52,1.73,3.19,3.19,0,0,1-2.69,1.58,4.26,4.26,0,0,0-2.23.63l0,0-1.88,2.55a4.39,4.39,0,0,0,0,1.69c.1.47.17,1,.27,1.44l.29,0c.11-.5.18-1,.28-1.48a4,4,0,0,1,.58-1.72,3.17,3.17,0,0,1,2.77-1.46,4.21,4.21,0,0,0,3.86-2.73A4.14,4.14,0,0,0,98.94,302.16Zm81.77-73a3.12,3.12,0,0,1-2.88-.83,4.3,4.3,0,0,0-4.61-1,4.14,4.14,0,0,0-1.79,1.49c-.38.57-.82,1.13-1.17,1.74.63-.34,1.17-.76,1.77-1.15a3.59,3.59,0,0,1,1.61-.8,3.21,3.21,0,0,1,3,.91,4.25,4.25,0,0,0,4.36.94C180.91,230.07,180.81,229.62,180.71,229.19Zm-20.84,84.23a3.5,3.5,0,0,1-1.69-.58,3.2,3.2,0,0,1-1.49-2.77,4.12,4.12,0,0,0-5-4c-.68.14-1.38.22-2.06.42.68.19,1.38.28,2.06.42a4,4,0,0,1,1.74.52A3.14,3.14,0,0,1,155,310.1a4.28,4.28,0,0,0,2.58,3.93,4.16,4.16,0,0,0,2.31.23c.7-.14,1.38-.23,2.06-.42C161.25,313.65,160.57,313.56,159.87,313.42Z" style="fill:#fff"></path><path d="M101.15,299.21c2.64,0,26,3,31,3.76s25.75,3.7,30.9,4.93a.19.19,0,0,1,0,.37c-5.26-.23-26.14-3.13-31.3-3.81s-28.17-4.18-30.65-4.91C100.86,299.49,101,299.21,101.15,299.21Z" style="fill:#263238"></path><path d="M157.47,320.9c2.27.16,5.8.56,5.8.56,2.23-10.3,5.56-20.45,8.24-30.64,2.73-10.38,5.77-20.65,8.63-31,0-.16.28-.09.25.07-1.25,6-2.51,11.89-3.83,17.81.3-.71.6-1.42.89-2.13,1-2.53,2.14-5,3.1-7.59a.18.18,0,0,1,.35.1,63.25,63.25,0,0,1-2.62,7.84c-.76,1.79-1.63,3.51-2.53,5.22-.78,3.39-1.53,6.79-2.39,10.17-2.65,10.36-4.81,22.06-8.26,32.19,0,0-5.21-1.22-7.77-2.11C157,321.29,157.14,320.88,157.47,320.9Z" style="fill:#263238"></path><path d="M212.84,250.62c-10.09,3.43-29.33-10.65-37.56-22.77-.56-.84-.1-10.21-.08-21.63,0-6.92-.2-14.64-.87-21.66-.15-1.44,45.09,6.48,45.09,6.48s-2.92,15.15-1.67,27.39a14.67,14.67,0,0,0,.58,2.85c0,.13.08.29.11.47C219.85,227.14,222.6,247.3,212.84,250.62Z" style="fill:#f7a9a0"></path><path d="M213.93,222.42a26.36,26.36,0,0,0,4.5-.67c0-.19-.08-.33-.11-.47a15.41,15.41,0,0,1-.57-2.86c-1.24-12.23,1.67-27.37,1.67-27.37s-36.72-6.44-43.89-6.66C177.67,192.37,187.89,224.34,213.93,222.42Z" style="fill:#263238"></path><path d="M161.85,129.62c-3.53,16,8.31,60.58,20.24,69.77,17.29,13.34,43.82,12.64,54.7-7.74,10.54-19.75-5.92-77.53-19.08-85.71C198.33,93.9,167.08,106,161.85,129.62Z" style="fill:#f7a9a0"></path><path d="M202.67,155.55c-.06-.11-.2.2-.17.32.83,3,1.27,6.54-1.21,8.2-.07.05,0,.2.07.16C204.56,163,203.93,158.24,202.67,155.55Z" style="fill:#263238"></path><path d="M199.22,153.06c-4.92.81-2.94,10.6,1.62,9.85S203.35,152.39,199.22,153.06Z" style="fill:#263238"></path><path d="M220.54,151.2c0-.12.27.1.29.23.49,3,1.58,6.46,4.52,6.93.09,0,.11.17,0,.18C221.92,158.72,220.52,154.18,220.54,151.2Z" style="fill:#263238"></path><path d="M222.63,147.5c4.81-1.32,7.11,8.39,2.65,9.62S218.6,148.61,222.63,147.5Z" style="fill:#263238"></path><path d="M200.53,142.6a40.28,40.28,0,0,1-3.54,2.06c-1.37.78-2.38,1.54-4,1.42a2.12,2.12,0,0,1-1.72-1.92c0-2,1.4-3.37,3-4.37a7.66,7.66,0,0,1,5.4-1.22C201.64,138.82,202,141.52,200.53,142.6Z" style="fill:#263238"></path><path d="M224.92,138.4a37.24,37.24,0,0,1-4.09-.23c-1.57-.1-2.83,0-4.13-1a2.12,2.12,0,0,1-.4-2.55c1.07-1.69,3-2,4.92-2a7.73,7.73,0,0,1,5.19,2C227.92,135.85,226.77,138.33,224.92,138.4Z" style="fill:#263238"></path><path d="M204.9,183.34c.87.54,1.79,1.36,2.9,1.21a8,8,0,0,0,3.06-1.44.11.11,0,0,1,.16.13,4.14,4.14,0,0,1-3.45,2.44,3.27,3.27,0,0,1-2.93-2.14C204.56,183.37,204.77,183.26,204.9,183.34Z" style="fill:#263238"></path><path d="M206.71,173.44a10.29,10.29,0,0,0,7.72,3.06,13,13,0,0,0,3.68-.61,3.61,3.61,0,0,0,.68-.22c.21-.08.4-.14.63-.24a.78.78,0,0,0,.45-.8v0a1.14,1.14,0,0,0-.09-.3v0l-.06-.26c-.43-2.3-1.4-5.74-1.4-5.74.93.24,5.61,1.25,5.28.07-2.7-9.77-5.71-20.65-10.47-29.8a.28.28,0,0,0-.52.19c2.23,9.5,6.11,18.54,8.5,28-1.47-.22-3.9-.71-5.09-.43-.31.17,2,6.61,2.09,7.66a.5.5,0,0,1,0,.11c-3.75,1.31-6.89.77-11.18-1C206.67,173,206.48,173.24,206.71,173.44Z" style="fill:#263238"></path><path d="M216.52,175.4A12.29,12.29,0,0,1,212.3,180a5.53,5.53,0,0,1-3.28.76c-2.5-.23-2.93-2.42-2.8-4.37a13.4,13.4,0,0,1,.59-3.06A15.9,15.9,0,0,0,216.52,175.4Z" style="fill:#263238"></path><path d="M212.3,180a5.53,5.53,0,0,1-3.28.76c-2.5-.23-2.93-2.42-2.8-4.37C208.83,176.2,211.66,177.51,212.3,180Z" style="fill:#ff99ba"></path><path d="M176.62,156.37c.93-9.4-7.47-22.83-4-27.75,7.45-10.67,30.52,1.07,43.78-1.93,12.85-2.91,15.22-12.17,10.47-22s-15.22-14.81-30.12-13.6c-15.42,1.25-27.6,10.42-33.88,16.87,0,0,2-6,.44-7.29s-6.71,5.14-8.13,7.71-1.7,6.92-1.7,6.92a21.23,21.23,0,0,0-6,.76c-3.25.84-6.76,4.36-6.82,5.18s4.76.33,8.07-.27c0,0-4.21,9.53-2.46,16.44s20.23,37.34,22.9,37.1C172.58,174.15,176.25,160.2,176.62,156.37Z" style="fill:#263238"></path><path d="M149.78,119.79c.09-.09.29,0,.2.15a22.6,22.6,0,0,0-4.65,11.44c-.42,5,1,9.88,3.19,14.32,4.15,8.64,10.53,15.87,16.37,23.38.17.22-.2.52-.39.31-6.68-7.56-13.62-15.84-17.65-25.18C143.41,136.25,143.11,126.25,149.78,119.79Z" style="fill:#263238"></path><path d="M171.3,125.37a31.91,31.91,0,0,1,11.82-2c3.84.07,7.47,1.6,11.13,2.61,8.21,2.26,16.92,3.47,25.23,1,.1,0,.15.12,0,.16-7.47,2.76-15.54,2.23-23.17.42-3.85-.92-7.68-2.62-11.61-3.06-4.47-.5-8.91.59-13.24,1.51A.35.35,0,0,1,171.3,125.37Z" style="fill:#263238"></path><path d="M169.9,102.43a62.58,62.58,0,0,1,15.2-9.28,49.14,49.14,0,0,1,16.46-4.44c9.87-.67,20,3.35,24.53,12.59a21.36,21.36,0,0,1,1.52,15.28.28.28,0,0,1-.54-.14C229,107,225,97,216.32,92.36c-9.37-5-20.44-2.92-29.81.91a90.13,90.13,0,0,0-16.57,9.22S169.87,102.46,169.9,102.43Z" style="fill:#263238"></path><path d="M184.87,173.78a95.31,95.31,0,0,1-8.74-5.81,95.47,95.47,0,0,1-8.14-6.61,99.61,99.61,0,0,1,8.74,5.81A98.32,98.32,0,0,1,184.87,173.78Z" style="fill:#fff"></path><path d="M172.34,185.68l3.73,4.43c1.25,1.47,2.49,2.94,3.78,4.37a79.29,79.29,0,0,0,8.16,8.13,34,34,0,0,1-8.91-7.47A53.41,53.41,0,0,1,172.34,185.68Z" style="fill:#fff"></path><path d="M174.75,166.94s-12.38-12.92-18.39-8.29,4.85,24.45,13,26.13a7.94,7.94,0,0,0,9.87-5.84Z" style="fill:#f7a9a0"></path><path d="M159.61,164.25a.11.11,0,0,0,0,.21c5.76,1.36,9.38,5.94,12.18,10.83-1.92-1.75-4.28-2.51-6.67-.18-.12.12,0,.32.2.27a4.88,4.88,0,0,1,5.57.86,22.82,22.82,0,0,1,3.21,3.91c.33.44,1.16,0,.89-.48l-.06-.12C174,172.63,167.13,163.8,159.61,164.25Z" style="fill:#263238"></path><path d="M184.87,173.78c2.42-3.11,33.64-16.27,34.54-16.55s19.43,3.55,20.74,4.46,3.66,26.33-1.91,33.48-13.6,14.19-14.24,14.47-23.1,2.38-36-7C185.76,201,182.1,177.35,184.87,173.78Z" style="fill:#ebebeb"></path><path d="M226.41,195.76l-2.21,13.75a1.23,1.23,0,0,1-.2.13c-.63.27-23.1,2.38-36-7-2.25-1.64-5.91-25.26-3.14-28.83,2.42-3.11,33.64-16.27,34.54-16.55h.13L224,173Z" style="fill:#fff"></path><path d="M208.12,165.13s10.27-5.27,12.07-5.45c1.32-.13,9,1.24,9,1.24l.27,1.83s-7.83-1.24-8.7-1.06c-1.23.27-12,5.1-12,5.1Z" style="fill:#dbdbdb"></path><rect x="186.52" y="177.03" width="4.34" height="1.12" transform="translate(22.95 -21.59) rotate(6.97)" style="fill:#dbdbdb"></rect><rect x="188.72" y="198.89" width="4.34" height="1.12" transform="translate(25.62 -21.7) rotate(6.97)" style="fill:#dbdbdb"></rect><path d="M217.38,209v-.25l1,0v.25Zm-1,0-1,0v-.25l1,0Zm3,0v-.25l1,0,0,.25Zm-5,0-1,0,0-.25,1,0Zm-2-.09-1-.07,0-.25,1,.07Zm9,0,0-.25,1-.08,0,.25Zm-11-.15-1-.1,0-.25,1,.1Zm13-.06,0-.24.1,0a3.84,3.84,0,0,0,.67-.5l.15.2a4.65,4.65,0,0,1-.72.53Zm-15-.15-1-.12,0-.25,1,.13Zm-2-.26-1-.16,0-.25,1,.16Zm-2-.33-1-.19,0-.25,1,.19Zm-2-.4-1-.22.06-.25,1,.23Zm22.59-.08-.16-.19.75-.66.17.19ZM200.51,207l-1-.26.07-.24,1,.26Zm-1.93-.55-1-.31.08-.24,1,.31Zm28-.4-.17-.18.74-.68.17.18C227,205.61,226.78,205.84,226.54,206.05Zm-29.86-.24-.94-.36.09-.23.93.35Zm-1.87-.74-.92-.41.1-.23.92.41Zm33.2-.38-.18-.18.73-.7.17.18Zm-35-.46-.89-.47.12-.22c.29.16.59.31.89.46Zm36.47-.94-.18-.18.71-.7.18.17Zm-38.23,0-.86-.53.13-.21.85.52Zm-1.7-1.09-.46-.33a1.4,1.4,0,0,1-.32-.35l.21-.14a1.28,1.28,0,0,0,.26.29l.45.33Zm41.34-.31-.18-.17.7-.72.18.17C231.33,201.4,231.09,201.64,230.86,201.87Zm-42.58-1.28c-.12-.28-.23-.6-.35-1l.24-.08c.11.35.23.66.34.93Zm44-.16-.18-.17.68-.73.19.17Zm1.36-1.47-.18-.17.66-.75.19.17Zm-46-.28c-.09-.31-.17-.63-.26-1l.24-.07c.09.34.18.66.26,1Zm47.31-1.22-.19-.17c.22-.25.44-.5.65-.76l.19.16C235.38,197,235.16,197.2,234.94,197.46Zm-47.81-.73c-.07-.32-.15-.64-.22-1l.25-.05c.07.33.14.66.21,1Zm49.1-.81-.19-.15.63-.78.19.15Zm-49.52-1.15c-.07-.32-.13-.65-.19-1l.24,0c.06.33.13.66.19,1Zm50.76-.43-.21-.14a7.64,7.64,0,0,0,.51-.85l.22.12A8,8,0,0,1,237.47,194.34Zm-51.13-1.54c-.06-.33-.11-.66-.17-1l.25,0c.05.33.11.66.16,1Zm52.08-.24-.23-.1q.19-.45.36-.93l.24.09C238.67,191.94,238.55,192.26,238.42,192.56ZM186,190.82c0-.33-.09-.66-.14-1l.25,0c0,.33.09.66.14,1Zm53.09-.16-.24-.07c.09-.31.18-.63.26-1l.24.06C239.28,190,239.19,190.35,239.1,190.66Zm-53.37-1.82-.12-1,.24,0c.05.33.09.66.13,1Zm53.86-.13-.25-.05c.07-.32.14-.65.2-1l.24,0C239.72,188.06,239.66,188.39,239.59,188.71Zm-54.1-1.87c0-.33-.07-.66-.1-1l.25,0c0,.33.07.66.1,1Zm54.46-.11-.25,0c.05-.33.1-.66.14-1l.25,0C240,186.08,240,186.41,240,186.73Zm-54.65-1.88c0-.34-.06-.67-.08-1l.25,0c0,.33.05.66.08,1Zm54.91-.1-.25,0c0-.33.07-.66.1-1l.25,0C240.28,184.08,240.25,184.42,240.21,184.75Zm-55.06-1.9c0-.34,0-.68-.05-1h.25c0,.33,0,.66.05,1Zm55.24-.1-.25,0c0-.33.05-.66.07-1l.25,0C240.44,182.08,240.42,182.42,240.39,182.75Zm-55.32-1.91c0-.32,0-.64,0-.94v-.06h.25v.06c0,.3,0,.62,0,.94Zm55.44-.09h-.25c0-.34,0-.67,0-1h.25C240.54,180.08,240.53,180.41,240.51,180.75Zm-55.18-1.91h-.25c0-.34,0-.68,0-1l.24,0C185.35,178.16,185.34,178.5,185.33,178.84Zm55.25-.1h-.25c0-.33,0-.67,0-1h.25C240.59,178.08,240.58,178.41,240.58,178.74Zm-55.11-1.88-.25,0c0-.37.1-.7.16-1l.24,0C185.56,176.17,185.51,176.5,185.47,176.86Zm54.87-.12c0-.33,0-.67,0-1h.25c0,.33,0,.67,0,1Zm-54.45-1.8-.23-.09a2.86,2.86,0,0,1,.38-.7,4.2,4.2,0,0,1,.76-.69l.15.2a4.14,4.14,0,0,0-.72.64A2.71,2.71,0,0,0,185.89,174.94Zm54.42-.19,0-1h.25l0,1Zm-52.53-1.65-.14-.21c.26-.17.55-.34.86-.52l.13.21Zm52.46-.35-.06-1,.25,0,.06,1Zm-50.74-.67-.12-.21.88-.49.12.22Zm1.76-1-.11-.22.89-.46.11.22Zm48.86-.38c0-.34-.05-.67-.08-1l.25,0c0,.32.06.66.08,1ZM193,170.22l-.11-.22.9-.45.11.23Zm1.8-.89-.11-.22.9-.44.11.23Zm45.12-.57c0-.34-.07-.67-.11-1l.25,0c0,.32.07.65.1,1Zm-43.32-.29-.1-.23.9-.43.11.23Zm1.82-.86-.11-.23.91-.42.1.23Zm41.28-.83c-.05-.35-.09-.68-.14-1l.25,0c0,.31.09.65.13,1Zm-39.47,0-.1-.23.91-.42.1.23Zm1.82-.84-.1-.22.91-.42.1.23Zm1.83-.82-.11-.23.92-.41.1.23Zm35.52-.31c-.07-.36-.14-.69-.21-1l.25-.06c.07.28.14.62.2,1Zm-33.69-.51-.11-.23.92-.41.1.23Zm1.83-.81-.1-.23.91-.4.1.22Zm31.35-.57a.63.63,0,0,0-.09-.12,3.13,3.13,0,0,0-.69-.29l.07-.23a3.16,3.16,0,0,1,.76.32.54.54,0,0,1,.17.21Zm-29.52-.24-.1-.23.92-.4.1.23Zm27.78-.46-1-.26.07-.24,1,.26Zm-25.94-.34-.1-.23.92-.39.1.23Zm24-.16-1-.24.06-.25,1,.24Zm-1.94-.47-1-.23.06-.24,1,.22Zm-20.22-.16-.1-.23.92-.4.1.23Zm18.26-.29-1-.21.06-.25,1,.22Zm-2-.42-1-.21.05-.25,1,.21Zm-14.46-.08-.1-.23.93-.39.1.23Zm12.5-.33-1-.2.05-.25,1,.2Zm-2-.4-1-.19.05-.25,1,.19Zm-8.69-.05-.1-.23.93-.39.1.23Zm6.72-.33-1-.18.05-.25,1,.19Zm-2-.35-1-.16,0-.25,1,.16Zm-2.89-.09-.1-.23.54-.21a1.49,1.49,0,0,1,.49,0l0,.25a3,3,0,0,0-.4,0Z" style="fill:#dbdbdb"></path><path d="M217,209.51h-1v-.25h1Zm1,0v-.25l1,0v.25Zm-3,0-1,0v-.25l1,0Zm5,0v-.25l1,0,0,.25Zm-7,0-1-.06,0-.25,1,.06Zm9-.07,0-.25,1-.09,0,.25Zm-11-.06-1-.09,0-.25,1,.09Zm-2-.19-1-.12,0-.24,1,.11Zm15-.11-.15-.2c.18-.13.45-.34.78-.62l.16.19C224.46,208.62,224.18,208.84,224,209Zm-17-.14-1-.14,0-.25,1,.15Zm-2-.3-1-.18,0-.24,1,.17Zm-2-.37-1-.21.05-.24,1,.21Zm-2-.44-1-.25.07-.24,1,.25Zm24.47,0-.16-.19.75-.66.16.18Zm-26.4-.48-1-.29.07-.24,1,.28Zm-1.92-.6-.94-.34.08-.23.94.33Zm29.82-.26-.17-.19.73-.68.17.18Zm-31.7-.43-.93-.39.1-.23.92.38Zm-1.85-.79-.91-.44.11-.22.9.43Zm35-.15-.18-.18.73-.7.17.18Zm-36.81-.75c-.3-.16-.59-.33-.88-.5l.13-.21.87.49Zm38.25-.65-.18-.18.71-.7.18.17Zm-40-.37-.84-.55.15-.21c.27.19.55.37.83.55Zm41.4-1.05-.18-.18.7-.71.18.17Zm-43-.14a4.94,4.94,0,0,1-.51-.9l.23-.1a4.56,4.56,0,0,0,.47.84Zm44.43-1.31-.19-.17.69-.73.18.17Zm-45.3-.54q-.15-.43-.3-1l.24-.07c.1.34.2.66.3,1Zm46.66-.93-.19-.17.67-.74.18.16Zm-47.23-1c-.08-.31-.16-.63-.24-1l.24-.06c.08.34.16.66.24,1Zm48.56-.5-.19-.17.65-.76.19.17C235.87,197.23,235.65,197.48,235.44,197.74Zm-49-1.45c-.07-.32-.14-.64-.21-1l.25-.05c.07.33.13.66.21,1Zm50.32-.08-.2-.16.63-.78.2.16Zm1.24-1.59-.21-.14a7.48,7.48,0,0,0,.51-.84l.22.12A7.84,7.84,0,0,1,238,194.62Zm-52-.29-.18-1,.24,0,.18,1Zm52.93-1.48-.23-.1c.12-.29.24-.6.36-.92l.24.08C239.19,192.24,239.06,192.56,238.94,192.85Zm-53.29-.5c-.05-.33-.1-.65-.16-1l.25,0c0,.34.11.66.16,1Zm54-1.39-.24-.08c.09-.3.18-.62.27-.95l.24.06C239.81,190.33,239.71,190.65,239.62,191Zm-54.28-.59c0-.33-.09-.66-.14-1l.25,0c.05.33.09.66.14,1ZM240.12,189l-.24,0c.07-.32.14-.65.2-1l.25.05C240.26,188.36,240.2,188.69,240.12,189Zm-55.05-.62-.12-1,.25,0,.12,1ZM240.5,187l-.25,0,.15-1,.24,0C240.6,186.38,240.55,186.71,240.5,187Zm-55.65-.65c0-.33-.07-.66-.1-1l.25,0c0,.33.06.66.1,1Zm55.92-1.34-.25,0c0-.33.07-.66.11-1l.25,0C240.84,184.39,240.81,184.72,240.77,185.05Zm-56.11-.65c0-.34,0-.67-.07-1l.25,0c0,.33,0,.66.07,1Zm56.3-1.35-.25,0c0-.33.06-.66.08-1H241C241,182.39,241,182.72,241,183.05Zm-56.43-.65c0-.34,0-.68,0-1h.25c0,.33,0,.66,0,1Zm56.56-1.35h-.25c0-.33,0-.66,0-1h.25C241.12,180.39,241.11,180.72,241.09,181.05Zm-56.63-.66v-1h.25v1Zm56.71-1.34h-.25c0-.33,0-.66,0-1h.25C241.18,178.38,241.18,178.72,241.17,179.05Zm-56.43-.66h-.25c0-.35,0-.68.06-1l.25,0Q184.76,177.88,184.74,178.39Zm56.45-1.34h-.25v-1h.25v1Zm-56.28-.64-.25,0c.05-.36.12-.7.19-1l.24.06C185,175.73,185,176.06,184.91,176.41Zm56-1.36c0-.34,0-.67,0-1h.25c0,.33,0,.67,0,1Zm-55.52-.53-.22-.11a2.34,2.34,0,0,1,.28-.47,4.2,4.2,0,0,1,.76-.69l.15.2a4.11,4.11,0,0,0-.72.65A2,2,0,0,0,185.4,174.52Zm55.46-1.47c0-.33,0-.67-.05-1h.25c0,.33,0,.66.05,1Zm-53.67-.16-.13-.21.86-.52.13.21Zm1.73-1-.13-.21.88-.49.12.22Zm51.83-.81-.06-1,.24,0c0,.33,0,.66.07,1Zm-50.07-.14-.12-.22.89-.46.11.22Zm1.78-.91-.11-.23.89-.44.11.22Zm1.79-.89-.11-.23.9-.43.11.22Zm46.35-.06c0-.34-.06-.67-.09-1l.25,0,.09,1Zm-44.54-.81L196,168l.9-.43.11.23Zm1.81-.86-.11-.23.91-.42.1.23Zm42.53-.31c0-.35-.08-.68-.12-1l.25,0c0,.32.08.65.12,1Zm-40.72-.54-.1-.22.9-.42.11.23Zm1.82-.83-.1-.23.91-.41.1.22Zm38.64-.61c-.06-.36-.12-.69-.17-1l.24-.05c.06.3.12.63.17,1Zm-36.81-.22-.11-.23.92-.41.1.23Zm1.82-.82-.1-.23.92-.4.1.22Zm1.83-.81-.1-.23.92-.4.1.22Zm32.77-.1c-.18-.66-.31-.79-.34-.81l.12-.22h0c.09.07.24.24.44,1Zm-30.93-.71-.1-.23.92-.4.09.23Zm29.67-.47-1-.28.07-.24,1,.29Zm-27.84-.33-.1-.23.92-.4.1.23Zm25.91-.2c-.3-.09-.63-.17-1-.25l.06-.24,1,.24Zm-1.94-.49-1-.23.06-.24,1,.23Zm-22.13-.1-.1-.23.92-.4.1.23Zm20.18-.35-1-.22.05-.24,1,.22Zm-2-.44-1-.21.05-.24,1,.21Zm-16.38,0-.09-.23.92-.39.1.23Zm14.42-.4-1-.21,0-.24,1,.2Zm-12.57-.38-.1-.23.93-.39.1.23Zm10.61,0-1-.19,0-.25,1,.2Zm-2-.39-1-.18,0-.25,1,.19ZM218,158.5l-.1-.24.93-.38.1.24C218.75,158.2,218.43,158.33,218,158.5Zm4.81,0-1-.18,0-.24,1,.17Zm-2-.34-1-.13,0-.25c.27,0,.6.07,1,.14Z" style="fill:#dbdbdb"></path><rect x="192.37" y="177.52" width="0.5" height="1" transform="translate(4.12 360.39) rotate(-86.8)" style="fill:#dbdbdb"></rect><path d="M220.35,179.29h-1.67v-.5h2v.5Zm-3.64,0-2,0v-.5l2,0Zm-3.94-.09-2-.07,0-.5,2,.07Zm-3.93-.14-2-.07,0-.5,2,.07Zm-3.94-.15-2-.09,0-.5,2,.09Zm-3.93-.18-2-.09,0-.5,2,.09ZM197,178.5l-2-.1,0-.5,2,.1Z" style="fill:#dbdbdb"></path><path d="M222.62,179.27v-.5l1,0,0,.5Z" style="fill:#dbdbdb"></path><rect x="194.26" y="199.09" width="0.5" height="1" transform="translate(-15.53 382.76) rotate(-86.83)" style="fill:#dbdbdb"></rect><path d="M220.15,200.76h-1.78v-.5h2.13v.5Zm-3.91,0-2.13-.05,0-.5,2.12.05Zm-4.25-.11-2.13-.07,0-.5,2.12.07Zm-4.25-.15-2.13-.08,0-.5,2.13.08Zm-4.25-.17-2.13-.1,0-.5,2.12.1Zm-4.25-.21-2.12-.1,0-.5,2.12.11Z" style="fill:#dbdbdb"></path><path d="M222.62,200.73l0-.5c.35,0,.69,0,1,0l0,.5C223.3,200.72,223,200.73,222.62,200.73Z" style="fill:#dbdbdb"></path><path d="M225.74,178.78l-.18-.46,1.87-.74.19.46Zm3.74-1.49-.19-.47,1.84-.76.2.46Zm3.69-1.56-.19-.46,1.83-.8.2.45C234.4,175.19,233.79,175.47,233.17,175.73Zm3.67-1.64-.22-.46c.64-.29,1.24-.59,1.8-.87l.23.45C238.08,173.49,237.48,173.79,236.84,174.09Zm3.58-1.85-.25-.43c.24-.14.45-.27.64-.4l.28.41A7.84,7.84,0,0,1,240.42,172.24Z" style="fill:#dbdbdb"></path><path d="M226.08,200.25l-.25-.43,1.75-1,.25.44C226.76,199.88,226.08,200.25,226.08,200.25Zm3.48-2-.26-.43c.54-.32,1.12-.66,1.72-1l.26.43Zm3.43-2.09-.27-.42,1.68-1.08.28.42Zm3.35-2.2-.28-.41c.57-.4,1.12-.79,1.62-1.16l.3.4C237.47,193.16,236.92,193.55,236.34,194Zm3.22-2.44-.33-.38.33-.3.34.37Z" style="fill:#dbdbdb"></path><path d="M219.41,157.23c.89,2.64,1.74,5.3,2.57,8s1.65,5.32,2.43,8v.08l.61,5.51c.2,1.84.42,3.67.6,5.51l1.07,11v.11c-.85,4.74-1.71,9.48-2.7,14.21.55-4.8,1.22-9.57,1.9-14.34v.11l-1.24-11c-.21-1.83-.37-3.67-.55-5.51l-.54-5.52v.07c-.74-2.68-1.43-5.39-2.14-8.08S220.06,159.94,219.41,157.23Z" style="fill:#c7c7c7"></path><path d="M194,197l.09-2.07a.21.21,0,0,1,.21-.19h0l1.14.05a.19.19,0,0,1,.18.2.21.21,0,0,1-.2.19l-1,0,0,.65.82,0a.2.2,0,0,1,.18.2.19.19,0,0,1-.2.19l-.82,0,0,.84a.18.18,0,0,1-.2.18A.19.19,0,0,1,194,197Z" style="fill:#dbdbdb"></path><path d="M196.1,197.08l.09-2.08a.19.19,0,0,1,.2-.18h0l1.14.05a.2.2,0,1,1,0,.39l-1,0,0,.64.82,0a.2.2,0,0,1,.19.2.21.21,0,0,1-.21.19l-.81,0,0,.84a.21.21,0,0,1-.21.19A.2.2,0,0,1,196.1,197.08Z" style="fill:#dbdbdb"></path><path d="M199.08,196.44h-.43l0,.76a.2.2,0,0,1-.21.18.18.18,0,0,1-.18-.2l.09-2.07a.19.19,0,0,1,.2-.19h0l.63,0a.75.75,0,1,1-.07,1.5Zm-.41-.4h.43a.36.36,0,0,0,.38-.34.37.37,0,0,0-.35-.38l-.43,0Z" style="fill:#dbdbdb"></path><path d="M201.73,197.33a.21.21,0,0,1-.21.18l-1.24-.06h0a.16.16,0,0,1-.14-.07.19.19,0,0,1,0-.27l1.09-.89a.49.49,0,0,0,.16-.33.53.53,0,0,0-.1-.32.49.49,0,0,0-.33-.16.55.55,0,0,0-.32.1l-.11.1a.18.18,0,0,1-.27,0,.19.19,0,0,1,0-.27l.12-.1A.81.81,0,0,1,201,195a.87.87,0,0,1,.62.31.81.81,0,0,1,.19.57.87.87,0,0,1-.31.62l-.69.57.75,0A.2.2,0,0,1,201.73,197.33Z" style="fill:#dbdbdb"></path><path d="M169.68,231.38A61.93,61.93,0,0,0,193.06,253c4.73,2.41,9.85,4.19,15.08,4.09,2.67-.05,5.61-.53,7.81-2.16a15.86,15.86,0,0,0,4.76-6.5,31.24,31.24,0,0,0,2.3-9,76.74,76.74,0,0,0,.45-10.51c0-.13.19-.12.19,0,.1,3.32.47,6.64.32,10a33.61,33.61,0,0,1-1.38,8.66,19.54,19.54,0,0,1-4,7.27,12.18,12.18,0,0,1-7.46,3.79c-5.5.85-11.15-.53-16.27-2.86a53.87,53.87,0,0,1-13.78-9.22,58.42,58.42,0,0,1-11.68-15C169.28,231.33,169.56,231.2,169.68,231.38Z" style="fill:#263238"></path></g><g id="freepik--Plant--inject-99"><path d="M443.83,333.12c-14.77,20-30.18,43.24-33.93,68.34a.33.33,0,0,0,.65.12,148.16,148.16,0,0,1,6.53-20.09c9.72-2.68,19.25-4.87,24.35-14.52,5.21-9.91,4.55-22.83,3.56-33.63C444.92,332.76,444.13,332.73,443.83,333.12Z" style="fill:#6C63FF"></path><path d="M417.23,381.3c6.64-14.9,15.16-29.86,26-42.11.07-.08.19,0,.12.12-7.09,8.73-12.48,18.23-17.74,27.9,4.89-5,10.25-9.42,14.89-14.69.09-.1.23.05.15.15C436,358.19,431,364.2,425,368.28q-2.42,4.46-4.87,8.92c.4-.23.82-.43,1.23-.63.07,0,.14.07.06.11-.45.23-.91.47-1.38.67-.78,1.41-1.55,2.82-2.35,4.23C417.52,381.89,417.09,381.61,417.23,381.3Z" style="fill:#263238"></path><path d="M422.17,376.1a87.07,87.07,0,0,0,11.34-7.57c.1-.08.24.06.14.14a60.15,60.15,0,0,1-11.32,7.71A.16.16,0,0,1,422.17,376.1Z" style="fill:#263238"></path><path d="M408.19,397.72a.27.27,0,0,0,.54,0c.07-8.26,0-16.57.13-24.87,2.12-4.27,6.66-6.64,9.82-10.06a43.58,43.58,0,0,0,5.89-8.21,58.86,58.86,0,0,0,6.84-22.8c.88-8.84-2.48-38-6.21-37-1.93.52-8.18,15-9.84,19.75a137.1,137.1,0,0,0-5.88,24.22C406.46,358.18,406.71,378.15,408.19,397.72Z" style="fill:#6C63FF"></path><path d="M408.13,362.07l0,0c.46-10.46,2.81-21,5-31.16,2.37-10.93,5.15-21.22,10.77-31a.16.16,0,0,1,.28.17,115,115,0,0,0-8.65,23.76c.37-.59.83-1.15,1.22-1.7.16-.22.52,0,.37.21a15.46,15.46,0,0,1-1.76,2.48s-.05,0-.07,0c-1.94,7.81-3.33,15.79-4.52,23.76l.27-.3c.06-.07.16,0,.12.09-.15.26-.31.53-.48.79-.59,4-1.15,8.08-1.71,12.08,7.2-6.15,13.35-13.41,16.82-22.35,0,0,.09,0,.07,0-3.4,9.27-8.76,17.52-17,23.14-.15,1.08-.3,2.16-.46,3.23,0,.23-.38.17-.38-.05,0-.95.05-1.91.08-2.86A.22.22,0,0,1,408.13,362.07Z" style="fill:#263238"></path><path d="M411.52,346.92c5.5-8.22,10.64-16.19,14.67-25.27.05-.1.22,0,.18.07-3.39,9-8.15,18.16-14.57,25.41C411.66,347.28,411.41,347.08,411.52,346.92Z" style="fill:#263238"></path><path d="M418.83,319.62c2.28-4,4.69-8,6.83-12.08.06-.11.22,0,.17.1a62.74,62.74,0,0,1-6.64,12.18C419,320,418.7,319.85,418.83,319.62Z" style="fill:#263238"></path><path d="M417.94,321.37a0,0,0,1,1,0,.07S417.9,321.37,417.94,321.37Z" style="fill:#263238"></path><path d="M402.59,373.82a84,84,0,0,1-1.93,16.29c.09.58.17,1.17.26,1.78a77.68,77.68,0,0,0,2.91-18.15.56.56,0,0,0,0-.56v0A119.39,119.39,0,0,0,402,348.57c-2.56-15.19-8.15-29.77-18.75-41.16a.76.76,0,0,0-1.17.25c-4.27,10.86-2.78,23.83.86,34.68a63.4,63.4,0,0,0,8.4,16.47C395,363.92,399.64,368.24,402.59,373.82Z" style="fill:#6C63FF"></path><path d="M384.54,312.5c10,16.29,17,35.61,17.88,54.86,0,.34-.56.43-.61.08-.24-1.73-.5-3.44-.78-5.15h0c-4.15-4-8.41-8.18-11.39-13.15-.05-.09.08-.19.15-.11,3.61,4.13,7,8.36,11.06,12-.72-4.25-1.57-8.44-2.58-12.57l-.79-.93c-.18-.21.11-.5.29-.3l.25.27a146.5,146.5,0,0,0-5.25-16.67c-2.56-3.05-5.42-5.68-7.28-9.35a.08.08,0,0,1,.14-.08,76.89,76.89,0,0,0,4.64,6.16c.67.78,1.42,1.5,2.12,2.26a129.65,129.65,0,0,0-8.22-17.13A.23.23,0,0,1,384.54,312.5Z" style="fill:#263238"></path><path d="M386.57,332.6c3.24,4.37,6.94,8.53,10,13,.08.13-.11.26-.21.16-3.88-3.64-7.16-8.6-10-13.08C386.26,332.59,386.47,332.47,386.57,332.6Z" style="fill:#263238"></path><path d="M397,346.66l.14.14c.1.09-.05.24-.15.15l-.14-.14C396.74,346.71,396.89,346.56,397,346.66Z" style="fill:#263238"></path><path d="M368.81,343.82c.8,8.39,5.21,18.4,10.59,24.86a26.34,26.34,0,0,0,8.59,6.7c3.72,1.84,7.62,4,11.47,5.48a74.83,74.83,0,0,1,4.06,14.42l.37-1.28c-2.47-21.23-16.2-39.37-33.77-51A.85.85,0,0,0,368.81,343.82Z" style="fill:#6C63FF"></path><path d="M374.88,350.09c-.13-.1,0-.33.18-.23a72,72,0,0,1,22.38,27.59c.13.29-.27.55-.44.26-.81-1.44-1.64-2.83-2.49-4.19h0c-4-.76-7.81-3.58-10.79-6.26-.08-.07,0-.19.12-.12a24.61,24.61,0,0,0,5.08,3.57,54.34,54.34,0,0,0,5.09,2c-1.49-2.35-3-4.62-4.65-6.81a46.68,46.68,0,0,1-12.05-6.77.11.11,0,0,1,.11-.2,120.7,120.7,0,0,0,11.2,6,99.56,99.56,0,0,0-7.91-9.22c-1.36-.72-2.74-1.44-4.06-2.21-.11-.07,0-.25.08-.21a14.31,14.31,0,0,1,3.12,1.53C378.26,353.22,376.63,351.64,374.88,350.09Z" style="fill:#263238"></path><path d="M375.25,357.42a6.51,6.51,0,0,1,.68.49c.06,0,0,.14-.09.11a5.3,5.3,0,0,1-.7-.4C375,357.54,375.13,357.34,375.25,357.42Z" style="fill:#263238"></path><polygon points="431.31 441.24 383.17 441.24 387.05 397.4 387.91 387.73 426.57 387.73 427.42 397.4 431.31 441.24" style="fill:#455a64"></polygon><polygon points="427.42 397.4 387.05 397.4 387.91 387.73 426.57 387.73 427.42 397.4" style="fill:#263238"></polygon><rect x="385.6" y="380.97" width="43.27" height="9.57" style="fill:#455a64"></rect></g><g id="freepik--speech-bubble--inject-99"><path d="M51.8,88.6A44.94,44.94,0,0,0,119.4,132l21.32,7.88-7-21.35A45,45,0,1,0,51.8,88.6Z" style="fill:#fff"></path><path d="M143.11,142.32l-23.57-8.71a46.42,46.42,0,1,1,15.84-14.89Zm-23.86-12,19.08,7-6.25-19.1.41-.61a43.51,43.51,0,1,0-13.86,13Z" style="fill:#263238"></path><path d="M93.59,77.33s.5-9.24.52-9.68S91.88,66.06,92,65.43s5.65-1.66,5.75-.49c.07.7-1.35,1.81-1.35,2.15,0,.58,1.71,9.86,1.71,9.86Z" style="fill:#6C63FF"></path><path d="M92.47,65.3s3,.29,4.75-.55" style="fill:#263238"></path><path d="M93.59,77.33s.5-9.24.52-9.68S91.88,66.06,92,65.43s5.65-1.66,5.75-.49c.07.7-1.35,1.81-1.35,2.15,0,.58,1.71,9.86,1.71,9.86Z" style="opacity:0.1"></path><path d="M82.6,84.81,76.13,77.6c-.29-.33-2.71.45-3.1,0s2.82-5.18,3.72-4.42c.54.45.32,2.24.56,2.48.41.41,8.18,5.76,8.18,5.76Z" style="fill:#6C63FF"></path><path d="M73.3,77.1s2.36-1.95,3-3.76" style="fill:#263238"></path><path d="M82.6,84.81,76.13,77.6c-.29-.33-2.71.45-3.1,0s2.82-5.18,3.72-4.42c.54.45.32,2.24.56,2.48.41.41,8.18,5.76,8.18,5.76Z" style="opacity:0.1"></path><path d="M80.13,97.87l-9.68-.53c-.44,0-1.6,2.24-2.22,2.17s-1.67-5.65-.5-5.76c.7-.06,1.81,1.36,2.15,1.36.59,0,9.86-1.71,9.86-1.71Z" style="fill:#6C63FF"></path><path d="M68.1,99a11.26,11.26,0,0,0-.56-4.76" style="fill:#263238"></path><path d="M80.13,97.87l-9.68-.53c-.44,0-1.6,2.24-2.22,2.17s-1.67-5.65-.5-5.76c.7-.06,1.81,1.36,2.15,1.36.59,0,9.86-1.71,9.86-1.71Z" style="opacity:0.1"></path><path d="M87.61,108.85l-7.22,6.48c-.32.29.45,2.71,0,3.1s-5.17-2.82-4.42-3.72c.45-.55,2.24-.33,2.48-.57.42-.41,5.76-8.18,5.76-8.18Z" style="fill:#6C63FF"></path><path d="M79.89,118.15a11.22,11.22,0,0,0-3.76-3" style="fill:#263238"></path><path d="M87.61,108.85l-7.22,6.48c-.32.29.45,2.71,0,3.1s-5.17-2.82-4.42-3.72c.45-.55,2.24-.33,2.48-.57.42-.41,5.76-8.18,5.76-8.18Z" style="opacity:0.1"></path><path d="M100.66,111.33s-.5,9.25-.52,9.68,2.23,1.6,2.16,2.22-5.65,1.67-5.75.5c-.07-.71,1.35-1.82,1.35-2.16,0-.58-1.71-9.86-1.71-9.86Z" style="fill:#6C63FF"></path><path d="M101.78,123.36s-3-.29-4.75.56" style="fill:#263238"></path><path d="M100.66,111.33s-.5,9.25-.52,9.68,2.23,1.6,2.16,2.22-5.65,1.67-5.75.5c-.07-.71,1.35-1.82,1.35-2.16,0-.58-1.71-9.86-1.71-9.86Z" style="opacity:0.1"></path><path d="M111.65,103.85l6.47,7.22c.29.32,2.71-.46,3.1,0s-2.82,5.18-3.72,4.43c-.54-.46-.32-2.25-.56-2.49-.41-.41-8.18-5.76-8.18-5.76Z" style="fill:#6C63FF"></path><path d="M120.94,111.56a11.22,11.22,0,0,0-3,3.76" style="fill:#263238"></path><path d="M111.65,103.85l6.47,7.22c.29.32,2.71-.46,3.1,0s-2.82,5.18-3.72,4.43c-.54-.46-.32-2.25-.56-2.49-.41-.41-8.18-5.76-8.18-5.76Z" style="opacity:0.1"></path><path d="M114.12,90.79l9.68.53c.44,0,1.6-2.24,2.22-2.17s1.67,5.66.5,5.76c-.7.06-1.81-1.36-2.15-1.36-.59,0-9.86,1.72-9.86,1.72Z" style="fill:#6C63FF"></path><path d="M126.15,89.67a11.26,11.26,0,0,0,.56,4.76" style="fill:#263238"></path><path d="M114.12,90.79l9.68.53c.44,0,1.6-2.24,2.22-2.17s1.67,5.66.5,5.76c-.7.06-1.81-1.36-2.15-1.36-.59,0-9.86,1.72-9.86,1.72Z" style="opacity:0.1"></path><path d="M106.64,79.81l7.22-6.47c.32-.29-.45-2.71,0-3.11s5.17,2.82,4.42,3.72c-.45.55-2.24.33-2.48.57-.42.41-5.76,8.18-5.76,8.18Z" style="fill:#6C63FF"></path><path d="M114.36,70.51a11.26,11.26,0,0,0,3.75,3" style="fill:#263238"></path><path d="M106.64,79.81l7.22-6.47c.32-.29-.45-2.71,0-3.11s5.17,2.82,4.42,3.72c-.45.55-2.24.33-2.48.57-.42.41-5.76,8.18-5.76,8.18Z" style="opacity:0.1"></path><path d="M91.13,77.22S89.75,64.4,89.73,64s-2.43-1.33-2.43-2,5.44-2.34,5.68-1.18c.15.69-1.13,2-1.09,2.31.06.58,3.66,13.16,3.66,13.16Z" style="fill:#6C63FF"></path><path d="M87.8,61.82s3.07-.08,4.68-1.13" style="fill:#263238"></path><path d="M81.12,86.52s-10-8.08-10.37-8.37-2.65.77-3.1.33,2.19-5.5,3.18-4.86c.6.39.6,2.2.86,2.41.46.37,11.9,6.72,11.9,6.72Z" style="fill:#6C63FF"></path><path d="M67.87,78s2.12-2.23,2.52-4.11" style="fill:#263238"></path><path d="M80.62,100.18s-12.82,1.38-13.26,1.41S66,104,65.41,104s-2.34-5.44-1.19-5.69c.69-.14,2,1.14,2.31,1.1.58-.07,13.16-3.66,13.16-3.66Z" style="fill:#6C63FF"></path><path d="M65.21,103.51a11.33,11.33,0,0,0-1.12-4.68" style="fill:#263238"></path><path d="M89.92,110.2s-8.09,10-8.38,10.36.78,2.65.34,3.1-5.51-2.19-4.86-3.18c.38-.59,2.19-.59,2.41-.86.36-.46,6.71-11.89,6.71-11.89Z" style="fill:#6C63FF"></path><path d="M81.38,123.44s-2.22-2.11-4.1-2.51" style="fill:#263238"></path><path d="M103.58,110.7S105,123.52,105,124s2.43,1.33,2.43,2-5.44,2.34-5.68,1.18c-.15-.69,1.13-2,1.09-2.31-.07-.58-3.66-13.16-3.66-13.16Z" style="fill:#6C63FF"></path><path d="M106.91,126.1s-3.07.08-4.68,1.13" style="fill:#263238"></path><path d="M113.59,101.4s10,8.09,10.37,8.37,2.65-.77,3.1-.33-2.2,5.5-3.18,4.86c-.6-.39-.6-2.2-.86-2.41-.46-.36-11.9-6.72-11.9-6.72Z" style="fill:#6C63FF"></path><path d="M126.84,109.93s-2.12,2.23-2.52,4.11" style="fill:#263238"></path><path d="M114.09,87.74s12.82-1.38,13.26-1.41,1.32-2.42,2-2.43,2.34,5.44,1.19,5.69c-.7.15-2-1.14-2.31-1.1-.58.07-13.16,3.66-13.16,3.66Z" style="fill:#6C63FF"></path><path d="M129.49,84.41s.08,3.07,1.13,4.68" style="fill:#263238"></path><path d="M104.79,77.72s8.09-10,8.38-10.36-.78-2.65-.34-3.1,5.51,2.19,4.86,3.18c-.39.59-2.19.59-2.41.86-.36.46-6.72,11.89-6.72,11.89Z" style="fill:#6C63FF"></path><path d="M113.33,64.48s2.22,2.11,4.1,2.51" style="fill:#263238"></path><path d="M119.14,91.41c1.35,12-6.5,23.33-18.72,24.7-7.33.83-14.26-1-19-5.79a22,22,0,0,1-6-13.37c-1.63-14.43,7.94-24.2,19.9-25.55a20.16,20.16,0,0,1,13.76,3.21A23.78,23.78,0,0,1,119.14,91.41Z" style="fill:#6C63FF"></path><path d="M119.14,91.41c1.35,12-6.5,23.33-18.72,24.7-7.33.83-14.26-1-19-5.79,7,2.12,19,3.94,27.29-4.4,10.21-10.21,7.21-23.33.41-31.31A23.78,23.78,0,0,1,119.14,91.41Z" style="opacity:0.1"></path><path d="M90,79.45l-4.3,2.78-.24-.53c-.85-1.9-3.77-8.39-3.94-8.78s-3.1-.41-3.37-1.07c-.11-.3.86-1.29,2-2.18,1.41-1.08,3.11-2,3.51-1.4s-.4,2.55-.21,2.89C83.73,71.75,90,79.45,90,79.45Z" style="fill:#6C63FF"></path><path d="M78.56,71.44s3.21-1.34,4.49-3.1Z" style="fill:#263238"></path><path d="M85.41,81.7c-.85-1.9-3.77-8.39-3.94-8.78s-3.1-.41-3.37-1.07c-.11-.3.86-1.29,2-2.18a3.75,3.75,0,0,0-.81,1.24.42.42,0,0,0,0,.19c0,.21.15.33.41.4.68.19,2,.13,2.3.57S85.34,81.41,85.41,81.7Z" style="opacity:0.1"></path><path d="M81.18,88.41l-1.07,5-.22-.08,0,0-9.27-3.52c-.47-.17-2.49,1.91-3.15,1.62-.44-.19-.25-3.3.35-5.12.27-.84.62-1.4,1-1.31.79.16,1.53,2.08,1.89,2.19C71.33,87.37,81.18,88.41,81.18,88.41Z" style="fill:#6C63FF"></path><path d="M67.46,90.8s1.33-3.21,1-5.36Z" style="fill:#263238"></path><path d="M79.85,93.31l-9.27-3.52c-.47-.17-2.49,1.91-3.15,1.62-.44-.19-.25-3.3.35-5.12a9.1,9.1,0,0,0,0,2.57,2.1,2.1,0,0,0,.16.5c.09.22.2.33.34.3.59-.16,1.4-1.21,2.06-1.24S79.24,93,79.85,93.31Z" style="opacity:0.1"></path><path d="M81.33,101l2.77,4.3h0l-9.28,4.17c-.44.21-.41,3.1-1.07,3.36s-4.09-4-3.74-5.28a.36.36,0,0,1,.17-.24c.67-.44,2.54.39,2.89.22C73.63,107.17,81.33,101,81.33,101Z" style="fill:#6C63FF"></path><path d="M73.31,112.34s-1.34-3.21-3.1-4.49Z" style="fill:#263238"></path><path d="M84.07,105.26l-9.28,4.17c-.44.21-.41,3.1-1.07,3.36s-4.09-4-3.74-5.28a4.92,4.92,0,0,0,2.26,3.29,3.53,3.53,0,0,0,.43.22c.24.09.43.11.52,0,.41-.41.5-1.89,1.22-2.3S83.55,105.44,84.07,105.26Z" style="opacity:0.1"></path><path d="M91.67,120.33c-.13.33.93,1.5,1.41,2.36a1,1,0,0,1,.21.78c-.28.65-6.72-.08-6.44-1.38.17-.79,2.08-1.52,2.2-1.89s.57-4.37.89-7.3v0c.2-1.76.35-3.15.35-3.15l5,1.07S91.84,119.86,91.67,120.33Z" style="fill:#6C63FF"></path><path d="M92.68,123.44s-3.22-1.33-5.37-1Z" style="fill:#263238"></path><path d="M93.08,122.69a1,1,0,0,1,.21.78c-.28.65-6.72-.08-6.44-1.38.17-.79,2.08-1.52,2.2-1.89s.57-4.37.89-7.3a46.34,46.34,0,0,1,0,7.57c-.27.44-1.34,1.13-1.11,1.72a.71.71,0,0,0,.32.29,6.25,6.25,0,0,0,1.49.58,6.88,6.88,0,0,0,1.66.3.85.85,0,0,0,.22,0c.28,0,.48-.06.54-.18A.69.69,0,0,0,93.08,122.69Z" style="opacity:0.1"></path><path d="M114.67,117.18c.06.16-.19.51-.61.95-1.33,1.37-4.36,3.48-4.92,2.63-.44-.68.4-2.56.22-2.9s-3.3-4.26-5.15-6.56h0l-1.37-1.71,4.29-2.78,4.18,9.3C111.51,116.55,114.41,116.51,114.67,117.18Z" style="fill:#6C63FF"></path><path d="M114.22,117.59s-3.22,1.33-4.49,3.1Z" style="fill:#263238"></path><path d="M114.06,118.13c-1.33,1.37-4.36,3.48-4.92,2.63-.44-.68.4-2.56.22-2.9s-3.3-4.26-5.15-6.56c2,2,5.75,5.91,5.82,6.14s-.24,2.18.31,2.38a.51.51,0,0,0,.18,0,2.62,2.62,0,0,0,.75-.21A17.47,17.47,0,0,0,114.06,118.13Z" style="opacity:0.1"></path><path d="M125.43,100.81c-.26,1.69-.79,3.38-1.47,3.24s-1.52-2.08-1.89-2.2c-.55-.17-7.79-1-9.9-1.18h0l-.57-.06,1.07-5,9.54,3.62c.47.17,2.49-1.9,3.14-1.62C125.65,97.75,125.65,99.28,125.43,100.81Z" style="fill:#6C63FF"></path><path d="M125.31,98.22s-1.33,3.22-1,5.37Z" style="fill:#263238"></path><path d="M125.43,100.81c-.26,1.69-.79,3.38-1.47,3.24s-1.52-2.08-1.89-2.2c-.55-.17-7.79-1-9.9-1.18h0s10.13-.09,10.44.26,1.15,2,1.67,1.73a.79.79,0,0,0,.28-.25A8.32,8.32,0,0,0,125.43,100.81Z" style="opacity:0.1"></path><path d="M122.63,81.76a2.65,2.65,0,0,1-1.69,0,3.35,3.35,0,0,0-1.21-.18c-.58.31-8.28,6.53-8.28,6.53l-2.78-4.29,1.91-.86s0,0,0,0L118,79.6c.46-.22.42-3.11,1.08-3.37S123.75,81,122.63,81.76Z" style="fill:#6C63FF"></path><path d="M119.46,76.68s1.34,3.22,3.1,4.49Z" style="fill:#263238"></path><path d="M122.63,81.76a2.65,2.65,0,0,1-1.69,0,8.25,8.25,0,0,0,1.08-.64.32.32,0,0,0,.12-.25,1,1,0,0,0,0-.35,5.67,5.67,0,0,0-1.39-2,3.08,3.08,0,0,0-.59-.47h0a.43.43,0,0,0-.39-.07c-.53.37-.75,2.15-1.62,2.54-.61.28-5,1.66-7.48,2.43L118,79.6c.46-.22.42-3.11,1.08-3.37S123.75,81,122.63,81.76Z" style="opacity:0.1"></path><path d="M105.92,66.93c-.16.8-2.08,1.53-2.2,1.9-.19.63-1.24,10.48-1.24,10.48l-5-1.08s.13-.35.35-.91h0l3.27-8.61c.16-.47-1.91-2.49-1.63-3.15.15-.33,1.91-.3,3.55,0h0C104.6,65.8,106.06,66.3,105.92,66.93Z" style="fill:#6C63FF"></path><path d="M100.1,65.59s3.21,1.32,5.36,1Z" style="fill:#263238"></path><path d="M103,65.53a5.39,5.39,0,0,0-1.54.31.92.92,0,0,0-.28.14.48.48,0,0,0-.24.63c.3.7,1.43,1.59,1.38,2.14S98,77,97.84,77.31l3.27-8.61c.16-.47-1.91-2.49-1.63-3.15C99.63,65.22,101.39,65.25,103,65.53Z" style="opacity:0.1"></path><g style="opacity:0.1"><path d="M95.06,109.24c0,.53-.78.89-1.65.81s-1.54-.56-1.49-1.09.79-.88,1.66-.8S95.11,108.72,95.06,109.24Z"></path><path d="M95.14,111a5.32,5.32,0,0,1-3.45-.35,1.64,1.64,0,0,1-1.09-1.56c0-.91.78-1.15,1.49-1.48,0,0,0-.08,0-.07-1.3.3-2.6,1.35-1.83,2.79.91,1.71,3.45,1.65,5,1C95.37,111.26,95.32,111,95.14,111Z"></path><path d="M88.76,82.64c.24.46-.41,1.28-1.45,1.81s-2.08.6-2.32.13.41-1.28,1.45-1.81S88.52,82.17,88.76,82.64Z"></path><path d="M86.71,85.83a4.46,4.46,0,0,1-1.82.06,1.29,1.29,0,0,1-1-1.66,3.92,3.92,0,0,1,2.15-2.4c.06,0,0-.11,0-.09-1.21.51-2.85,1.78-2.78,3.26.09,1.91,2.32,1.48,3.53,1C86.9,86,86.83,85.82,86.71,85.83Z"></path><path d="M106.33,83.37c.16.5-.38,1.12-1.21,1.39s-1.63.09-1.79-.41.37-1.12,1.2-1.39S106.16,82.87,106.33,83.37Z"></path><path d="M105.4,85.94a6.88,6.88,0,0,1-2.71-.33c-1.62-.83-.09-2.25.8-2.89a0,0,0,0,0,0-.08c-1,.48-2.43,1.72-1.72,3s2.69,1.16,3.74.57A.13.13,0,0,0,105.4,85.94Z"></path><path d="M87.5,105.71c.12.39-.31.86-1,1.06s-1.26,0-1.38-.36.31-.86,1-1S87.39,105.32,87.5,105.71Z"></path><path d="M86.73,107.68a5.11,5.11,0,0,1-2.09-.31c-1.23-.67,0-1.74.68-2.22a0,0,0,0,0,0-.06c-.81.35-1.92,1.28-1.39,2.27s2.07,1,2.89.52A.11.11,0,0,0,86.73,107.68Z"></path><path d="M115.24,96.37c.33.56-.18,1.46-1.12,2s-2,.51-2.29-.06.18-1.46,1.13-2S114.92,95.8,115.24,96.37Z"></path><path d="M111.28,96.64s0-.06,0,0c-.7,1.06-1.61,2.71-.2,3.65a3.05,3.05,0,0,0,3.8-.71.11.11,0,0,0-.14-.17,5.13,5.13,0,0,1-2.71.6C110.14,99.74,110.66,97.77,111.28,96.64Z"></path></g><line x1="55.52" y1="74.9" x2="135.25" y2="112.7" style="fill:#fff"></line><rect x="93.89" y="49.68" width="3" height="88.23" transform="translate(-30.24 139.79) rotate(-64.63)" style="fill:#263238"></rect></g></svg>