<svg xmlns="http://www.w3.org/2000/svg" viewBox="0 0 500 500"><g id="freepik--Floor--inject-57"><polygon points="63.99 409.91 110.49 409.67 157 409.58 250 409.41 343 409.58 389.51 409.67 436.01 409.91 389.51 410.15 343 410.24 250 410.41 157 410.24 110.49 410.15 63.99 409.91" style="fill:#263238"></polygon></g><g id="freepik--Character--inject-57"><path d="M333.41,260c-3.24.12-30.05-5.63-30.05-5.63l-13.94,12.38-19.6,16.19-34.24-25.26s13-9.44,21.7-16.09c3.1-2.37,5.66-4.4,6.85-5.51l0,0a3.25,3.25,0,0,0,.5-.48,1.58,1.58,0,0,0,.12-.15c1.58-2.08,3.14-4.12,4.69-6.07,7.08-9.1,13.16-16.45,14.27-16.36,2.94.2,55.65,38.84,57,40.81S336.65,259.86,333.41,260Z" style="fill:#eb9481"></path><path d="M333.41,260c-3.24.12-30.05-5.63-30.05-5.63l-13.94,12.38-32.14-25.16c3.1-2.37,5.66-4.4,6.85-5.51l0,0a3.25,3.25,0,0,0,.5-.48,1.58,1.58,0,0,0,.12-.15c1.58-2.08,3.14-4.12,4.69-6.07,7.08-9.1,13.16-16.45,14.27-16.36,2.94.2,55.65,38.84,57,40.81S336.65,259.86,333.41,260Z" style="fill:#fff"></path><path d="M341,253.84c-.91-1.28-52.69-40.81-57.38-41-1.36-.07-10.1,10.84-19.06,22.55l32.3,24.79,6.51-5.74s26.95,5.79,30.22,5.67S342.38,255.82,341,253.84Z" style="fill:#6C63FF"></path><path d="M338.68,255.4c-9.05-6.3-44.94-32.54-53.4-39.45-.07,0,0-.1,0,0,9.1,6,44.78,32.57,53.47,39.35C339,255.4,338.87,255.53,338.68,255.4Z" style="fill:#263238"></path><path d="M303.18,257.29c-4-1.91-7.86-5.58-8.7-10,0-.17.21-.22.29-.1a61.17,61.17,0,0,0,8.72,9.68A.28.28,0,0,1,303.18,257.29Z" style="fill:#263238"></path><path d="M306.82,257.62c-4-1.91-7.86-5.58-8.71-10,0-.18.22-.22.3-.1a62.06,62.06,0,0,0,8.72,9.68A.28.28,0,0,1,306.82,257.62Z" style="fill:#263238"></path><path d="M310.46,258c-4-1.91-7.86-5.59-8.71-10,0-.18.22-.22.3-.1a61.54,61.54,0,0,0,8.72,9.67A.28.28,0,0,1,310.46,258Z" style="fill:#263238"></path><path d="M314.1,258.28c-4-1.91-7.86-5.59-8.71-10,0-.17.21-.21.3-.09a60.57,60.57,0,0,0,8.72,9.67A.28.28,0,0,1,314.1,258.28Z" style="fill:#263238"></path><path d="M305.79,264c-1.06-3.74-3.7-6.88-5.81-10.07a.54.54,0,0,0-.87,0,.12.12,0,0,0-.17.06,23.22,23.22,0,0,0-.49,12c.57,2.3,2.5,5,5.26,4.14S306.42,266.16,305.79,264Zm-1.17,3.47c-2.19,4.28-4.84-.75-5.18-2.46a25.23,25.23,0,0,1-.39-3.36c-.14-2.34,0-4.65.13-7,.94,1.63,2,3.16,3,4.76C303.37,261.29,305.83,265.08,304.62,267.45Z" style="fill:#263238"></path><path d="M283.36,250.79c-.75,2.8,2.06,4.6,4.38,5.05a23.17,23.17,0,0,0,11.93-1.06.11.11,0,0,0,.05-.17.54.54,0,0,0,0-.87c-3.29-2-6.55-4.44-10.34-5.33C287.17,247.9,284.07,248.14,283.36,250.79Zm10.77,1c1.64.92,3.22,1.91,4.9,2.77-2.33.2-4.63.5-7,.47a25.21,25.21,0,0,1-3.37-.23c-1.73-.26-6.88-2.66-2.7-5.06C288.28,248.43,292.18,250.7,294.13,251.8Z" style="fill:#263238"></path><path d="M276.31,203.27a63.05,63.05,0,0,1,6,27.3c-.08,5.93-3.13,10-9.72,17.41,0,0,16.83,21,15.75,22.07-25.77,24.51-57.67,36.92-69.51,40.63-15.51,4.87-38.33-8.2-35.15-25.78,3.9-21.56,46.63-65.72,47-67.49s4.66-14.14,4.66-14.14Z" style="fill:#455a64"></path><path d="M272.87,247.32c-7,6.52-14.32,12.81-21.83,18.77s-15.24,11.69-23.1,17.22c-4.4,3.09-8.82,6.21-13.44,9-.08,0,0,.18.08.13,3.37-2,6.78-3.95,10.13-6-.45.52-.91,1.05-1.35,1.58-1.05,1.25-2.08,2.52-3.13,3.76a.08.08,0,0,0,.11.11c1.09-1.21,2.2-2.4,3.29-3.6.54-.59,1.06-1.18,1.58-1.77.25-.28.5-.56.74-.85L227,285q6.11-3.86,12-8.09a278.55,278.55,0,0,0,22.44-18.09c4-3.62,7.93-7.39,11.73-11.25C273.33,247.41,273.05,247.16,272.87,247.32Z" style="fill:#263238"></path><path d="M279.28,268.07c-1.2-1.78-2.38-3.57-3.62-5.32-2.51-3.51-5-7-7.71-10.35-.07-.08-.2,0-.14.08,2.26,3.71,4.68,7.29,7.16,10.85,1.23,1.76,2.54,3.47,3.83,5.19a55.63,55.63,0,0,0,3.92,5s.07,0,0,0A60.57,60.57,0,0,0,279.28,268.07Z" style="fill:#263238"></path><path d="M256.48,457.41c2.38-.37,60.34-30.59,61.83-33.13.56-1-3.35-9.67-8.37-20q-1.62-3.36-3.38-6.89c-1.38-2.76-2.78-5.56-4.16-8.27-6.2-12.16-11.9-22.75-11.9-22.75l-37.79,19.56,11.82,22.79,4.27,8.22,3.72,6.71s-17,21.5-18.34,24.47S254.11,457.8,256.48,457.41Z" style="fill:#eb9481"></path><path d="M256.48,457.41c2.38-.37,60.34-30.59,61.83-33.13.56-1-3.35-9.67-8.37-20q-1.62-3.36-3.38-6.89c-1.38-2.76-2.78-5.56-4.16-8.27l-37.87,19.6,4.27,8.22,3.72,6.71s-17,21.5-18.34,24.47S254.11,457.8,256.48,457.41Z" style="fill:#fff"></path><path d="M256.35,457.59c1.55-.25,59.89-29.23,62.17-33.32.66-1.2-5.26-13.86-11.81-27.08l-38,19.66,3.74,6.74S255.37,445.21,254,448.2,254,458,256.35,457.59Z" style="fill:#6C63FF"></path><path d="M256,454.82c9.65-5.33,49-25.93,59-30.46.08,0,.11,0,0,.06-9.44,5.49-49,25.77-58.93,30.56C255.85,455.09,255.77,454.94,256,454.82Z" style="fill:#263238"></path><path d="M270,422.14c3.47-2.72,8.48-4.58,12.84-3.37.17.05.1.29,0,.31a60.67,60.67,0,0,0-12.53,3.54A.28.28,0,0,1,270,422.14Z" style="fill:#263238"></path><path d="M268.06,425.26c3.48-2.72,8.49-4.58,12.85-3.37.17.05.1.29,0,.31a60.94,60.94,0,0,0-12.54,3.54A.28.28,0,0,1,268.06,425.26Z" style="fill:#263238"></path><path d="M266.16,428.38c3.47-2.72,8.48-4.58,12.85-3.37.17,0,.1.28-.05.31a60.85,60.85,0,0,0-12.53,3.54A.28.28,0,0,1,266.16,428.38Z" style="fill:#263238"></path><path d="M264.26,431.5c3.47-2.72,8.48-4.58,12.84-3.37.17,0,.1.28,0,.31A60.67,60.67,0,0,0,264.53,432,.28.28,0,0,1,264.26,431.5Z" style="fill:#263238"></path><path d="M262.81,421.53c3.82.7,7.81-.28,11.6-.76a.54.54,0,0,0,.35-.8.11.11,0,0,0,0-.18,23.08,23.08,0,0,0-10.51-5.72c-2.31-.51-5.61,0-6,2.88S260.58,421.13,262.81,421.53ZM260.22,419c-2.88-3.87,2.81-4,4.49-3.57a25.76,25.76,0,0,1,3.19,1.14,68.76,68.76,0,0,1,6.21,3.21c-1.88.12-3.72.4-5.59.59C266.29,420.55,261.8,421.08,260.22,419Z" style="fill:#263238"></path><path d="M284.56,407.24c-2.18-1.91-5-.18-6.47,1.7a23.08,23.08,0,0,0-4.32,11.16c0,.09.06.13.13.13a.55.55,0,0,0,.79.38c3.19-2.09,6.87-3.92,9.34-6.92C285.47,411.94,286.62,409.05,284.56,407.24Zm-5.67,9.22c-1.55,1.06-3.14,2-4.65,3.16a68.56,68.56,0,0,1,2.67-6.46,25,25,0,0,1,1.69-2.93c1-1.43,5.43-5,5.73-.18C284.5,412.7,280.74,415.19,278.89,416.46Z" style="fill:#263238"></path><path d="M291.4,203.27c10.48,24.72-1.22,37.75-3.18,46-4.26,17.85-13.67,51.27-13.12,56.8,1.56,15.48,21.84,66.29,25.57,79.66l-44.82,23.43C247.19,385.51,230.3,336,230,308.94c-.18-17.07,12.23-61,19.62-84.86l-2.81-20.81Z" style="fill:#455a64"></path><path d="M246.56,217.67c-.08-1.14-.08-2.29-.12-3.44-.09-2.7-.18-5.42-.16-8.13a.23.23,0,0,1,.45,0c.16,2,.24,4,.33,6.06.05,1,.1,2.08.14,3.11a14.79,14.79,0,0,0,.19,3c.24,1,1.12,1,2,.59a2.92,2.92,0,0,0,1.44-2.08c.33-1.79-.37-9.29-.36-10.4s.54-1.2.66,0,.59,7.26.62,8.37a8.44,8.44,0,0,1-.31,2.83c-.46,1.47-2.06,3.13-3.72,2.33A2.41,2.41,0,0,1,246.56,217.67Z" style="fill:#263238"></path><path d="M242.74,221.43a87.72,87.72,0,0,1,14.5,4.55c.18.08.1.36-.09.3-4.86-1.36-9.8-2.63-14.58-4.26A.31.31,0,0,1,242.74,221.43Z" style="fill:#263238"></path><path d="M249.58,223.81c-1,2.57-1.81,5.25-2.68,7.88s-1.64,5.24-2.42,7.88c-1.56,5.35-3.08,10.71-4.51,16.1-2.85,10.77-5.4,21.62-7.36,32.58-.55,3.1-1.08,6.21-1.53,9.32s-.66,6.28-1.12,9.41c0,.1.14.13.15,0,.34-2.75,1-5.46,1.48-8.19s1-5.47,1.56-8.19q1.64-8.19,3.55-16.31c2.53-10.81,5.4-21.54,8.41-32.22.85-3,1.71-6,2.53-9s1.75-6.06,2.38-9.13C250.07,223.74,249.69,223.55,249.58,223.81Z" style="fill:#263238"></path><path d="M293.37,377.81c-4-11.75-21-60.4-21.63-63.4-1.31-6.18.08-12.09,1.19-18.19S275.2,284,276.41,278s2.47-12.15,3.77-18.21c.65-3,1.31-6.07,2-9.09a52,52,0,0,1,2.47-8.41c1.09-2.66,2.66-5.08,4-7.62a24.37,24.37,0,0,0,2.64-7.72c.84-5.49-.14-11-1.45-16.37-.34-1.38-.7-2.75-1.07-4.12,0-.1-.18,0-.15,0,1.38,5.62,2.76,11.39,2.52,17.21a23.62,23.62,0,0,1-2,8.72c-1.12,2.52-2.63,4.84-3.9,7.29-2.7,5.22-4,11.44-5.24,17.12-1.33,6.05-7.84,39.17-8.94,45.48a33.21,33.21,0,0,0-.62,8.45,35.74,35.74,0,0,0,1.73,8.62c.88,2.94,20.17,57.15,20.67,58.6C293,378.27,293.48,378.13,293.37,377.81Z" style="fill:#263238"></path><path d="M296.45,379.07c-10.91,4.49-21.5,9.77-32,15.15-1.47.75-2.94,1.51-4.38,2.3s-2.93,1.69-4.45,2.44c-.09,0,0,.18.09.13,2.67-1.33,5.46-2.41,8.16-3.69s5.32-2.5,8-3.77c5.3-2.52,10.61-5,15.85-7.65q4.47-2.25,8.89-4.61C296.74,379.28,296.62,379,296.45,379.07Z" style="fill:#263238"></path><path d="M253.63,143.09c-13.22-1.91-52.13-4.63-59,1.29-7.64,6.59-22.18,33.83-23.14,38-2,8.71,21.24,14.85,24.1,10.44,3.69-5.68,13.13-23.84,16.94-28.44,2.89-3.49,21.74-5.66,39.38-10.68C261.3,151.07,261.3,144.2,253.63,143.09Z" style="fill:#eb9481"></path><path d="M173.54,172.06,202.07,186s9.76-19.92,11.64-21.7,30.79-7.76,39.9-10.2,10.09-12-1-12.64-46-4.21-55.35.45S173.54,172.06,173.54,172.06Z" style="fill:#6C63FF"></path><path d="M180.46,160.82v14.61l-.26-.13V161.22Zm8.41-11.42v30.13l.26.13V149.1Zm8.66-7.65v42l.26.12V141.64Zm8.66-1.84v37.8c.09-.16.17-.33.26-.5V139.88Zm8.66-.4v24.17a2,2,0,0,1,.26-.09V139.51Zm8.66.11V161.2l.26-.06V139.63Zm8.66.39v19.11l.26-.06V140Zm8.66.56v16.55l.26-.06V140.59Zm8.66.64V155.1l.26-.07v-13.8Zm8.66,1.73v8.86l.26-.22v-8.46A1.51,1.51,0,0,0,258.15,142.94ZM176,168v5.28l.1.05v-5.49A1.4,1.4,0,0,1,176,168Zm8.67-13.11v22.62l.09,0V154.72A.47.47,0,0,0,184.62,154.84Zm8.66-10.09v36.93l.1,0V144.66Zm8.66-4.27V185.9l.1,0V140.46Zm8.66-.86v29.69a1.62,1.62,0,0,1,.1-.18V139.61Zm8.66-.1v22.8a.29.29,0,0,1,.1,0V139.53Zm8.66.27v20.34l.1,0V139.79Zm8.66.49V158.1l.1,0V140.29Zm8.66.61V156.1l.1,0V140.9Zm8.66.66V154a.19.19,0,0,0,.1,0V141.57A.18.18,0,0,0,253.9,141.55Zm-4.15-.32-.26,0-2-.15H199.43c-.29.08-.56.17-.82.26h52.47Zm-61.16,8.5-.21.26h71.38a2.33,2.33,0,0,0,.17-.26Zm-6.49,8.66-.18.26h52.29l1.12-.26Zm-5.6,8.66-.16.26h35.38l.15-.26Zm4.53,8.66.54.26h25.51l.14-.26Zm17.78,8.66.53.26h3.39l.13-.26Zm61.57-38.89H192.5l-.1.1h68Zm-75.25,8.66-.07.1h67.88l.38-.1Zm-6,8.66a.61.61,0,0,1-.07.1h38.11l.33-.1Zm-5.29,8.66-.06.1h35.57l.05-.1Zm16.2,8.66.21.1h14.64a.47.47,0,0,1,0-.1Z" style="fill:#fff"></path><path d="M178.7,167.91a.08.08,0,0,1,.06-.15c4.28,1.4,22,11.08,23.92,12.29.19.13.12.26-.09.16C200.58,179.23,182.59,170.12,178.7,167.91Zm76.38-26.15c-6.51,4.64-16.75,12-24.88,17.83,8.79-2.08,18.72-4.27,23.41-5.53C262,151.82,263.49,143.59,255.08,141.76Z" style="fill:#263238"></path><path d="M228.78,210.18c1.19,2.83,39.09,11.14,69.14,6.37,0,0-11.61-50.09-14.38-56.23a47,47,0,0,0-10.08-14.84,22,22,0,0,0-5.68-4,3.29,3.29,0,0,0-.32-.15c-4.85-2.18-10.14-1.88-15.53,2.25a48.57,48.57,0,0,0-5.33,5.19c-5,5.52-13.59,19-14.59,22.81-1.64,6.21,3.41,13.46,3.41,13.46Z" style="fill:#6C63FF"></path><path d="M232.43,170.44v8.37c-.09-.3-.18-.61-.26-.92v-6.77C232.24,170.91,232.33,170.69,232.43,170.44Zm-.26,26.93V212l.26.09V196.38Zm8.66-41.06v57.9l.26,0V155.93C241,156.05,240.91,156.18,240.83,156.31Zm8.66-10.51v70l.26,0V145.55s0,0,0,0Zm8.66-5.34V216.9l.26,0V140.4Zm8.66.64v76.54l.26,0V141.21A1.83,1.83,0,0,0,266.81,141.1Zm8.67,6.46V218a2.25,2.25,0,0,0,.26,0V147.85A3.4,3.4,0,0,0,275.48,147.56Zm8.66,14.34v56h.26V162.71ZM292.8,195v22.26l.26,0V196C293,195.69,292.89,195.33,292.8,195ZM236.59,162.8h0v50.43l.1,0V162.64Zm8.65-12.41v64.68l.1,0V150.27Zm17.32-10.31v77.25h.1V140.09Zm8.66,3.52v74.27h.1v-74.2Zm8.67,9.87V218a.17.17,0,0,0,.1,0V153.63A1.4,1.4,0,0,1,279.89,153.47Zm8.66,24.36v39.79h.1V178.22C288.62,178.09,288.58,178,288.55,177.83Zm8.66,35.67v3.15h.1v-2.72C297.28,213.79,297.24,213.65,297.21,213.5ZM253.9,142.27V216.4h.1V142.22Zm13.17-1.06a1.83,1.83,0,0,0-.26-.11l-.1,0H256.35c-.21.08-.41.16-.62.26h11.61Zm10.22,8.52h-31.5l-.22.26h31.91Zm-37.88,8.66a2.33,2.33,0,0,0-.17.26h43.51l-.12-.26Zm46.28,8.66H234.11l-.15.26h51.8A2.5,2.5,0,0,1,285.69,167.05Zm2.32,8.66H231.76c0,.08,0,.17,0,.26h56.27Zm2.19,8.66H235c.06.1.11.18.15.26h55.14Zm2.12,8.66h-59l-.07.26h59.14A2.5,2.5,0,0,0,292.32,193Zm2.09,8.66H231L231,202h63.52A2.5,2.5,0,0,0,294.41,201.69Zm2.06,8.66H228.89a1.65,1.65,0,0,0,.3.26h67.34Zm-46.65-64.87-.07.07s0,0,0,0h23.84l-.1-.1Zm30.48,8.66H242.36l-.07.1h38.07Zm4.13,8.66H236.58a.41.41,0,0,0-.05.09h47.93Zm2.46,8.66H232.06a.22.22,0,0,0,0,.1h54.88A.3.3,0,0,0,286.89,171.46Zm2.24,8.66H232.88a.42.42,0,0,0,0,.1h56.24Zm2.16,8.66H234.44l0,.1h56.9A.44.44,0,0,0,291.29,188.78Zm2.1,8.66H232.15l0,.1h61.3Zm2.08,8.66H229.86l0,.1h65.66A.36.36,0,0,1,295.47,206.1Zm2,8.66H243.6l.53.1h53.4Z" style="fill:#fff"></path><path d="M253.49,143.69a28,28,0,0,0-.59,3.27,12.73,12.73,0,0,0-.05,3.26,2.94,2.94,0,0,0,1.46,2.46,4.53,4.53,0,0,0,3-.11,17.55,17.55,0,0,0,5.56-3.34,54.64,54.64,0,0,0,4.84-4.55,32.41,32.41,0,0,1-4.46,5,19.82,19.82,0,0,1-2.66,2.08,12.88,12.88,0,0,1-3.05,1.55,5.25,5.25,0,0,1-3.52,0,2.67,2.67,0,0,1-1.31-1.3,4.61,4.61,0,0,1-.44-1.72A15.83,15.83,0,0,1,253.49,143.69Z" style="fill:#263238"></path><path d="M270.81,127.87c-19.14,5.94-41.84-2.81-53-26.88-10.12-21.89-1.57-49.26,12.74-56.88,15.2-8.09,31.76.25,34.78,12.87,2.92,12.2-2.63,22.92,2.27,31.6,2.34,4.15,9.28,8.25,13,14.24C284.8,109.49,283.1,124.05,270.81,127.87Z" style="fill:#263238"></path><path d="M218.45,55.18a46.62,46.62,0,0,0-4.38,11.37,52.53,52.53,0,0,0-.38,24.09,59.07,59.07,0,0,0,3.87,11.49,49,49,0,0,0,6.23,10.37,45.27,45.27,0,0,0,8.71,8.39,48,48,0,0,0,22.53,8.6,45.78,45.78,0,0,1-23-8,46.29,46.29,0,0,1-15.4-19,53.85,53.85,0,0,1-5-24A48.44,48.44,0,0,1,218.45,55.18Z" style="fill:#263238"></path><path d="M265.27,53.5a22.53,22.53,0,0,1,2.52,7.17,32.57,32.57,0,0,1,.35,7.64c-.33,5-.94,10.12,0,15a19.9,19.9,0,0,0,.93,3.57,14.25,14.25,0,0,0,1.83,3.18c1.49,2,3.34,3.72,5,5.61a29.49,29.49,0,0,1,4.52,6.17,19.58,19.58,0,0,1,2.13,7.29,20.81,20.81,0,0,0-2.54-7.07,29.87,29.87,0,0,0-4.65-5.88,62.92,62.92,0,0,1-5.21-5.58,14.74,14.74,0,0,1-2-3.36,21.34,21.34,0,0,1-1-3.75,32.41,32.41,0,0,1-.43-7.67q.19-3.82.63-7.59a32.52,32.52,0,0,0-.07-7.51A23.86,23.86,0,0,0,265.27,53.5Z" style="fill:#263238"></path><path d="M255.06,143.3c-.18,1.21-.87,7.34.83,7.34,5.41,0,11.19-8.7,11.19-8.7l-.05-2.12.69-9-11.2-5.1-1.6-.66s0,2.48,0,5.56c0,.14,0,.29,0,.44S255.12,142.84,255.06,143.3Z" style="fill:#eb9481"></path><path d="M254.89,130.61A18.1,18.1,0,0,0,267,139.82l.69-9-11.2-5.1-1.6-.66S254.89,127.53,254.89,130.61Z" style="fill:#263238"></path><path d="M280.34,119.06c-.18,15.85-9.69,17.54-13.11,17.49-3.11,0-13.67-.56-15.13-16.35s6-20.72,13.07-21S280.52,103.2,280.34,119.06Z" style="fill:#eb9481"></path><path d="M277.9,115.93a9.8,9.8,0,0,1-1,.44,1.76,1.76,0,0,1-1.11.26.56.56,0,0,1-.4-.56,1.39,1.39,0,0,1,.92-1.07,2,2,0,0,1,1.47-.16A.6.6,0,0,1,277.9,115.93Z" style="fill:#263238"></path><path d="M266.54,115.66a9.1,9.1,0,0,0,1,.49,1.79,1.79,0,0,0,1.09.3.56.56,0,0,0,.43-.54,1.39,1.39,0,0,0-.89-1.11,2.06,2.06,0,0,0-1.46-.23A.6.6,0,0,0,266.54,115.66Z" style="fill:#263238"></path><path d="M268.83,120.08s-.09,0-.09.09c0,1.08-.24,2.31-1.24,2.61,0,0,0,.06,0,.06C268.7,122.74,269,121.1,268.83,120.08Z" style="fill:#263238"></path><path d="M267.93,118.89c-1.73-.23-2.06,3.24-.47,3.46S269.38,119.09,267.93,118.89Z" style="fill:#263238"></path><path d="M267.23,119c-.32.17-.65.49-1,.49s-.71-.4-.95-.77c0,0-.06,0-.07,0-.07.66.12,1.37.82,1.54s1.17-.39,1.4-1C267.45,119.14,267.36,118.94,267.23,119Z" style="fill:#263238"></path><path d="M275,120.38s.08.06.07.1c-.14,1.07-.13,2.32.8,2.78,0,0,0,.07,0,.06C274.73,123,274.73,121.37,275,120.38Z" style="fill:#263238"></path><path d="M276.12,119.36c1.74,0,1.51,3.53-.1,3.48S274.66,119.32,276.12,119.36Z" style="fill:#263238"></path><path d="M276.83,119.63c.26.21.51.56.84.6s.68-.3.95-.65c0,0,.05,0,.05,0,0,.67-.29,1.35-.94,1.43s-1-.52-1.09-1.19C276.61,119.73,276.72,119.55,276.83,119.63Z" style="fill:#263238"></path><path d="M268,128.51c.22.29.42.67.81.76a2.8,2.8,0,0,0,1.18-.11s.07,0,0,.06a1.44,1.44,0,0,1-1.44.39,1.14,1.14,0,0,1-.7-1.07C267.87,128.48,268,128.47,268,128.51Z" style="fill:#263238"></path><path d="M272.82,125s.08,1.62,0,2.38c0,.07-.2.09-.45.08,0,0,0,0,0,0a3.62,3.62,0,0,1-3.39-1.65c0-.07.06-.14.12-.09A5.45,5.45,0,0,0,272.3,127c.07-.2-.23-2.78-.11-2.77a6.75,6.75,0,0,1,1.68.53c-.07-3.39-.7-6.74-.72-10.12a.1.1,0,0,1,.2,0,55.57,55.57,0,0,1,1.25,10.87C274.62,125.86,273.11,125.16,272.82,125Z" style="fill:#263238"></path><path d="M272.37,126.88a4.4,4.4,0,0,1-1.73,1.43,2,2,0,0,1-1.2.11c-.88-.21-.93-1-.79-1.7a4.51,4.51,0,0,1,.36-1.06A5.68,5.68,0,0,0,272.37,126.88Z" style="fill:#263238"></path><path d="M270.64,128.31a2,2,0,0,1-1.2.11c-.88-.21-.93-1-.79-1.7A2.05,2.05,0,0,1,270.64,128.31Z" style="fill:#ff9abb"></path><path d="M252.21,120.29c1.82,0,6.93-4.55,7.79-13.28,0,0-1.31,7.78-2,8.88s2.86-2.58,3.65-9.61a28.44,28.44,0,0,0,6.92,4.34c3.25,1.21,5.29,1.34,5.55,1.12s-4.51-2.16-5.71-3.8c0,0,8.51,4.84,12.56,5.48.47.08,1.83-9.58-4.14-14.21s-16.32-1-19.22,1.37c0,0-3.19.19-7,4.57S250.25,120.24,252.21,120.29Z" style="fill:#263238"></path><path d="M254.6,121.44s-3-5.26-5.31-4.25-.47,8.4,2.06,9.64a2.69,2.69,0,0,0,3.72-1.09Z" style="fill:#eb9481"></path><path d="M249.88,119.3s0,0,0,.06c1.77.93,2.57,2.73,3.07,4.57a1.47,1.47,0,0,0-2.16-.62c-.05,0,0,.11,0,.1a1.65,1.65,0,0,1,1.75.75,7.81,7.81,0,0,1,.72,1.55c.07.17.38.11.33-.08v0C253.88,123.24,252.38,119.78,249.88,119.3Z" style="fill:#263238"></path><path d="M282.71,152c21.75,19.73,42.69,54.81,31.84,57.53-9.37,2.35-39.83-4.07-47.43-6.64-3.32-1.13,3.05-28.78,6.51-27.37A43.44,43.44,0,0,0,281,178c1-.14-4.17-11-9.26-21.46C264.55,141.78,274.54,144.63,282.71,152Z" style="fill:#eb9481"></path><path d="M242.45,167.66a4.15,4.15,0,0,0-.15,4.75,6.18,6.18,0,0,0-3.25,2.66c-1.21,2.25,1.78,5.12,1.78,5.12a7.62,7.62,0,0,0-3,3.35c-.94,2.26,1.66,5.59,1.66,5.59a6.69,6.69,0,0,0-.77,4.6c1,4.18,7.19,6.29,11.12,7.67s16.37,1.63,18.74,1.91l9.1-25.15S261.84,167,257,166C252.89,165.16,244.49,165.13,242.45,167.66Z" style="fill:#eb9481"></path><path d="M242.62,172.07c4.56-.17,8.91,1,13.33,2a.08.08,0,0,1,0,.15c-4.39-1-8.9-1.08-13.32-1.88C242.48,172.27,242.5,172.08,242.62,172.07Z" style="fill:#263238"></path><path d="M241,179.89a11.75,11.75,0,0,1,3.05.58q1.6.42,3.18.9c2.12.63,4.21,1.31,6.29,2,.09,0,.06.19,0,.16-2.11-.63-4.23-1.23-6.36-1.76L244,181a13.84,13.84,0,0,1-3-.85A.15.15,0,0,1,241,179.89Z" style="fill:#263238"></path><path d="M239.6,189.15a8.35,8.35,0,0,1,2.72.67c1,.31,1.92.62,2.88.91,1.92.6,3.84,1.19,5.77,1.72.1,0,.07.18,0,.15-2-.52-3.95-1-5.92-1.57-1-.26-1.93-.54-2.89-.81a7.93,7.93,0,0,1-2.56-1A.06.06,0,0,1,239.6,189.15Z" style="fill:#263238"></path><path d="M274,174.27l-6.9,30.86s42.8,10,49.39,4.4-10.82-39.24-39.65-62.68c-10.12-8.22-9.58.89-5.62,11,4.6,11.68,8.24,19.17,8.24,19.17Z" style="fill:#6C63FF"></path><path d="M275.74,146v22.72l-.26-.6V145.77Zm-.26,61,.26.05V175.12l-.26-.13Zm8.66-53.74v55.38l.26,0V153.42Zm8.66,8.75v48l.26,0V162.22C293,162.12,292.88,162,292.8,161.93Zm8.66,10.38v38.62l.26,0v-38.3Zm8.66,12.81v26.06l.26,0v-25.6Zm-38.9-41.43v14l0,.1.06.15V143.7Zm0,62.34.1,0V186.44l-.1.44Zm8.67-56.66v58.41l.1,0V149.46Zm8.66,8.1V209.3h.1V157.57A.47.47,0,0,0,288.55,157.47Zm8.71,9.58-.05-.06V210.5h.1V167.05Zm8.61,11.38v32.76h.1V178.57Zm8.66,15.12v17a.17.17,0,0,0,.1,0V193.77Zm-34.22-43.82H268.86c0,.08,0,.17,0,.26h11.71Zm-8.82,8.66c0,.09.07.18.1.26h18.12l-.25-.26Zm25.82,8.72v-.06H275c0,.09.08.17.11.26h22.32A1.56,1.56,0,0,0,297.31,167.11Zm-23.59,8.6-.06.26h3.79l-.52-.26Zm30.25,0H278.89c.05.09.09.18.13.26h25.14Zm5.7,8.66H271.78l-.06.26h38.11A2.26,2.26,0,0,0,309.67,184.37Zm4.62,8.66H269.85l-.06.26h44.62A1.51,1.51,0,0,0,314.29,193Zm3.13,8.66H267.91l-.06.26h49.63Zm-21.49,8.66,1.28.15h.1l.82.1h16.05l.35-.1a.17.17,0,0,0,.1,0,3.56,3.56,0,0,0,.39-.13Zm-20.87-64.87h-6.27l0,.1h6.45Zm10.1,8.66H270l0,.1h15.28Zm8.42,8.66H273.27a.42.42,0,0,0,0,.1h20.36Zm7.23,8.66H277a1,1,0,0,0,0,.1h23.88Zm6.19,8.66H272.73l0,.1h34.36A.61.61,0,0,0,307,180.12Zm5.18,8.66H270.8l0,.1h41.46A.93.93,0,0,0,312.18,188.78Zm3.95,8.66H268.86l0,.1h47.33Zm-44.59,8.66.47.1H317.9v-.1Z" style="fill:#fff"></path><path d="M274.08,174.26c1,.35,13.07,6.23,13.92,6.7a4,4,0,0,1,1.23.23l1.42.37c.91.27,1.82.53,2.73.82a38.28,38.28,0,0,0,5.47,1.54c.1,0,.06.16,0,.15a47.72,47.72,0,0,1-5.67-1.11c-.94-.22-1.88-.46-2.81-.71l1,.56c4,2.21,7.84,4.52,11.76,6.77,2.24,1.27,4.46,2.57,6.71,3.81.09.05,0,.19-.07.14-7.92-4.36-34.85-18.17-35.82-18.94C273.78,174.47,273.91,174.2,274.08,174.26Zm-2.27,30.38c-.05.22.1.26.17,0,.7-2.12,5.66-21.72,5.95-26.22a.08.08,0,1,0-.15,0C276.6,182.76,272.26,202.45,271.81,204.64Zm.75-38.77c.68.76,1.23,1.62,1.9,2.39.33.38.65.76,1,1.12.17.18.35.35.5.54l.06.08c.46,1,.93,1.95,1.4,2.92.15.3,2.38,4.62,2.41,4.65s.23.06.29-.08-2.59-6-3.36-7.57c-1.52-3.21-3.21-6.33-4.88-9.46,0,0-.09,0-.07,0,1.09,2.58,2.19,5.15,3.36,7.7l-.12-.13c-.76-.81-1.62-1.5-2.37-2.31C272.6,165.68,272.49,165.79,272.56,165.87Zm-5.65,39.57a72.16,72.16,0,0,0,7.12,1.68c4.17.91,8.38,1.65,12.6,2.29s8.49,1,12.73,1.56c.1,0,.14-.14,0-.15-2.42-.29-4.82-.71-7.23-1.09-4.21-.67-8.41-1.43-12.62-2.17l-6.24-1.14c-2-.37-4.06-1-6.07-1.24,0-.08.27-1.89.3-2.07s-.14-.13-.15,0A15.21,15.21,0,0,0,266.91,205.44Z" style="fill:#263238"></path><path d="M315.78,157.72s-3.08,57-37.52,79.06c-34.46-22.07-37.54-79.06-37.54-79.06,21.85,0,37.54-15.18,37.54-15.18S293.93,157.72,315.78,157.72Z" style="fill:#ebebeb"></path><path d="M312.64,160.39s-2.82,52.23-34.38,72.46c-31.58-20.23-34.4-72.46-34.4-72.46,20,0,34.4-13.92,34.4-13.92S292.62,160.39,312.64,160.39Z" style="fill:#455a64"></path><path d="M312.64,160.39s-2.82,52.23-34.38,72.45h0V146.48h0S292.62,160.39,312.64,160.39Z" style="fill:#37474f"></path><rect x="274.87" y="167.91" width="6.77" height="25.67" style="fill:#ebebeb"></rect><rect x="274.87" y="167.91" width="6.77" height="25.67" transform="translate(458.99 -97.51) rotate(90)" style="fill:#ebebeb"></rect><path d="M197.27,189.66a22,22,0,0,1,1.44,12.17c-.63,3.32-2.93,7.53-5.84,7.36s-.94-10.74-1.17-11.87S197.27,189.66,197.27,189.66Z" style="fill:#eb9481"></path><polygon points="242.62 234.99 280.95 253.95 241.95 236.41 242.62 234.99" style="fill:#263238"></polygon><rect x="178.75" y="165.94" width="26.17" height="91.88" transform="translate(465.33 128.86) rotate(115.27)" style="fill:#ebebeb"></rect><rect x="193.03" y="187.67" width="22.52" height="60.2" transform="translate(488.43 125.99) rotate(115.27)" style="fill:#6C63FF"></rect><rect x="218.27" y="218.65" width="11.51" height="0.65" transform="translate(517.68 109.87) rotate(115.27)" style="fill:#455a64"></rect><rect x="216.59" y="215.37" width="8.36" height="0.65" transform="translate(510.07 108.14) rotate(115.27)" style="fill:#455a64"></rect><rect x="212.66" y="213.52" width="8.36" height="0.65" transform="translate(502.8 109.04) rotate(115.27)" style="fill:#455a64"></rect><rect x="206.49" y="213.09" width="11.51" height="0.65" transform="translate(495.85 112.59) rotate(115.27)" style="fill:#455a64"></rect><rect x="204.81" y="209.81" width="8.36" height="0.65" transform="translate(488.24 110.86) rotate(115.27)" style="fill:#455a64"></rect><rect x="200.89" y="207.96" width="8.36" height="0.65" transform="translate(480.97 111.76) rotate(115.27)" style="fill:#455a64"></rect><rect x="194.72" y="207.53" width="11.51" height="0.65" transform="matrix(-0.43, 0.9, -0.9, -0.43, 474.02, 115.31)" style="fill:#455a64"></rect><rect x="193.04" y="204.25" width="8.36" height="0.65" transform="translate(466.41 113.57) rotate(115.27)" style="fill:#455a64"></rect><rect x="189.11" y="202.4" width="8.36" height="0.65" transform="translate(459.14 114.48) rotate(115.27)" style="fill:#455a64"></rect><rect x="182.94" y="201.97" width="11.51" height="0.65" transform="translate(452.19 118.02) rotate(115.27)" style="fill:#455a64"></rect><rect x="181.26" y="198.69" width="8.36" height="0.65" transform="translate(444.59 116.29) rotate(115.27)" style="fill:#455a64"></rect><rect x="177.34" y="196.84" width="8.36" height="0.65" transform="translate(437.31 117.19) rotate(115.27)" style="fill:#455a64"></rect><rect x="171.17" y="196.41" width="11.51" height="0.65" transform="translate(430.36 120.74) rotate(115.27)" style="fill:#455a64"></rect><rect x="169.49" y="193.13" width="8.36" height="0.65" transform="translate(422.76 119) rotate(115.27)" style="fill:#455a64"></rect><rect x="165.56" y="191.28" width="8.36" height="0.65" transform="translate(415.48 119.91) rotate(115.27)" style="fill:#455a64"></rect><rect x="159.39" y="190.85" width="11.51" height="0.65" transform="translate(408.53 123.45) rotate(115.27)" style="fill:#455a64"></rect><rect x="129.91" y="187.58" width="34.81" height="6.58" transform="translate(382.8 139.13) rotate(115.27)" style="fill:#455a64"></rect><rect x="107.43" y="175.51" width="28.67" height="6.58" transform="translate(335.44 145.03) rotate(115.27)" style="fill:#455a64"></rect><rect x="128.15" y="174.04" width="12.73" height="21.67" transform="translate(-90.1 227.59) rotate(-64.73)" style="fill:#455a64"></rect><rect x="135.55" y="185.73" width="12.73" height="5.3" transform="translate(-89.01 236.29) rotate(-64.73)" style="fill:#263238"></rect><polygon points="231.71 235.03 235.05 227.96 243.69 233.78 241.7 238.01 231.71 235.03" style="fill:#263238"></polygon><path d="M183.24,211.21c-1.64,4,.9,10.68-2.32,10.39-2.86-.25-4.6-4.95-4.6-4.95s0,4-2.28,3.67c-3.72-.55-4.38-5.78-4.38-5.78s-.31,3.09-2.69,2.64c-3.25-.6-4.28-5.35-4.28-5.35s-1.14,1.13-2.77-.76c-2.32-2.71-.83-10.27.88-14s10.78-16.29,12.21-18.18l24.26,10.81s-5.53,7.42-9.64,13.52A91.25,91.25,0,0,0,183.24,211.21Z" style="fill:#eb9481"></path><path d="M176.41,216.43c0-6.57,1.08-9.45,4.5-14.93.07-.11-.08-.23-.16-.13-3.83,5.07-5.76,8.48-4.66,15.07C176.15,216.77,176.41,216.74,176.41,216.43Z" style="fill:#263238"></path><path d="M169.73,214.82c.56-6.82,1.74-9.95,4.9-16,.05-.09-.09-.17-.15-.09-3.59,5.63-5.43,9.08-5.09,16C169.4,215.05,169.7,215.13,169.73,214.82Z" style="fill:#263238"></path><path d="M162.76,211.76c1-6.57,2.17-10.06,6-15.49.09-.13-.09-.28-.19-.16-4.43,5.17-5.9,9.52-6,15.6C162.55,212.12,162.69,212.17,162.76,211.76Z" style="fill:#263238"></path></g><g id="freepik--Virus--inject-57"><path d="M413.59,252.75l3.05-4.2c.14-.19-.54-1.37-.33-1.63s3,.9,2.74,1.45c-.18.34-1.14.42-1.24.58s-2.1,4.93-2.1,4.93Z" style="fill:#6C63FF"></path><path d="M416.59,247a5.93,5.93,0,0,0,2.3,1.14"></path><path d="M413.59,252.75l3.05-4.2c.14-.19-.54-1.37-.33-1.63s3,.9,2.74,1.45c-.18.34-1.14.42-1.24.58s-2.1,4.93-2.1,4.93Z" style="opacity:0.1"></path><path d="M406.48,252.92s-.78-4.9-.82-5.13-1.35-.59-1.38-.92,2.77-1.51,3-.91c.11.36-.51,1.1-.47,1.28s2,5,2,5Z" style="fill:#6C63FF"></path><path d="M404.54,246.74a6,6,0,0,0,2.43-.82"></path><path d="M406.48,252.92s-.78-4.9-.82-5.13-1.35-.59-1.38-.92,2.77-1.51,3-.91c.11.36-.51,1.1-.47,1.28s2,5,2,5Z" style="opacity:0.1"></path><path d="M401.56,258.07l-4.2-3.06c-.18-.13-1.37.54-1.62.33s.89-3,1.45-2.73c.33.18.42,1.14.57,1.24s4.93,2.09,4.93,2.09Z" style="fill:#6C63FF"></path><path d="M395.83,255.07a6,6,0,0,0,1.13-2.3"></path><path d="M401.56,258.07l-4.2-3.06c-.18-.13-1.37.54-1.62.33s.89-3,1.45-2.73c.33.18.42,1.14.57,1.24s4.93,2.09,4.93,2.09Z" style="opacity:0.1"></path><path d="M401.73,265.18l-5.13.81c-.23,0-.58,1.35-.92,1.39s-1.5-2.78-.9-3c.36-.12,1.1.5,1.28.47s5-2,5-2Z" style="fill:#6C63FF"></path><path d="M395.56,267.12a5.91,5.91,0,0,0-.83-2.43"></path><path d="M401.73,265.18l-5.13.81c-.23,0-.58,1.35-.92,1.39s-1.5-2.78-.9-3c.36-.12,1.1.5,1.28.47s5-2,5-2Z" style="opacity:0.1"></path><path d="M406.88,270.09l-3.05,4.2c-.14.19.54,1.37.33,1.63s-3-.9-2.74-1.45c.18-.34,1.14-.42,1.24-.57s2.1-4.94,2.1-4.94Z" style="fill:#6C63FF"></path><path d="M403.89,275.83a6,6,0,0,0-2.31-1.14"></path><path d="M406.88,270.09l-3.05,4.2c-.14.19.54,1.37.33,1.63s-3-.9-2.74-1.45c.18-.34,1.14-.42,1.24-.57s2.1-4.94,2.1-4.94Z" style="opacity:0.1"></path><path d="M414,269.92s.78,4.9.82,5.13,1.35.59,1.38.92-2.77,1.51-3,.91c-.11-.36.51-1.1.47-1.28s-2-5-2-5Z" style="fill:#6C63FF"></path><path d="M415.93,276.1a6,6,0,0,0-2.43.82"></path><path d="M414,269.92s.78,4.9.82,5.13,1.35.59,1.38.92-2.77,1.51-3,.91c-.11-.36.51-1.1.47-1.28s-2-5-2-5Z" style="opacity:0.1"></path><path d="M418.91,264.77l4.2,3.06c.19.13,1.37-.54,1.63-.33s-.9,3-1.46,2.73c-.33-.18-.42-1.14-.57-1.24s-4.93-2.09-4.93-2.09Z" style="fill:#6C63FF"></path><path d="M424.64,267.77a6,6,0,0,0-1.13,2.3"></path><path d="M418.91,264.77l4.2,3.06c.19.13,1.37-.54,1.63-.33s-.9,3-1.46,2.73c-.33-.18-.42-1.14-.57-1.24s-4.93-2.09-4.93-2.09Z" style="opacity:0.1"></path><path d="M418.74,257.66l5.13-.81c.23,0,.58-1.35.92-1.39s1.5,2.78.9,3c-.36.12-1.1-.5-1.28-.46s-5,2-5,2Z" style="fill:#6C63FF"></path><path d="M424.91,255.72a5.91,5.91,0,0,0,.83,2.43"></path><path d="M418.74,257.66l5.13-.81c.23,0,.58-1.35.92-1.39s1.5,2.78.9,3c-.36.12-1.1-.5-1.28-.46s-5,2-5,2Z" style="opacity:0.1"></path><path d="M412.52,252s3.11-6.16,3.22-6.36-.7-1.31-.52-1.59,3.13.53,2.9,1.12c-.14.36-1.08.56-1.17.72s-2.18,7-2.18,7Z" style="fill:#6C63FF"></path><path d="M415.5,244.09a6,6,0,0,0,2.43.86"></path><path d="M405.31,253.25s-2.16-6.55-2.22-6.78-1.42-.42-1.5-.75,2.59-1.84,2.85-1.26c.15.35-.37,1.16-.32,1.33s3.4,6.49,3.4,6.49Z" style="fill:#6C63FF"></path><path d="M401.84,245.56a6,6,0,0,0,2.32-1.11"></path><path d="M401.11,259.25,394.74,256c-.2-.12-1.3.7-1.58.52s.53-3.13,1.12-2.9c.35.13.55,1.08.72,1.16s7,2.19,7,2.19Z" style="fill:#6C63FF"></path><path d="M393.22,256.27a6.12,6.12,0,0,0,.85-2.44"></path><path d="M402.38,266.46s-6.56,2.16-6.78,2.22-.42,1.42-.75,1.49-1.84-2.58-1.26-2.84c.34-.16,1.16.37,1.33.31s6.48-3.39,6.48-3.39Z" style="fill:#6C63FF"></path><path d="M394.69,269.93a6,6,0,0,0-1.12-2.32"></path><path d="M408.37,270.66s-3.1,6.16-3.22,6.37.71,1.3.52,1.58-3.12-.53-2.9-1.12c.14-.36,1.09-.56,1.17-.72s2.18-7,2.18-7Z" style="fill:#6C63FF"></path><path d="M405.39,278.55a5.89,5.89,0,0,0-2.43-.85"></path><path d="M415.58,269.39s2.16,6.55,2.23,6.78,1.41.42,1.49.75-2.59,1.84-2.85,1.26c-.15-.35.38-1.16.32-1.33s-3.4-6.48-3.4-6.48Z" style="fill:#6C63FF"></path><path d="M419.06,277.08a6,6,0,0,0-2.33,1.11"></path><path d="M419.78,263.39s6.17,3.11,6.37,3.23,1.3-.71,1.59-.53-.53,3.13-1.12,2.9c-.36-.13-.56-1.08-.72-1.16s-7-2.18-7-2.18Z" style="fill:#6C63FF"></path><path d="M427.68,266.37a6.07,6.07,0,0,0-.86,2.44"></path><path d="M418.51,256.18s6.56-2.16,6.79-2.22.42-1.42.75-1.49,1.83,2.58,1.26,2.84c-.35.16-1.16-.37-1.34-.31s-6.48,3.39-6.48,3.39Z" style="fill:#6C63FF"></path><path d="M426.2,252.71a6,6,0,0,0,1.12,2.32"></path><path d="M421.89,264c-1.47,6.31-7.47,10.59-13.88,9.09-4.06-.95-7.35-3.33-8.77-6.88a12,12,0,0,1-.36-7.27c1.77-7.58,8.35-10.78,14.63-9.31a11,11,0,0,1,4.07,1.83C421.66,254.36,422.88,259.71,421.89,264Z" style="fill:#6C63FF"></path><path d="M421.89,264c-1.47,6.31-7.47,10.59-13.88,9.09-4.06-.95-7.35-3.33-8.77-6.88,2.8,2.22,8.59,5.77,14.39,3,8-3.81,7.48-13,3.95-17.77C421.66,254.36,422.88,259.71,421.89,264Z" style="opacity:0.1"></path><path d="M411.34,252.64H408.6s0-.11,0-.31c.17-1.1.75-4.87.78-5.09s-1.27-1.09-1.2-1.46c0-.17.77-.33,1.55-.4.94-.07,2,0,2,.4s-.92,1-.94,1.24S411.34,252.64,411.34,252.64Z" style="fill:#6C63FF"></path><path d="M408.55,245.73a6.86,6.86,0,0,0,2.92-.09Z"></path><path d="M408.64,252.33c.17-1.1.75-4.87.78-5.09s-1.27-1.09-1.2-1.46c0-.17.77-.33,1.55-.4a2,2,0,0,0-.73.33.21.21,0,0,0-.06.08c-.06.1,0,.19.07.3.25.28.85.63.87.92S408.69,252.18,408.64,252.33Z" style="opacity:0.1"></path><path d="M404.79,254.12l-1.94,1.94a.59.59,0,0,0-.07-.1l0,0-3.14-4.28c-.16-.22-1.67.13-1.89-.19s.85-1.56,1.65-2.2c.37-.3.69-.45.85-.29s.08,1.38.21,1.53S404.79,254.12,404.79,254.12Z" style="fill:#6C63FF"></path><path d="M397.92,251.21a6.92,6.92,0,0,0,2-2.13Z"></path><path d="M402.76,255.94l-3.14-4.28c-.16-.22-1.67.13-1.89-.19s.85-1.56,1.65-2.2a4.71,4.71,0,0,0-.73,1.16,1.5,1.5,0,0,0-.08.27c0,.13,0,.21.07.24.31.1,1-.14,1.29,0A56.59,56.59,0,0,1,402.76,255.94Z" style="opacity:0.1"></path><path d="M401.2,259.8v2.74h0l-5.39-.83c-.26,0-1.08,1.28-1.46,1.2s-.66-3-.15-3.46a.24.24,0,0,1,.15-.06c.43,0,1,.92,1.24.94S401.2,259.8,401.2,259.8Z" style="fill:#6C63FF"></path><path d="M394.29,262.59a6.86,6.86,0,0,0-.09-2.92Z"></path><path d="M401.19,262.54l-5.39-.83c-.26,0-1.08,1.28-1.46,1.2s-.66-3-.15-3.46a2.64,2.64,0,0,0,.07,2.14,1.16,1.16,0,0,0,.13.22c.08.11.16.17.22.16.31-.07.78-.71,1.22-.68S400.9,262.46,401.19,262.54Z" style="opacity:0.1"></path><path d="M400.22,271.52c-.16.11,0,1-.05,1.48a.54.54,0,0,1-.14.41c-.31.2-3-2-2.49-2.5.31-.31,1.38-.08,1.54-.21s1.53-1.8,2.53-3h0c.61-.74,1.07-1.32,1.07-1.32l1.94,1.94Z" style="fill:#6C63FF"></path><path d="M399.77,273.21a6.8,6.8,0,0,0-2.13-2Z"></path><path d="M400.17,273a.54.54,0,0,1-.14.41c-.31.2-3-2-2.49-2.5.31-.31,1.38-.08,1.54-.21s1.53-1.8,2.53-3a26.07,26.07,0,0,1-2.21,3.41c-.25.11-.93.11-1,.44a.36.36,0,0,0,.06.22,3.45,3.45,0,0,0,.5.7,3.75,3.75,0,0,0,.66.62l.1.07c.13.08.23.11.29.07A.36.36,0,0,0,400.17,273Z" style="opacity:0.1"></path><path d="M411.48,276.8c0,.09-.24.17-.55.25-1,.22-3,.29-3-.25s.92-1,.94-1.24-.24-2.88-.41-4.45h0c-.06-.69-.12-1.18-.12-1.18h2.74l-.82,5.4C410.24,275.59,411.55,276.42,411.48,276.8Z" style="fill:#6C63FF"></path><path d="M411.15,276.85a6.86,6.86,0,0,0-2.92.09Z"></path><path d="M410.93,277.05c-1,.22-3,.29-3-.25s.92-1,.94-1.24-.24-2.88-.41-4.45c.3,1.47.87,4.33.83,4.46s-.74.9-.55,1.16a.16.16,0,0,0,.08,0,1.7,1.7,0,0,0,.4.13A9.24,9.24,0,0,0,410.93,277.05Z" style="opacity:0.1"></path><path d="M421.07,272.57c-.6.68-1.33,1.29-1.6,1s-.08-1.37-.21-1.53-3.22-2.7-4.11-3.41h0l-.24-.19,1.94-1.93,3.23,4.4c.16.21,1.68-.14,1.89.18C422.07,271.25,421.62,271.94,421.07,272.57Z" style="fill:#6C63FF"></path><path d="M421.78,271.37a6.79,6.79,0,0,0-2,2.13Z"></path><path d="M421.07,272.57c-.6.68-1.33,1.29-1.6,1s-.08-1.37-.21-1.53-3.22-2.7-4.11-3.41h0a55.14,55.14,0,0,1,4.62,3.16c0,.25-.06,1.23.25,1.26a.39.39,0,0,0,.2,0A3.88,3.88,0,0,0,421.07,272.57Z" style="opacity:0.1"></path><path d="M425.36,263.18c-.23,0-.51-.26-.75-.5s-.39-.42-.49-.43c-.35,0-5.62.52-5.62.52V260l1.11.17h0l4.28.65c.26,0,1.09-1.27,1.46-1.2S426.08,263.18,425.36,263.18Z" style="fill:#6C63FF"></path><path d="M425.41,260a6.87,6.87,0,0,0,.09,2.92Z"></path><path d="M425.36,263.18c-.23,0-.51-.26-.75-.5a5,5,0,0,0,.68,0,.15.15,0,0,0,.12-.07.67.67,0,0,0,.08-.17,3.09,3.09,0,0,0,0-1.31,1.85,1.85,0,0,0-.13-.38h0c-.05-.08-.11-.14-.16-.14-.35,0-1,.75-1.47.67s-2.74-.71-4.07-1.08l4.28.65c.26,0,1.09-1.27,1.46-1.2S426.08,263.18,425.36,263.18Z" style="opacity:0.1"></path><path d="M422.16,251.66c-.3.31-1.38.08-1.54.21s-3.61,4.35-3.61,4.35l-1.93-1.93.42-.31h0l4-2.92c.21-.16-.13-1.67.19-1.88.16-.11.94.41,1.6,1h0C421.9,250.77,422.41,251.42,422.16,251.66Z" style="fill:#6C63FF"></path><path d="M419.93,249.36a6.8,6.8,0,0,0,2.13,2Z"></path><path d="M421.27,250.19a2.87,2.87,0,0,0-.78-.31l-.17,0c-.16,0-.27.07-.29.21-.07.4.18,1.14,0,1.37s-4.35,2.45-4.52,2.53l4-2.92c.21-.16-.13-1.67.19-1.88C419.83,249.06,420.61,249.58,421.27,250.19Z" style="opacity:0.1"></path><g style="opacity:0.1"><path d="M406.54,268.62c-.12.25-.55.3-1,.11s-.67-.56-.55-.82.55-.3,1-.11S406.66,268.36,406.54,268.62Z"></path><path d="M406.26,269.53a2.88,2.88,0,0,1-1.68-.8.9.9,0,0,1-.27-1c.18-.46.6-.44,1-.48,0,0,0,0,0,0-.71-.08-1.55.21-1.42,1.08s1.44,1.45,2.33,1.38C406.33,269.69,406.36,269.54,406.26,269.53Z"></path><path d="M408.15,254.06c0,.28-.44.57-1.06.66s-1.15-.08-1.19-.35.44-.58,1.06-.66S408.11,253.79,408.15,254.06Z"></path><path d="M406.54,255.31a2.54,2.54,0,0,1-.93-.3.7.7,0,0,1-.18-1,2.09,2.09,0,0,1,1.52-.82,0,0,0,0,0,0-.06c-.71,0-1.76.38-2,1.14-.3,1,.9,1.17,1.59,1.16C406.61,255.42,406.6,255.32,406.54,255.31Z"></path><path d="M416.88,257.59c0,.28-.39.5-.86.49s-.84-.25-.83-.53.39-.5.86-.49S416.88,257.31,416.88,257.59Z"></path><path d="M416,258.72a3.5,3.5,0,0,1-1.31-.65c-.67-.71.36-1.15.92-1.32,0,0,0-.05,0,0-.6.05-1.53.42-1.4,1.19s1.15,1.07,1.78,1A.07.07,0,0,0,416,258.72Z"></path><path d="M403.36,265.47c0,.22-.31.38-.67.36s-.65-.21-.63-.42.31-.38.67-.36S403.38,265.26,403.36,265.47Z"></path><path d="M402.62,266.33a2.83,2.83,0,0,1-1-.53c-.5-.56.3-.88.74-1,0,0,0,0,0,0-.48,0-1.2.3-1.12.9s.87.85,1.37.78A.06.06,0,0,0,402.62,266.33Z"></path><path d="M419,265.75c.06.35-.36.71-.93.8s-1.08-.09-1.14-.44.35-.7.92-.8S419,265.41,419,265.75Z"></path><path d="M417,265.18s0,0,0,0c-.54.41-1.3,1.08-.76,1.81a1.63,1.63,0,0,0,2.05.32c.05,0,0-.11,0-.11a2.75,2.75,0,0,1-1.48-.18C415.86,266.54,416.47,265.64,417,265.18Z"></path></g><path d="M92.7,363.3l3-4.2c.14-.19-.54-1.37-.33-1.63s3,.9,2.73,1.45c-.17.34-1.13.43-1.23.58s-2.1,4.93-2.1,4.93Z" style="fill:#6C63FF"></path><path d="M95.69,357.57A6,6,0,0,0,98,358.7" style="fill:#263238"></path><path d="M92.7,363.3l3-4.2c.14-.19-.54-1.37-.33-1.63s3,.9,2.73,1.45c-.17.34-1.13.43-1.23.58s-2.1,4.93-2.1,4.93Z" style="opacity:0.1"></path><path d="M85.58,363.47s-.77-4.9-.81-5.13-1.35-.58-1.38-.92,2.77-1.51,3-.9c.11.36-.51,1.1-.47,1.28s2,5,2,5Z" style="fill:#6C63FF"></path><path d="M83.65,357.3a6,6,0,0,0,2.42-.83" style="fill:#263238"></path><path d="M85.58,363.47s-.77-4.9-.81-5.13-1.35-.58-1.38-.92,2.77-1.51,3-.9c.11.36-.51,1.1-.47,1.28s2,5,2,5Z" style="opacity:0.1"></path><path d="M80.67,368.62l-4.2-3.05c-.19-.14-1.37.54-1.63.32s.9-3,1.45-2.73c.34.18.43,1.14.58,1.24s4.93,2.1,4.93,2.1Z" style="fill:#6C63FF"></path><path d="M74.94,365.62a6,6,0,0,0,1.13-2.3" style="fill:#263238"></path><path d="M80.67,368.62l-4.2-3.05c-.19-.14-1.37.54-1.63.32s.9-3,1.45-2.73c.34.18.43,1.14.58,1.24s4.93,2.1,4.93,2.1Z" style="opacity:0.1"></path><path d="M80.84,375.73l-5.13.81c-.23,0-.58,1.35-.92,1.39s-1.51-2.78-.9-3c.36-.11,1.1.5,1.28.47s5-2,5-2Z" style="fill:#6C63FF"></path><path d="M74.66,377.67a6,6,0,0,0-.82-2.43" style="fill:#263238"></path><path d="M80.84,375.73l-5.13.81c-.23,0-.58,1.35-.92,1.39s-1.51-2.78-.9-3c.36-.11,1.1.5,1.28.47s5-2,5-2Z" style="opacity:0.1"></path><path d="M86,380.64l-3,4.2c-.14.19.54,1.37.32,1.63s-3-.89-2.73-1.45c.18-.33,1.14-.42,1.24-.57s2.09-4.93,2.09-4.93Z" style="fill:#6C63FF"></path><path d="M83,386.38a6,6,0,0,0-2.3-1.13" style="fill:#263238"></path><path d="M86,380.64l-3,4.2c-.14.19.54,1.37.32,1.63s-3-.89-2.73-1.45c.18-.33,1.14-.42,1.24-.57s2.09-4.93,2.09-4.93Z" style="opacity:0.1"></path><path d="M93.1,380.48s.78,4.89.81,5.12,1.35.59,1.39.92-2.78,1.51-3,.91c-.11-.36.5-1.1.47-1.28s-2-5-2-5Z" style="fill:#6C63FF"></path><path d="M95,386.65a6,6,0,0,0-2.43.83" style="fill:#263238"></path><path d="M93.1,380.48s.78,4.89.81,5.12,1.35.59,1.39.92-2.78,1.51-3,.91c-.11-.36.5-1.1.47-1.28s-2-5-2-5Z" style="opacity:0.1"></path><path d="M98,375.33l4.2,3.05c.19.14,1.37-.54,1.63-.33s-.89,3-1.45,2.73c-.33-.17-.42-1.13-.57-1.23s-4.93-2.1-4.93-2.1Z" style="fill:#6C63FF"></path><path d="M103.75,378.32a6,6,0,0,0-1.13,2.3" style="fill:#263238"></path><path d="M98,375.33l4.2,3.05c.19.14,1.37-.54,1.63-.33s-.89,3-1.45,2.73c-.33-.17-.42-1.13-.57-1.23s-4.93-2.1-4.93-2.1Z" style="opacity:0.1"></path><path d="M97.85,368.21l5.12-.81c.23,0,.59-1.35.92-1.38s1.51,2.77.91,3c-.36.11-1.1-.51-1.28-.47s-5,2-5,2Z" style="fill:#6C63FF"></path><path d="M104,366.28a5.88,5.88,0,0,0,.83,2.42" style="fill:#263238"></path><path d="M97.85,368.21l5.12-.81c.23,0,.59-1.35.92-1.38s1.51,2.77.91,3c-.36.11-1.1-.51-1.28-.47s-5,2-5,2Z" style="opacity:0.1"></path><path d="M91.63,362.54s3.1-6.17,3.22-6.37-.71-1.3-.52-1.59,3.12.53,2.9,1.12c-.14.36-1.09.56-1.17.72s-2.18,7-2.18,7Z" style="fill:#6C63FF"></path><path d="M94.61,354.64a6,6,0,0,0,2.43.86" style="fill:#263238"></path><path d="M84.42,363.81s-2.16-6.56-2.23-6.79-1.41-.42-1.49-.75,2.59-1.83,2.85-1.26c.15.35-.38,1.16-.32,1.34s3.4,6.48,3.4,6.48Z" style="fill:#6C63FF"></path><path d="M80.94,356.12A6.07,6.07,0,0,0,83.27,355" style="fill:#263238"></path><path d="M80.22,369.8l-6.37-3.22c-.21-.12-1.3.7-1.59.52s.53-3.13,1.12-2.9c.36.14.56,1.08.72,1.16s7,2.19,7,2.19Z" style="fill:#6C63FF"></path><path d="M72.32,366.82a6,6,0,0,0,.86-2.43" style="fill:#263238"></path><path d="M81.49,377s-6.56,2.16-6.79,2.22-.42,1.42-.75,1.49-1.83-2.58-1.26-2.84c.35-.15,1.16.37,1.34.31s6.48-3.39,6.48-3.39Z" style="fill:#6C63FF"></path><path d="M73.8,380.48a6,6,0,0,0-1.12-2.32" style="fill:#263238"></path><path d="M87.48,381.21l-3.22,6.37c-.12.2.7,1.3.52,1.58s-3.13-.53-2.9-1.12c.14-.35,1.08-.55,1.17-.72s2.18-7,2.18-7Z" style="fill:#6C63FF"></path><path d="M84.5,389.1a6,6,0,0,0-2.43-.85" style="fill:#263238"></path><path d="M94.69,379.94s2.16,6.56,2.22,6.78,1.42.42,1.5.75-2.59,1.84-2.85,1.26c-.15-.34.37-1.16.32-1.33s-3.4-6.48-3.4-6.48Z" style="fill:#6C63FF"></path><path d="M98.16,387.63a6.06,6.06,0,0,0-2.32,1.12" style="fill:#263238"></path><path d="M98.89,373.94s6.16,3.11,6.37,3.23,1.3-.71,1.58-.53-.53,3.13-1.12,2.91c-.35-.14-.55-1.09-.72-1.17s-7-2.18-7-2.18Z" style="fill:#6C63FF"></path><path d="M106.78,376.93a6,6,0,0,0-.85,2.43" style="fill:#263238"></path><path d="M97.62,366.74l6.78-2.23c.23-.06.42-1.42.75-1.49s1.84,2.59,1.26,2.84c-.34.16-1.16-.37-1.33-.31s-6.48,3.39-6.48,3.39Z" style="fill:#6C63FF"></path><path d="M105.31,363.26a6.07,6.07,0,0,0,1.12,2.33" style="fill:#263238"></path><path d="M101,374.51c-1.47,6.31-7.47,10.59-13.88,9.09-4.06-1-7.35-3.33-8.77-6.88a12,12,0,0,1-.36-7.27c1.77-7.58,8.35-10.78,14.63-9.31A11,11,0,0,1,96.69,362C100.77,364.91,102,370.26,101,374.51Z" style="fill:#6C63FF"></path><path d="M101,374.51c-1.47,6.31-7.47,10.59-13.88,9.09-4.06-1-7.35-3.33-8.77-6.88,2.8,2.22,8.59,5.77,14.39,3,8-3.81,7.48-13,4-17.77C100.77,364.91,102,370.26,101,374.51Z" style="opacity:0.1"></path><path d="M90.45,363.19H87.7l0-.3c.17-1.11.75-4.87.78-5.1s-1.28-1.08-1.2-1.46c0-.17.76-.33,1.54-.39.95-.08,2,0,2,.39s-.91,1-.93,1.24S90.45,363.19,90.45,363.19Z" style="fill:#6C63FF"></path><path d="M87.65,356.28a6.87,6.87,0,0,0,2.92-.09Z" style="fill:#263238"></path><path d="M87.75,362.89c.17-1.11.75-4.87.78-5.1s-1.28-1.08-1.2-1.46c0-.17.76-.33,1.54-.39a2,2,0,0,0-.73.32l-.06.08c0,.1,0,.19.07.3.26.29.85.63.87.92S87.8,362.73,87.75,362.89Z" style="opacity:0.1"></path><path d="M83.9,364.67,82,366.61a.44.44,0,0,0-.08-.1v0l-3.14-4.28c-.17-.21-1.68.13-1.89-.19s.85-1.55,1.65-2.2c.36-.3.68-.45.84-.29.31.3.08,1.38.22,1.54S83.9,364.67,83.9,364.67Z" style="fill:#6C63FF"></path><path d="M77,361.76a6.8,6.8,0,0,0,2-2.13Z" style="fill:#263238"></path><path d="M81.87,366.49l-3.14-4.28c-.17-.21-1.68.13-1.89-.19s.85-1.55,1.65-2.2a4.75,4.75,0,0,0-.73,1.17.81.81,0,0,0-.08.27c0,.12,0,.2.07.23.31.1,1-.14,1.28,0A56.65,56.65,0,0,1,81.87,366.49Z" style="opacity:0.1"></path><path d="M80.31,370.35v2.74h0l-5.39-.82c-.26,0-1.09,1.27-1.46,1.2s-.67-3-.15-3.47a.22.22,0,0,1,.15-.06c.43,0,1,.92,1.23.94C75,370.91,80.31,370.35,80.31,370.35Z" style="fill:#6C63FF"></path><path d="M73.4,373.14a6.86,6.86,0,0,0-.09-2.92Z" style="fill:#263238"></path><path d="M80.3,373.09l-5.39-.82c-.26,0-1.09,1.27-1.46,1.2s-.67-3-.15-3.47a2.64,2.64,0,0,0,.07,2.14,1.45,1.45,0,0,0,.12.22c.08.12.16.18.23.16.3-.07.78-.7,1.22-.67S80,373,80.3,373.09Z" style="opacity:0.1"></path><path d="M79.33,382.08c-.16.11,0,.94-.06,1.47,0,.2,0,.35-.13.41-.31.21-3-2-2.49-2.49.3-.31,1.38-.08,1.54-.22s1.53-1.79,2.52-3h0c.6-.73,1.07-1.32,1.07-1.32l1.94,1.94S79.54,381.91,79.33,382.08Z" style="fill:#6C63FF"></path><path d="M78.88,383.76a6.8,6.8,0,0,0-2.13-2Z" style="fill:#263238"></path><path d="M79.27,383.55c0,.2,0,.35-.13.41-.31.21-3-2-2.49-2.49.3-.31,1.38-.08,1.54-.22s1.53-1.79,2.52-3a26.71,26.71,0,0,1-2.2,3.41c-.25.11-.94.11-1,.45a.36.36,0,0,0,.06.22,3.17,3.17,0,0,0,.5.69,3.41,3.41,0,0,0,.66.62l.1.07c.12.08.23.11.29.08A.41.41,0,0,0,79.27,383.55Z" style="opacity:0.1"></path><path d="M90.59,387.35c0,.09-.24.18-.56.25-1,.23-3,.3-3-.25s.92-1,.94-1.24-.24-2.87-.41-4.45h0l-.12-1.17h2.74l-.83,5.4C89.35,386.15,90.66,387,90.59,387.35Z" style="fill:#6C63FF"></path><path d="M90.26,387.4a6.86,6.86,0,0,0-2.92.09Z" style="fill:#263238"></path><path d="M90,387.6c-1,.23-3,.3-3-.25s.92-1,.94-1.24-.24-2.87-.41-4.45c.3,1.47.87,4.34.83,4.46s-.74.91-.55,1.16a.16.16,0,0,0,.08.05,1.1,1.1,0,0,0,.4.13A9.14,9.14,0,0,0,90,387.6Z" style="opacity:0.1"></path><path d="M100.18,383.12c-.6.69-1.33,1.29-1.6,1s-.08-1.38-.21-1.54-3.22-2.7-4.11-3.41h0L94,379,96,377.07l3.23,4.4c.16.21,1.67-.13,1.89.18S100.73,382.5,100.18,383.12Z" style="fill:#6C63FF"></path><path d="M100.88,381.92a6.8,6.8,0,0,0-2,2.13Z" style="fill:#263238"></path><path d="M100.18,383.12c-.6.69-1.33,1.29-1.6,1s-.08-1.38-.21-1.54-3.22-2.7-4.11-3.41h0s4.58,2.9,4.62,3.15-.06,1.23.25,1.26a.34.34,0,0,0,.19,0A4,4,0,0,0,100.18,383.12Z" style="opacity:0.1"></path><path d="M104.47,373.74c-.23,0-.51-.26-.75-.51s-.4-.42-.49-.43c-.35,0-5.63.52-5.63.52v-2.73l1.11.17h0l4.27.65c.27,0,1.09-1.27,1.47-1.2S105.18,373.74,104.47,373.74Z" style="fill:#6C63FF"></path><path d="M104.52,370.54a6.86,6.86,0,0,0,.09,2.92Z" style="fill:#263238"></path><path d="M104.47,373.74c-.23,0-.51-.26-.75-.51.19,0,.45,0,.67,0a.26.26,0,0,0,.13-.08.54.54,0,0,0,.07-.17,2.89,2.89,0,0,0,0-1.3,1.48,1.48,0,0,0-.13-.39h0c0-.09-.1-.14-.15-.14-.35,0-1,.74-1.47.67s-2.74-.72-4.07-1.09l4.27.65c.27,0,1.09-1.27,1.47-1.2S105.18,373.74,104.47,373.74Z" style="opacity:0.1"></path><path d="M101.27,362.21c-.31.31-1.38.08-1.54.22s-3.61,4.35-3.61,4.35l-1.93-1.94.42-.31h0l4-2.93c.21-.16-.14-1.67.18-1.88s1,.42,1.61,1h0C101,361.32,101.51,362,101.27,362.21Z" style="fill:#6C63FF"></path><path d="M99,359.91a6.79,6.79,0,0,0,2.13,2Z" style="fill:#263238"></path><path d="M100.38,360.74a2.81,2.81,0,0,0-.79-.31l-.17,0c-.15,0-.26.07-.28.22-.07.4.18,1.13,0,1.36s-4.36,2.45-4.53,2.54l4-2.93c.21-.16-.14-1.67.18-1.88S99.72,360.14,100.38,360.74Z" style="opacity:0.1"></path><g style="opacity:0.1"><path d="M85.65,379.17c-.12.26-.56.3-1,.11s-.67-.56-.56-.82.56-.3,1-.11S85.77,378.92,85.65,379.17Z"></path><path d="M85.37,380.08a2.88,2.88,0,0,1-1.68-.8.88.88,0,0,1-.27-1c.18-.45.6-.44,1-.48,0,0,0,0,0,0-.71-.08-1.55.21-1.42,1.08.15,1,1.44,1.45,2.33,1.39C85.44,380.24,85.46,380.09,85.37,380.08Z"></path><path d="M87.26,364.62c0,.27-.44.57-1.06.65S85,365.2,85,364.92s.43-.57,1-.66S87.22,364.34,87.26,364.62Z"></path><path d="M85.65,365.86a2.54,2.54,0,0,1-.93-.3.7.7,0,0,1-.18-1,2.09,2.09,0,0,1,1.51-.82,0,0,0,0,0,0-.06c-.71,0-1.76.39-2,1.15-.3,1,.9,1.16,1.59,1.15C85.72,366,85.71,365.87,85.65,365.86Z"></path><path d="M96,368.15c0,.28-.39.49-.85.48s-.84-.25-.84-.53.4-.5.86-.48S96,367.86,96,368.15Z"></path><path d="M95.05,369.27a3.46,3.46,0,0,1-1.3-.65c-.67-.71.36-1.15.92-1.31a0,0,0,0,0,0-.05c-.61.05-1.54.43-1.4,1.19s1.15,1.07,1.78,1A.07.07,0,0,0,95.05,369.27Z"></path><path d="M82.47,376c0,.21-.31.38-.67.36s-.65-.21-.64-.43.32-.38.68-.36S82.48,375.81,82.47,376Z"></path><path d="M81.73,376.88a2.68,2.68,0,0,1-1-.53c-.5-.56.3-.88.74-1,0,0,0,0,0,0-.47,0-1.2.31-1.11.9s.87.85,1.37.78A.06.06,0,0,0,81.73,376.88Z"></path><path d="M98.15,376.3c0,.35-.36.71-.93.81s-1.09-.1-1.15-.44.36-.71.93-.81S98.09,376,98.15,376.3Z"></path><path d="M96.09,375.73s0,0,0,0c-.55.4-1.3,1.07-.76,1.8a1.62,1.62,0,0,0,2,.32c.06,0,0-.11,0-.11a2.64,2.64,0,0,1-1.47-.18C95,377.09,95.58,376.19,96.09,375.73Z"></path></g><path d="M370.27,111.56l8.84,6.42c.39.29,2.88-1.14,3.42-.69s-1.88,6.37-3,5.75c-.71-.37-.89-2.39-1.21-2.6-.55-.36-10.38-4.41-10.38-4.41Z" style="fill:#6C63FF"></path><path d="M382.34,117.86s-2.14,2.71-2.39,4.85" style="fill:#263238"></path><path d="M370.27,111.56l8.84,6.42c.39.29,2.88-1.14,3.42-.69s-1.88,6.37-3,5.75c-.71-.37-.89-2.39-1.21-2.6-.55-.36-10.38-4.41-10.38-4.41Z" style="opacity:0.1"></path><path d="M369.91,96.59l10.79-1.71c.49-.08,1.24-2.84,1.94-2.91s3.17,5.83,1.91,6.22c-.76.24-2.32-1.06-2.7-1-.64.13-10.46,4.21-10.46,4.21Z" style="fill:#6C63FF"></path><path d="M382.91,92.51s.4,3.42,1.73,5.11" style="fill:#263238"></path><path d="M369.91,96.59l10.79-1.71c.49-.08,1.24-2.84,1.94-2.91s3.17,5.83,1.91,6.22c-.76.24-2.32-1.06-2.7-1-.64.13-10.46,4.21-10.46,4.21Z" style="opacity:0.1"></path><path d="M359.08,86.25l6.42-8.84c.29-.4-1.14-2.88-.69-3.43s6.37,1.89,5.75,3.06c-.37.7-2.39.88-2.6,1.2-.36.55-4.42,10.38-4.42,10.38Z" style="fill:#6C63FF"></path><path d="M365.38,74.18s2.7,2.13,4.84,2.38" style="fill:#263238"></path><path d="M359.08,86.25l6.42-8.84c.29-.4-1.14-2.88-.69-3.43s6.37,1.89,5.75,3.06c-.37.7-2.39.88-2.6,1.2-.36.55-4.42,10.38-4.42,10.38Z" style="opacity:0.1"></path><path d="M344.1,86.6s-1.63-10.31-1.71-10.79-2.84-1.23-2.91-1.94,5.84-3.17,6.23-1.9c.24.76-1.07,2.32-1,2.69.14.64,4.22,10.46,4.22,10.46Z" style="fill:#6C63FF"></path><path d="M340,73.61s3.41-.41,5.11-1.74" style="fill:#263238"></path><path d="M344.1,86.6s-1.63-10.31-1.71-10.79-2.84-1.23-2.91-1.94,5.84-3.17,6.23-1.9c.24.76-1.07,2.32-1,2.69.14.64,4.22,10.46,4.22,10.46Z" style="opacity:0.1"></path><path d="M333.77,97.44,324.93,91c-.4-.29-2.88,1.13-3.43.69s1.88-6.37,3.05-5.76c.71.38.89,2.4,1.21,2.61.55.36,10.38,4.41,10.38,4.41Z" style="fill:#6C63FF"></path><path d="M321.69,91.13s2.14-2.7,2.39-4.84" style="fill:#263238"></path><path d="M333.77,97.44,324.93,91c-.4-.29-2.88,1.13-3.43.69s1.88-6.37,3.05-5.76c.71.38.89,2.4,1.21,2.61.55.36,10.38,4.41,10.38,4.41Z" style="opacity:0.1"></path><path d="M334.12,112.41l-10.79,1.71c-.49.08-1.24,2.84-1.94,2.91s-3.17-5.84-1.91-6.23c.77-.23,2.32,1.07,2.7,1,.64-.13,10.46-4.22,10.46-4.22Z" style="fill:#6C63FF"></path><path d="M321.13,116.49s-.41-3.42-1.74-5.11" style="fill:#263238"></path><path d="M334.12,112.41l-10.79,1.71c-.49.08-1.24,2.84-1.94,2.91s-3.17-5.84-1.91-6.23c.77-.23,2.32,1.07,2.7,1,.64-.13,10.46-4.22,10.46-4.22Z" style="opacity:0.1"></path><path d="M345,122.75l-6.42,8.84c-.29.39,1.14,2.88.69,3.43s-6.37-1.89-5.75-3.06c.37-.7,2.39-.89,2.6-1.21.36-.55,4.42-10.37,4.42-10.37Z" style="fill:#6C63FF"></path><path d="M338.65,134.82s-2.7-2.13-4.84-2.39" style="fill:#263238"></path><path d="M345,122.75l-6.42,8.84c-.29.39,1.14,2.88.69,3.43s-6.37-1.89-5.75-3.06c.37-.7,2.39-.89,2.6-1.21.36-.55,4.42-10.37,4.42-10.37Z" style="opacity:0.1"></path><path d="M359.93,122.4s1.63,10.3,1.71,10.79,2.84,1.23,2.91,1.93-5.84,3.17-6.23,1.91c-.23-.76,1.07-2.32,1-2.69-.14-.65-4.22-10.46-4.22-10.46Z" style="fill:#6C63FF"></path><path d="M364,135.39s-3.42.4-5.12,1.74" style="fill:#263238"></path><path d="M359.93,122.4s1.63,10.3,1.71,10.79,2.84,1.23,2.91,1.93-5.84,3.17-6.23,1.91c-.23-.76,1.07-2.32,1-2.69-.14-.65-4.22-10.46-4.22-10.46Z" style="opacity:0.1"></path><path d="M371.87,109.3s13,6.55,13.41,6.79,2.73-1.48,3.33-1.1-1.11,6.58-2.35,6.1c-.75-.28-1.18-2.28-1.52-2.45-.59-.29-14.7-4.59-14.7-4.59Z" style="fill:#6C63FF"></path><path d="M388.49,115.58s-1.8,3-1.8,5.12" style="fill:#263238"></path><path d="M369.2,94.13s13.8-4.55,14.28-4.68.88-3,1.58-3.14,3.86,5.45,2.65,6c-.73.32-2.44-.79-2.81-.66-.62.21-13.64,7.14-13.64,7.14Z" style="fill:#6C63FF"></path><path d="M385.39,86.82s.81,3.37,2.35,4.9" style="fill:#263238"></path><path d="M356.59,85.29s6.54-13,6.78-13.4-1.48-2.74-1.1-3.34,6.58,1.12,6.1,2.36c-.28.75-2.28,1.17-2.45,1.52-.29.59-4.59,14.69-4.59,14.69Z" style="fill:#6C63FF"></path><path d="M362.86,68.68s3,1.8,5.12,1.8" style="fill:#263238"></path><path d="M341.42,88s-4.55-13.81-4.69-14.28-3-.89-3.13-1.58,5.44-3.86,6-2.65c.33.73-.78,2.44-.66,2.81.21.62,7.14,13.64,7.14,13.64Z" style="fill:#6C63FF"></path><path d="M334.11,71.78s3.36-.81,4.89-2.35" style="fill:#263238"></path><path d="M332.58,100.58s-13-6.54-13.41-6.78-2.73,1.48-3.33,1.1,1.11-6.58,2.35-6.11c.75.29,1.18,2.28,1.52,2.46.59.29,14.7,4.59,14.7,4.59Z" style="fill:#6C63FF"></path><path d="M316,94.3s1.81-3,1.8-5.11" style="fill:#263238"></path><path d="M335.25,115.75s-13.8,4.55-14.28,4.68-.88,3-1.58,3.14-3.86-5.44-2.65-6c.73-.33,2.44.78,2.81.66.62-.21,13.64-7.14,13.64-7.14Z" style="fill:#6C63FF"></path><path d="M319.06,123.06s-.81-3.36-2.34-4.89" style="fill:#263238"></path><path d="M347.86,124.59s-6.54,13-6.78,13.41,1.48,2.73,1.1,3.33-6.58-1.11-6.1-2.36c.28-.74,2.28-1.17,2.45-1.51.29-.59,4.59-14.7,4.59-14.7Z" style="fill:#6C63FF"></path><path d="M341.59,141.2s-2.95-1.8-5.12-1.79" style="fill:#263238"></path><path d="M363,121.92s4.54,13.8,4.68,14.27,3,.89,3.13,1.58-5.44,3.87-6,2.66c-.33-.74.78-2.45.66-2.81-.21-.63-7.14-13.64-7.14-13.64Z" style="fill:#6C63FF"></path><path d="M370.34,138.11s-3.36.81-4.89,2.34" style="fill:#263238"></path><path d="M376.92,111.39c-3.6,15.36-18.83,20.32-30.24,17.64a26.31,26.31,0,0,1-12.52-6.86,23.5,23.5,0,0,1-6.62-22.36c3.16-13.49,13.86-23,29.79-19.21a27.68,27.68,0,0,1,12.18,6.09C376.51,92.88,379.06,102.29,376.92,111.39Z" style="fill:#6C63FF"></path><path d="M376.92,111.39c-3.6,15.36-18.83,20.32-30.24,17.64a26.31,26.31,0,0,1-12.52-6.86c6.69,3.18,15.15,5,23.61,1C374,115.46,375,98.23,369.51,86.69,376.51,92.88,379.06,102.29,376.92,111.39Z" style="opacity:0.1"></path><path d="M370.5,106.82v-5.77l.64.1,10.72,1.64c.55.08,2.29-2.69,3.08-2.53.35.08.69,1.61.82,3.25.17,2,0,4.17-.82,4.17s-2.17-1.93-2.61-2C381.59,105.65,370.5,106.82,370.5,106.82Z" style="fill:#6C63FF"></path><path d="M385.05,100.94s-.7,3.86.18,6.15Z" style="fill:#263238"></path><path d="M371.14,101.15l10.72,1.64c.55.08,2.29-2.69,3.08-2.53.35.08.69,1.61.82,3.25a4.1,4.1,0,0,0-.68-1.53.64.64,0,0,0-.17-.13c-.2-.12-.4-.06-.63.14-.6.54-1.32,1.79-1.94,1.83S371.46,101.25,371.14,101.15Z" style="opacity:0.1"></path><path d="M367.37,93,363.3,89a2,2,0,0,0,.21-.16l0,0,9-6.62c.45-.33-.28-3.51.4-4,.45-.31,3.27,1.78,4.63,3.47.62.76,1,1.44.61,1.78-.63.64-2.9.16-3.23.44C374.39,84.35,367.37,93,367.37,93Z" style="fill:#6C63FF"></path><path d="M373.51,78.59s2.24,3.22,4.48,4.21Z" style="fill:#263238"></path><path d="M363.55,88.77l9-6.62c.45-.33-.28-3.51.4-4,.45-.31,3.27,1.78,4.63,3.47a10.43,10.43,0,0,0-2.45-1.55,2.79,2.79,0,0,0-.57-.16c-.26,0-.44,0-.49.14-.21.65.29,2.06-.09,2.71S364.25,88.4,363.55,88.77Z" style="opacity:0.1"></path><path d="M355.42,85.49h-5.76v0c.09-.63,1.65-10.8,1.73-11.34s-2.69-2.28-2.53-3.07,6.33-1.4,7.29-.31a.42.42,0,0,1,.13.31c0,.9-1.93,2.17-2,2.6C354.25,74.4,355.42,85.49,355.42,85.49Z" style="fill:#6C63FF"></path><path d="M349.55,70.94s3.86.7,6.15-.19Z" style="fill:#263238"></path><path d="M349.67,85.46c.09-.63,1.65-10.8,1.73-11.34s-2.69-2.28-2.53-3.07,6.33-1.4,7.29-.31a5.57,5.57,0,0,0-4.49.13,3.43,3.43,0,0,0-.48.27c-.23.17-.36.34-.33.48.14.64,1.48,1.63,1.42,2.56S349.82,84.85,349.67,85.46Z" style="opacity:0.1"></path><path d="M330.75,83.42c-.23-.33-2,0-3.1-.11a1.15,1.15,0,0,1-.86-.28c-.44-.67,4.18-6.31,5.25-5.25.65.64.17,2.91.44,3.24s3.78,3.22,6.36,5.32h0c1.54,1.27,2.77,2.26,2.77,2.26l-4.08,4.07S331.09,83.87,330.75,83.42Z" style="fill:#6C63FF"></path><path d="M327.2,82.47s3.22-2.23,4.21-4.48Z" style="fill:#263238"></path><path d="M327.65,83.31a1.15,1.15,0,0,1-.86-.28c-.44-.67,4.18-6.31,5.25-5.25.65.64.17,2.91.44,3.24s3.78,3.22,6.36,5.32c-2.66-1.5-7-4.25-7.17-4.64s-.24-2-.94-2.11a.8.8,0,0,0-.46.12,7.73,7.73,0,0,0-1.47,1.06,8.6,8.6,0,0,0-1.3,1.38l-.15.21c-.16.27-.23.49-.16.63A.94.94,0,0,0,327.65,83.31Z" style="opacity:0.1"></path><path d="M319.65,107.11c-.18,0-.37-.49-.52-1.16-.48-2.09-.62-6.25.52-6.26.91,0,2.18,1.94,2.61,2s6.05-.5,9.36-.85h0l2.46-.25v5.76l-11.36-1.74C322.18,104.51,320.45,107.27,319.65,107.11Z" style="fill:#6C63FF"></path><path d="M319.55,106.43s.7-3.86-.19-6.14Z" style="fill:#263238"></path><path d="M319.13,106c-.48-2.09-.62-6.25.52-6.26.91,0,2.18,1.94,2.61,2s6.05-.5,9.36-.85c-3.09.63-9.12,1.83-9.38,1.75s-1.9-1.56-2.44-1.16a.5.5,0,0,0-.11.16,2.85,2.85,0,0,0-.27.84A18.8,18.8,0,0,0,319.13,106Z" style="opacity:0.1"></path><path d="M328.55,127.31c-1.44-1.27-2.71-2.81-2.16-3.37s2.9-.16,3.23-.44c.5-.42,5.68-6.79,7.18-8.65h0l.41-.51,4.07,4.08L332,125.23c-.45.33.28,3.51-.39,4C331.32,129.4,329.87,128.47,328.55,127.31Z" style="fill:#6C63FF"></path><path d="M331.08,128.79s-2.23-3.23-4.48-4.22Z" style="fill:#263238"></path><path d="M328.55,127.31c-1.44-1.27-2.71-2.81-2.16-3.37s2.9-.16,3.23-.44c.5-.42,5.68-6.79,7.18-8.65h0s-6.11,9.64-6.64,9.72-2.58-.13-2.66.52a1,1,0,0,0,.07.41A9.25,9.25,0,0,0,328.55,127.31Z" style="opacity:0.1"></path><path d="M348.3,136.33c0-.48.55-1.06,1.06-1.57s.9-.84.91-1c.07-.74-1.1-11.83-1.1-11.83h5.76s-.15,1-.35,2.33a.06.06,0,0,1,0,0c-.5,3.21-1.33,8.61-1.38,9-.07.56,2.69,2.29,2.53,3.08S348.3,137.84,348.3,136.33Z" style="fill:#6C63FF"></path><path d="M355,136.44s-3.86-.7-6.15.19Z" style="fill:#263238"></path><path d="M348.3,136.33c0-.48.55-1.06,1.06-1.57a12.74,12.74,0,0,0-.05,1.42.41.41,0,0,0,.16.26,1.06,1.06,0,0,0,.37.16,6.43,6.43,0,0,0,2.74-.09,3.47,3.47,0,0,0,.81-.27h0c.18-.11.29-.22.29-.33,0-.74-1.57-2-1.41-3.09.12-.75,1.51-5.77,2.29-8.56-.5,3.21-1.33,8.61-1.38,9-.07.56,2.69,2.29,2.53,3.08S348.3,137.84,348.3,136.33Z" style="opacity:0.1"></path><path d="M372.55,129.6c-.65-.64-.16-2.91-.44-3.24-.48-.58-9.16-7.6-9.16-7.6l4.08-4.07.65.89h0c1.65,2.26,5.88,8,6.15,8.37s3.51-.29,4,.39c.23.34-.88,2-2.15,3.37h0C374.44,129,373.07,130.11,372.55,129.6Z" style="fill:#6C63FF"></path><path d="M377.39,124.91s-3.22,2.23-4.21,4.48Z" style="fill:#263238"></path><path d="M375.65,127.72a5.54,5.54,0,0,0,.65-1.65,1.11,1.11,0,0,0,0-.35c0-.33-.13-.56-.45-.61-.84-.15-2.38.38-2.87,0s-5.15-9.16-5.33-9.52c1.65,2.26,5.88,8,6.15,8.37s3.51-.29,4,.39C378,124.69,376.92,126.34,375.65,127.72Z" style="opacity:0.1"></path><g style="opacity:0.1"><path d="M354.77,119.64c-.25.54-1.17.64-2.06.23s-1.42-1.18-1.17-1.72,1.17-.63,2.06-.22S355,119.11,354.77,119.64Z"></path><path d="M354.17,121.56a6,6,0,0,1-3.52-1.68,1.86,1.86,0,0,1-.57-2.07c.37-1,1.27-.92,2.14-1,0,0,.06-.08,0-.08-1.5-.17-3.27.45-3,2.27.32,2.16,3,3.06,4.91,2.92C354.33,121.89,354.38,121.59,354.17,121.56Z"></path><path d="M351.76,90.23c-.06.59-1.18,1-2.49.81S347,90.3,347,89.72s1.18-1,2.49-.81S351.82,89.65,351.76,90.23Z"></path><path d="M347.85,92a5.46,5.46,0,0,1-1.75-1.08,1.46,1.46,0,0,1,.14-2.16,4.47,4.47,0,0,1,3.51-.92c.08,0,.08-.1,0-.11-1.46-.27-3.79-.1-4.64,1.33-1.1,1.85,1.26,2.84,2.67,3.17C347.93,92.23,348,92,347.85,92Z"></path><path d="M339.7,109.41c0,.59-.83,1-1.81,1s-1.77-.53-1.75-1.12.82-1,1.8-1S339.71,108.82,339.7,109.41Z"></path><path d="M337.74,111.78a7.26,7.26,0,0,1-2.75-1.37c-1.4-1.49.76-2.41,1.94-2.76a.05.05,0,0,0,0-.1c-1.28.11-3.24.9-3,2.5s2.42,2.26,3.76,2A.16.16,0,0,0,337.74,111.78Z"></path><path d="M343.55,103c.1.45-.43.94-1.18,1.09s-1.42-.08-1.52-.53.44-.94,1.19-1.09S343.46,102.56,343.55,103Z"></path><path d="M342.49,105.14a5.94,5.94,0,0,1-2.32-.55c-1.32-.89.15-2,1-2.43a0,0,0,0,0,0-.07c-.94.31-2.28,1.24-1.79,2.41s2.23,1.27,3.19.87A.12.12,0,0,0,342.49,105.14Z"></path><path d="M370.85,104.74c.13.72-.75,1.48-2,1.69s-2.28-.21-2.41-.93.75-1.48,1.95-1.69S370.72,104,370.85,104.74Z"></path><path d="M366.53,103.53s0-.08,0,0c-1.14.86-2.74,2.26-1.6,3.8a3.44,3.44,0,0,0,4.3.68.13.13,0,0,0-.08-.23,5.9,5.9,0,0,1-3.11-.39C364.15,106.39,365.45,104.49,366.53,103.53Z"></path></g><path d="M156.68,273.21l8.84,6.42c.39.29,2.88-1.14,3.42-.69s-1.88,6.37-3.05,5.75c-.71-.37-.89-2.39-1.21-2.6-.55-.36-10.37-4.42-10.37-4.42Z" style="fill:#6C63FF"></path><path d="M168.75,279.51s-2.13,2.7-2.39,4.84" style="fill:#263238"></path><path d="M156.68,273.21l8.84,6.42c.39.29,2.88-1.14,3.42-.69s-1.88,6.37-3.05,5.75c-.71-.37-.89-2.39-1.21-2.6-.55-.36-10.37-4.42-10.37-4.42Z" style="opacity:0.1"></path><path d="M156.33,258.23l10.79-1.71c.48-.07,1.23-2.84,1.93-2.91s3.17,5.84,1.91,6.23c-.76.24-2.32-1.06-2.69-1-.65.14-10.46,4.22-10.46,4.22Z" style="fill:#6C63FF"></path><path d="M169.32,254.16s.4,3.42,1.74,5.11" style="fill:#263238"></path><path d="M156.33,258.23l10.79-1.71c.48-.07,1.23-2.84,1.93-2.91s3.17,5.84,1.91,6.23c-.76.24-2.32-1.06-2.69-1-.65.14-10.46,4.22-10.46,4.22Z" style="opacity:0.1"></path><path d="M145.49,247.9l6.42-8.84c.29-.4-1.14-2.88-.69-3.43s6.37,1.88,5.75,3.06c-.37.7-2.39.88-2.6,1.2-.36.55-4.41,10.38-4.41,10.38Z" style="fill:#6C63FF"></path><path d="M151.79,235.83s2.7,2.13,4.85,2.38" style="fill:#263238"></path><path d="M145.49,247.9l6.42-8.84c.29-.4-1.14-2.88-.69-3.43s6.37,1.88,5.75,3.06c-.37.7-2.39.88-2.6,1.2-.36.55-4.41,10.38-4.41,10.38Z" style="opacity:0.1"></path><path d="M130.52,248.25s-1.64-10.31-1.71-10.79-2.85-1.23-2.92-1.94,5.84-3.17,6.23-1.9c.24.76-1.06,2.31-1,2.69.13.64,4.21,10.46,4.21,10.46Z" style="fill:#6C63FF"></path><path d="M126.44,235.26s3.42-.41,5.11-1.74" style="fill:#263238"></path><path d="M130.52,248.25s-1.64-10.31-1.71-10.79-2.85-1.23-2.92-1.94,5.84-3.17,6.23-1.9c.24.76-1.06,2.31-1,2.69.13.64,4.21,10.46,4.21,10.46Z" style="opacity:0.1"></path><path d="M120.18,259.09l-8.84-6.43c-.4-.28-2.88,1.14-3.43.69S109.8,247,111,247.6c.7.37.88,2.4,1.2,2.6.55.36,10.38,4.42,10.38,4.42Z" style="fill:#6C63FF"></path><path d="M108.11,252.78s2.13-2.7,2.38-4.84" style="fill:#263238"></path><path d="M120.18,259.09l-8.84-6.43c-.4-.28-2.88,1.14-3.43.69S109.8,247,111,247.6c.7.37.88,2.4,1.2,2.6.55.36,10.38,4.42,10.38,4.42Z" style="opacity:0.1"></path><path d="M120.53,274.06l-10.79,1.71c-.49.07-1.23,2.84-1.94,2.91s-3.17-5.84-1.9-6.23c.76-.23,2.32,1.07,2.69,1,.64-.14,10.46-4.22,10.46-4.22Z" style="fill:#6C63FF"></path><path d="M107.54,278.14s-.41-3.42-1.74-5.12" style="fill:#263238"></path><path d="M120.53,274.06l-10.79,1.71c-.49.07-1.23,2.84-1.94,2.91s-3.17-5.84-1.9-6.23c.76-.23,2.32,1.07,2.69,1,.64-.14,10.46-4.22,10.46-4.22Z" style="opacity:0.1"></path><path d="M131.37,284.4s-6.14,8.44-6.42,8.84,1.13,2.88.69,3.42-6.37-1.88-5.76-3.05c.38-.71,2.4-.89,2.61-1.21.36-.55,4.41-10.38,4.41-10.38Z" style="fill:#6C63FF"></path><path d="M125.06,296.47s-2.7-2.13-4.84-2.39" style="fill:#263238"></path><path d="M131.37,284.4s-6.14,8.44-6.42,8.84,1.13,2.88.69,3.42-6.37-1.88-5.76-3.05c.38-.71,2.4-.89,2.61-1.21.36-.55,4.41-10.38,4.41-10.38Z" style="opacity:0.1"></path><path d="M146.34,284s1.63,10.31,1.71,10.8,2.84,1.23,2.91,1.93-5.84,3.17-6.23,1.91c-.23-.76,1.07-2.32,1-2.7-.13-.64-4.22-10.46-4.22-10.46Z" style="fill:#6C63FF"></path><path d="M150.42,297s-3.42.4-5.11,1.73" style="fill:#263238"></path><path d="M146.34,284s1.63,10.31,1.71,10.8,2.84,1.23,2.91,1.93-5.84,3.17-6.23,1.91c-.23-.76,1.07-2.32,1-2.7-.13-.64-4.22-10.46-4.22-10.46Z" style="opacity:0.1"></path><path d="M158.29,271s13,6.54,13.4,6.78,2.74-1.48,3.34-1.1-1.12,6.59-2.36,6.11c-.75-.29-1.17-2.28-1.52-2.45-.59-.29-14.69-4.6-14.69-4.6Z" style="fill:#6C63FF"></path><path d="M174.9,277.23s-1.8,2.95-1.8,5.12" style="fill:#263238"></path><path d="M155.62,255.78s13.8-4.55,14.27-4.68.89-3,1.58-3.14,3.87,5.44,2.65,6c-.73.32-2.44-.79-2.8-.66-.63.21-13.65,7.14-13.65,7.14Z" style="fill:#6C63FF"></path><path d="M171.8,248.47s.81,3.36,2.35,4.89" style="fill:#263238"></path><path d="M143,246.94s6.54-13,6.78-13.4-1.48-2.74-1.1-3.34,6.58,1.12,6.11,2.36c-.29.75-2.28,1.17-2.45,1.52-.3.59-4.6,14.69-4.6,14.69Z" style="fill:#6C63FF"></path><path d="M149.28,230.33s2.95,1.8,5.11,1.8" style="fill:#263238"></path><path d="M127.83,249.61s-4.55-13.8-4.68-14.27-3-.89-3.14-1.58,5.44-3.87,6-2.65c.33.73-.78,2.44-.66,2.8.21.63,7.15,13.64,7.15,13.64Z" style="fill:#6C63FF"></path><path d="M120.52,233.43s3.36-.82,4.89-2.35" style="fill:#263238"></path><path d="M119,262.23s-13-6.54-13.4-6.78-2.74,1.48-3.34,1.1,1.11-6.58,2.36-6.11c.74.29,1.17,2.28,1.51,2.45.6.3,14.7,4.6,14.7,4.6Z" style="fill:#6C63FF"></path><path d="M102.38,256s1.8-2.95,1.8-5.12" style="fill:#263238"></path><path d="M121.66,277.4s-13.8,4.55-14.27,4.68-.89,3-1.58,3.14-3.87-5.44-2.65-6c.73-.33,2.44.78,2.8.66.63-.22,13.64-7.15,13.64-7.15Z" style="fill:#6C63FF"></path><path d="M105.48,284.71s-.82-3.36-2.35-4.89" style="fill:#263238"></path><path d="M134.28,286.24s-6.55,13-6.79,13.4,1.49,2.74,1.11,3.34-6.59-1.12-6.11-2.36c.29-.75,2.28-1.17,2.45-1.51.29-.6,4.6-14.7,4.6-14.7Z" style="fill:#6C63FF"></path><path d="M128,302.85s-3-1.8-5.12-1.8" style="fill:#263238"></path><path d="M149.45,283.57s4.55,13.8,4.68,14.27,3,.89,3.14,1.58-5.45,3.87-6,2.65c-.32-.73.79-2.44.66-2.8-.21-.63-7.14-13.64-7.14-13.64Z" style="fill:#6C63FF"></path><path d="M156.76,299.75s-3.37.82-4.89,2.35" style="fill:#263238"></path><path d="M163.33,273c-3.6,15.36-18.82,20.32-30.24,17.64a25.88,25.88,0,0,1-17.17-13.15,23.23,23.23,0,0,1-2-16.07c3.17-13.49,13.86-22.95,29.8-19.21a28.11,28.11,0,0,1,11.17,5.25C162.68,253.66,165.57,263.52,163.33,273Z" style="fill:#6C63FF"></path><path d="M163.33,273c-3.6,15.36-18.82,20.32-30.24,17.64a25.88,25.88,0,0,1-17.17-13.15c6.25,4.68,17.77,11,29.31,5.53,15.91-7.54,15.89-25.07,9.69-35.56C162.68,253.66,165.57,263.52,163.33,273Z" style="opacity:0.1"></path><path d="M156.91,268.47V262.7l.64.1c2.33.35,10.25,1.57,10.72,1.63s2.29-2.68,3.08-2.52c.35.08.69,1.61.83,3.25.16,2,0,4.17-.83,4.17s-2.17-1.93-2.61-2C168,267.29,156.91,268.47,156.91,268.47Z" style="fill:#6C63FF"></path><path d="M171.46,262.59s-.7,3.86.19,6.15Z" style="fill:#263238"></path><path d="M157.55,262.8c2.33.35,10.25,1.57,10.72,1.63s2.29-2.68,3.08-2.52c.35.08.69,1.61.83,3.25a4.24,4.24,0,0,0-.69-1.53.57.57,0,0,0-.16-.13c-.21-.12-.41-.06-.64.14-.6.53-1.32,1.79-1.94,1.83S157.87,262.9,157.55,262.8Z" style="opacity:0.1"></path><path d="M153.79,254.68l-4.08-4.07a2,2,0,0,0,.21-.16l.05,0,9-6.62c.44-.34-.28-3.52.39-4,.46-.31,3.27,1.78,4.63,3.46.63.77.95,1.45.61,1.78-.63.64-2.9.17-3.23.45C160.81,246,153.79,254.68,153.79,254.68Z" style="fill:#6C63FF"></path><path d="M159.93,240.24s2.23,3.22,4.48,4.21Z" style="fill:#263238"></path><path d="M150,250.42l9-6.62c.44-.34-.28-3.52.39-4,.46-.31,3.27,1.78,4.63,3.46a9.87,9.87,0,0,0-2.45-1.54,2.79,2.79,0,0,0-.57-.16c-.26,0-.44,0-.49.14-.21.65.29,2.06-.09,2.71S150.67,250.05,150,250.42Z" style="opacity:0.1"></path><path d="M141.83,247.14h-5.76v0c.09-.63,1.65-10.8,1.73-11.34s-2.68-2.29-2.52-3.07,6.32-1.4,7.29-.31a.45.45,0,0,1,.12.31c0,.9-1.93,2.17-2,2.6C140.66,236.05,141.83,247.14,141.83,247.14Z" style="fill:#6C63FF"></path><path d="M136,232.59s3.86.7,6.15-.19Z" style="fill:#263238"></path><path d="M136.08,247.11c.09-.63,1.65-10.8,1.73-11.34s-2.68-2.29-2.52-3.07,6.32-1.4,7.29-.31a5.55,5.55,0,0,0-4.5.13,2.8,2.8,0,0,0-.47.27c-.24.17-.37.34-.34.47.14.65,1.48,1.64,1.43,2.57S136.23,246.5,136.08,247.11Z" style="opacity:0.1"></path><path d="M117.17,245.07c-.24-.33-2,0-3.11-.11a1.15,1.15,0,0,1-.86-.28c-.44-.67,4.19-6.31,5.25-5.25.65.64.17,2.9.45,3.24s3.78,3.21,6.36,5.31l0,0c1.55,1.27,2.77,2.25,2.77,2.25L124,254.33Z" style="fill:#6C63FF"></path><path d="M113.61,244.12s3.22-2.23,4.21-4.48Z" style="fill:#263238"></path><path d="M114.06,245a1.15,1.15,0,0,1-.86-.28c-.44-.67,4.19-6.31,5.25-5.25.65.64.17,2.9.45,3.24s3.78,3.21,6.36,5.31c-2.67-1.49-7-4.25-7.17-4.63-.25-.54-.25-2-1-2.11a.8.8,0,0,0-.46.12,7.3,7.3,0,0,0-1.47,1.06,8.2,8.2,0,0,0-1.3,1.38,1.09,1.09,0,0,0-.14.21c-.17.27-.24.49-.16.63A.86.86,0,0,0,114.06,245Z" style="opacity:0.1"></path><path d="M106.07,268.76c-.19,0-.38-.5-.53-1.16-.48-2.09-.62-6.25.53-6.26.91,0,2.17,1.94,2.6,2s6-.5,9.37-.85h0l2.47-.25V268l-11.37-1.74C108.6,266.16,106.86,268.92,106.07,268.76Z" style="fill:#6C63FF"></path><path d="M106,268.08s.7-3.86-.19-6.15Z" style="fill:#263238"></path><path d="M105.54,267.6c-.48-2.09-.62-6.25.53-6.26.91,0,2.17,1.94,2.6,2s6-.5,9.37-.85c-3.1.63-9.12,1.82-9.39,1.75s-1.9-1.56-2.43-1.16a.4.4,0,0,0-.12.16,2.61,2.61,0,0,0-.26.84A18.92,18.92,0,0,0,105.54,267.6Z" style="opacity:0.1"></path><path d="M115,289c-1.45-1.28-2.72-2.81-2.16-3.37s2.9-.17,3.23-.44c.49-.42,5.67-6.79,7.18-8.65h0l.41-.51,4.07,4.08-9.26,6.8c-.45.34.28,3.52-.39,4C117.73,291.05,116.28,290.11,115,289Z" style="fill:#6C63FF"></path><path d="M117.49,290.43s-2.23-3.22-4.48-4.21Z" style="fill:#263238"></path><path d="M115,289c-1.45-1.28-2.72-2.81-2.16-3.37s2.9-.17,3.23-.44c.49-.42,5.67-6.79,7.18-8.65h0s-6.11,9.64-6.64,9.72-2.58-.13-2.65.52a.92.92,0,0,0,.06.41A8.79,8.79,0,0,0,115,289Z" style="opacity:0.1"></path><path d="M134.71,298c0-.48.55-1.07,1.07-1.57s.89-.84.91-1c.06-.74-1.11-11.84-1.11-11.84h5.76s-.15,1-.35,2.34c0,0,0,0,0,0-.5,3.22-1.32,8.62-1.37,9-.08.55,2.68,2.29,2.53,3.08S134.71,299.49,134.71,298Z" style="fill:#6C63FF"></path><path d="M141.45,298.09s-3.86-.7-6.15.18Z" style="fill:#263238"></path><path d="M134.71,298c0-.48.55-1.07,1.07-1.57a9.16,9.16,0,0,0-.05,1.41.34.34,0,0,0,.16.27,1.54,1.54,0,0,0,.36.16,6.43,6.43,0,0,0,2.74-.09,3,3,0,0,0,.81-.28h0c.18-.1.29-.21.29-.33,0-.73-1.57-2-1.4-3.08.11-.75,1.51-5.77,2.28-8.57-.5,3.22-1.32,8.62-1.37,9-.08.55,2.68,2.29,2.53,3.08S134.71,299.49,134.71,298Z" style="opacity:0.1"></path><path d="M159,291.24c-.65-.64-.17-2.9-.45-3.24-.48-.57-9.15-7.59-9.15-7.59l4.07-4.07.65.89h0l6.15,8.37c.34.44,3.52-.29,4,.39.23.33-.87,2-2.15,3.37h0C160.85,290.69,159.48,291.76,159,291.24Z" style="fill:#6C63FF"></path><path d="M163.81,286.55s-3.23,2.24-4.22,4.48Z" style="fill:#263238"></path><path d="M162.06,289.37a5.54,5.54,0,0,0,.65-1.65.93.93,0,0,0,0-.36c0-.33-.13-.55-.44-.6-.85-.15-2.39.38-2.88,0s-5.15-9.17-5.33-9.52l6.15,8.37c.34.44,3.52-.29,4,.39C164.44,286.33,163.34,288,162.06,289.37Z" style="opacity:0.1"></path><g style="opacity:0.1"><path d="M133.38,281.09c-.25.53-1.17.64-2.07.22s-1.41-1.18-1.16-1.71,1.17-.64,2.06-.23S133.62,280.55,133.38,281.09Z"></path><path d="M132.78,283a6,6,0,0,1-3.53-1.67,1.89,1.89,0,0,1-.57-2.07c.38-1,1.27-.93,2.15-1,0,0,.06-.08,0-.09-1.5-.17-3.28.45-3,2.28.32,2.15,3,3.05,4.91,2.91C132.94,283.34,133,283,132.78,283Z"></path><path d="M142.5,251.42c-.07.58-1.18.94-2.49.8s-2.32-.73-2.26-1.32,1.18-1,2.49-.81S142.56,250.83,142.5,251.42Z"></path><path d="M138.59,253.15a5.46,5.46,0,0,1-1.75-1.08,1.45,1.45,0,0,1,.13-2.15,4.42,4.42,0,0,1,3.52-.92.06.06,0,0,0,0-.12c-1.46-.27-3.79-.1-4.64,1.33-1.1,1.86,1.25,2.84,2.67,3.17C138.67,253.41,138.7,253.2,138.59,253.15Z"></path><path d="M153.85,265.24c0,.59-.83,1.05-1.81,1s-1.77-.53-1.75-1.12.82-1,1.81-1S153.86,264.65,153.85,265.24Z"></path><path d="M151.89,267.61a7.26,7.26,0,0,1-2.75-1.37c-1.4-1.49.76-2.41,1.94-2.76a.05.05,0,0,0,0-.1c-1.28.11-3.23.9-3,2.5s2.43,2.26,3.76,2A.16.16,0,0,0,151.89,267.61Z"></path><path d="M125.12,266.78c.1.45-.43.93-1.18,1.09s-1.43-.09-1.52-.54.44-.93,1.19-1.09S125,266.33,125.12,266.78Z"></path><path d="M124.06,268.91a5.77,5.77,0,0,1-2.32-.55c-1.32-.88.15-2,1-2.43a0,0,0,1,0,0-.07c-.94.31-2.28,1.25-1.79,2.41s2.22,1.28,3.19.87A.12.12,0,0,0,124.06,268.91Z"></path><path d="M160.71,269.74c.13.72-.74,1.48-2,1.69s-2.28-.21-2.41-.93.75-1.48,2-1.69S160.59,269,160.71,269.74Z"></path><path d="M156.4,268.53s0-.07,0,0c-1.14.86-2.74,2.26-1.59,3.8a3.43,3.43,0,0,0,4.3.68c.11-.07,0-.24-.09-.23a5.9,5.9,0,0,1-3.11-.39C154,271.39,155.31,269.49,156.4,268.53Z"></path></g><path d="M336.59,295.66l6.63-15.85c.3-.71-2.78-4-2.29-5s10.43.59,9.91,2.6c-.32,1.22-3.34,2.23-3.55,2.79-.35,1-3,17.48-3,17.48Z" style="fill:#6C63FF"></path><path d="M341.88,274.91s4.9,2.28,8.27,1.9" style="fill:#263238"></path><path d="M336.59,295.66l6.63-15.85c.3-.71-2.78-4-2.29-5s10.43.59,9.91,2.6c-.32,1.22-3.34,2.23-3.55,2.79-.35,1-3,17.48-3,17.48Z" style="opacity:0.1"></path><path d="M313.79,301.61s-6.22-15.19-6.52-15.9-4.79-.86-5.15-1.91,7.79-7,8.84-5.17c.64,1.08-.79,3.93-.53,4.48.44.93,10.23,14.49,10.23,14.49Z" style="fill:#6C63FF"></path><path d="M302.85,283.19s5.09-1.85,7.2-4.5" style="fill:#263238"></path><path d="M313.79,301.61s-6.22-15.19-6.52-15.9-4.79-.86-5.15-1.91,7.79-7,8.84-5.17c.64,1.08-.79,3.93-.53,4.48.44.93,10.23,14.49,10.23,14.49Z" style="opacity:0.1"></path><path d="M301.88,321.94,286,315.3c-.71-.3-4,2.78-5,2.29s.58-10.43,2.6-9.91c1.21.32,2.22,3.35,2.78,3.55,1,.35,17.49,3,17.49,3Z" style="fill:#6C63FF"></path><path d="M281.12,316.64s2.29-4.9,1.9-8.27" style="fill:#263238"></path><path d="M301.88,321.94,286,315.3c-.71-.3-4,2.78-5,2.29s.58-10.43,2.6-9.91c1.21.32,2.22,3.35,2.78,3.55,1,.35,17.49,3,17.49,3Z" style="opacity:0.1"></path><path d="M307.82,344.73l-15.9,6.52c-.71.29-.86,4.79-1.91,5.15s-7-7.79-5.17-8.84c1.08-.64,3.94.79,4.48.53.94-.43,14.49-10.23,14.49-10.23Z" style="fill:#6C63FF"></path><path d="M289.41,355.67s-1.86-5.09-4.51-7.2" style="fill:#263238"></path><path d="M307.82,344.73l-15.9,6.52c-.71.29-.86,4.79-1.91,5.15s-7-7.79-5.17-8.84c1.08-.64,3.94.79,4.48.53.94-.43,14.49-10.23,14.49-10.23Z" style="opacity:0.1"></path><path d="M328.15,356.64l-6.64,15.86c-.3.71,2.78,4,2.3,5s-10.44-.58-9.92-2.6c.32-1.21,3.35-2.22,3.55-2.78.36-1,3-17.48,3-17.48Z" style="fill:#6C63FF"></path><path d="M322.86,377.4s-4.91-2.29-8.28-1.9" style="fill:#263238"></path><path d="M328.15,356.64l-6.64,15.86c-.3.71,2.78,4,2.3,5s-10.44-.58-9.92-2.6c.32-1.21,3.35-2.22,3.55-2.78.36-1,3-17.48,3-17.48Z" style="opacity:0.1"></path><path d="M350.94,350.7l6.52,15.9c.29.71,4.79.86,5.16,1.91s-7.79,7-8.85,5.17c-.64-1.08.79-3.93.54-4.48-.44-.94-10.24-14.49-10.24-14.49Z" style="fill:#6C63FF"></path><path d="M361.88,369.12s-5.09,1.85-7.2,4.5" style="fill:#263238"></path><path d="M350.94,350.7l6.52,15.9c.29.71,4.79.86,5.16,1.91s-7.79,7-8.85,5.17c-.64-1.08.79-3.93.54-4.48-.44-.94-10.24-14.49-10.24-14.49Z" style="opacity:0.1"></path><path d="M362.86,330.37,378.71,337c.71.3,4-2.78,5-2.29s-.59,10.43-2.6,9.91c-1.22-.32-2.22-3.35-2.79-3.55-1-.35-17.48-3-17.48-3Z" style="fill:#6C63FF"></path><path d="M383.61,335.66s-2.28,4.91-1.9,8.28" style="fill:#263238"></path><path d="M362.86,330.37,378.71,337c.71.3,4-2.78,5-2.29s-.59,10.43-2.6,9.91c-1.22-.32-2.22-3.35-2.79-3.55-1-.35-17.48-3-17.48-3Z" style="opacity:0.1"></path><path d="M356.91,307.58l15.9-6.52c.72-.29.86-4.79,1.91-5.16s7,7.8,5.17,8.85c-1.08.64-3.93-.79-4.48-.54-.93.44-14.49,10.24-14.49,10.24Z" style="fill:#6C63FF"></path><path d="M375.33,296.64s1.85,5.09,4.5,7.2" style="fill:#263238"></path><path d="M356.91,307.58l15.9-6.52c.72-.29.86-4.79,1.91-5.16s7,7.8,5.17,8.85c-1.08.64-3.93-.79-4.48-.54-.93.44-14.49,10.24-14.49,10.24Z" style="opacity:0.1"></path><path d="M332.55,294s5.33-22.22,5.54-23-3.25-3.65-2.89-4.71,10.48-.67,10.2,1.41c-.16,1.25-3.07,2.62-3.2,3.21-.24,1-1.73,24.15-1.73,24.15Z" style="fill:#6C63FF"></path><path d="M336.16,266.31s5.17,1.7,8.49.91" style="fill:#263238"></path><path d="M310.29,303.58s-12-19.48-12.32-20.16-4.89-.28-5.38-1.29,6.94-7.88,8.21-6.21c.76,1-.32,4,0,4.53.55.88,15.86,18.3,15.86,18.3Z" style="fill:#6C63FF"></path><path d="M293.25,281.44s4.86-2.45,6.64-5.36" style="fill:#263238"></path><path d="M301.31,326.09s-22.22-5.33-23-5.54-3.65,3.25-4.71,2.89S273,313,275,313.24c1.25.17,2.62,3.07,3.21,3.2,1,.24,24.15,1.73,24.15,1.73Z" style="fill:#6C63FF"></path><path d="M273.61,322.48s1.7-5.17.91-8.48" style="fill:#263238"></path><path d="M310.88,348.35s-19.48,11.95-20.16,12.33-.28,4.88-1.29,5.37-7.88-6.94-6.21-8.2c1-.77,4,.31,4.53,0,.88-.55,18.3-15.86,18.3-15.86Z" style="fill:#6C63FF"></path><path d="M288.74,365.39s-2.45-4.86-5.36-6.64" style="fill:#263238"></path><path d="M333.39,357.33s-5.33,22.22-5.54,23,3.25,3.65,2.89,4.71-10.48.67-10.2-1.41c.17-1.24,3.07-2.61,3.2-3.2.24-1,1.73-24.16,1.73-24.16Z" style="fill:#6C63FF"></path><path d="M329.78,385s-5.17-1.69-8.48-.91" style="fill:#263238"></path><path d="M355.65,347.76s12,19.48,12.33,20.16,4.88.28,5.37,1.29-6.94,7.88-8.2,6.22c-.77-1,.31-4,0-4.54-.55-.88-15.86-18.3-15.86-18.3Z" style="fill:#6C63FF"></path><path d="M372.69,369.9s-4.86,2.46-6.64,5.36" style="fill:#263238"></path><path d="M364.63,325.25s22.22,5.33,23,5.54,3.65-3.25,4.71-2.89.67,10.48-1.41,10.2c-1.24-.16-2.61-3.07-3.2-3.2-1-.24-24.16-1.73-24.16-1.73Z" style="fill:#6C63FF"></path><path d="M392.33,328.86s-1.69,5.17-.91,8.49" style="fill:#263238"></path><path d="M355.06,303s19.48-11.95,20.16-12.32.28-4.89,1.29-5.38,7.88,6.94,6.22,8.21c-1,.76-4-.32-4.54,0-.88.55-18.3,15.86-18.3,15.86Z" style="fill:#6C63FF"></path><path d="M377.2,286s2.46,4.86,5.36,6.64" style="fill:#263238"></path><path d="M370.86,334.38c-4.89,20.89-24.73,35.09-46,30.11-12.74-3-23.19-10.24-28.24-21-3.37-7.16-4.33-15.86-2-25.88,5.88-25.06,27.66-35.68,48.43-30.81a35.78,35.78,0,0,1,21.08,13.55C371.53,310.27,373.43,323.44,370.86,334.38Z" style="fill:#6C63FF"></path><path d="M370.86,334.38c-4.89,20.89-24.73,35.09-46,30.11-12.74-3-23.19-10.24-28.24-21,10.43,7.72,29.3,17.87,48.19,8.91,23.13-11,25.92-34.66,19.33-52.05C371.53,310.27,373.43,323.44,370.86,334.38Z" style="opacity:0.1"></path><path d="M329.25,297l-8.84,2.09s0-.38-.07-1c-.3-3.69-1.3-16.26-1.37-17s-4.93-2.53-5-3.8c0-.57,2.21-1.64,4.68-2.44,3-1,6.38-1.5,6.68-.24s-2.18,4-2.07,4.7C323.44,280.46,329.25,297,329.25,297Z" style="fill:#6C63FF"></path><path d="M315,276.87s6.16-.32,9.34-2.51Z" style="fill:#263238"></path><path d="M320.34,298.09c-.3-3.69-1.3-16.26-1.37-17s-4.93-2.53-5-3.8c0-.57,2.21-1.64,4.68-2.44a6.84,6.84,0,0,0-2.11,1.6,1.14,1.14,0,0,0-.13.31c-.11.35.06.64.45.91,1,.73,3.22,1.38,3.5,2.31S320.37,297.56,320.34,298.09Z" style="opacity:0.1"></path><path d="M309.27,306.78l-4.77,7.71a3.69,3.69,0,0,0-.32-.27l-.05-.05-13.39-11.4c-.68-.57-5.29,1.69-6.22.82-.63-.59,1.55-5.65,3.64-8.34.95-1.23,1.86-2,2.5-1.57,1.21.73,1.31,4.38,1.85,4.78C293.45,299.17,309.27,306.78,309.27,306.78Z" style="fill:#6C63FF"></path><path d="M284.94,302.6s4.13-4.58,4.83-8.38Z" style="fill:#263238"></path><path d="M304.13,314.17l-13.39-11.4c-.68-.57-5.29,1.69-6.22.82-.63-.59,1.55-5.65,3.64-8.34a15.83,15.83,0,0,0-1.48,4.32,3.74,3.74,0,0,0,0,.92c0,.42.15.67.4.7,1.07.08,3-1.19,4.18-.84S303.31,313.23,304.13,314.17Z" style="opacity:0.1"></path><path d="M302,327.8l2.08,8.83h-.05c-1,.09-17.13,1.37-18,1.45s-2.53,4.93-3.78,5-4.43-9.18-3.12-11a.71.71,0,0,1,.44-.31c1.38-.33,4,2.17,4.69,2.08C285.48,333.61,302,327.8,302,327.8Z" style="fill:#6C63FF"></path><path d="M281.88,342.05s-.32-6.16-2.51-9.35Z" style="fill:#263238"></path><path d="M304.07,336.62c-1,.09-17.13,1.37-18,1.45s-2.53,4.93-3.78,5-4.43-9.18-3.12-11c-.62,2.42.65,5.34,1.84,6.83a3.61,3.61,0,0,0,.58.63c.34.3.65.43.84.34.93-.45,2-2.86,3.42-3.11S303.08,336.61,304.07,336.62Z" style="opacity:0.1"></path><path d="M307.77,366.32c-.42.48.67,3.06,1,4.79a1.79,1.79,0,0,1-.12,1.42c-.86.91-11.17-4.13-9.93-6.14.75-1.23,4.38-1.31,4.8-1.85s3.56-7,5.84-11.66c0,0,0,0,0-.05,1.38-2.82,2.45-5.05,2.45-5.05l7.7,4.77S308.34,365.64,307.77,366.32Z" style="fill:#6C63FF"></path><path d="M307.61,372.1s-4.58-4.12-8.38-4.83Z" style="fill:#263238"></path><path d="M308.73,371.11a1.79,1.79,0,0,1-.12,1.42c-.86.91-11.17-4.13-9.93-6.14.75-1.23,4.38-1.31,4.8-1.85s3.56-7,5.84-11.66c-1.32,4.62-4,12.24-4.51,12.65-.73.57-2.92,1.09-2.89,2.21a1.36,1.36,0,0,0,.36.66,11.7,11.7,0,0,0,2.14,1.87,14.15,14.15,0,0,0,2.59,1.49,1.78,1.78,0,0,0,.38.14c.47.16.83.19,1,0A1.3,1.3,0,0,0,308.73,371.11Z" style="opacity:0.1"></path><path d="M348.06,374.75c0,.3-.63.75-1.59,1.23-3,1.49-9.35,3.21-9.77,1.46-.33-1.4,2.18-4,2.08-4.71s-3-9.07-4.69-14h0c-.74-2.16-1.28-3.68-1.28-3.68l8.82-2.08,1.44,18C343.16,371.82,348,373.48,348.06,374.75Z" style="fill:#6C63FF"></path><path d="M347.06,375.16s-6.16.33-9.35,2.51Z" style="fill:#263238"></path><path d="M346.47,376c-3,1.49-9.35,3.21-9.77,1.46-.33-1.4,2.18-4,2.08-4.71s-3-9.07-4.69-14c2.07,4.52,6.08,13.31,6.06,13.74s-1.7,3.48-.89,4.15a.79.79,0,0,0,.29.12,4.54,4.54,0,0,0,1.37.1A30.53,30.53,0,0,0,346.47,376Z" style="opacity:0.1"></path><path d="M375.76,353.84c-1.42,2.66-3.31,5.17-4.37,4.52s-1.3-4.38-1.85-4.79c-.81-.61-12.43-6.24-15.83-7.87h0c-.59-.27-.92-.44-.92-.44l4.76-7.7,13.77,11.72c.68.56,5.28-1.7,6.21-.84C378,348.84,377.06,351.4,375.76,353.84Z" style="fill:#6C63FF"></path><path d="M377.11,349.43s-4.13,4.59-4.83,8.38Z" style="fill:#263238"></path><path d="M375.76,353.84c-1.42,2.66-3.31,5.17-4.37,4.52s-1.3-4.38-1.85-4.79c-.81-.61-12.43-6.24-15.83-7.87h0s17,5.88,17.27,6.66.74,4,1.76,3.88a1.42,1.42,0,0,0,.61-.26A14.42,14.42,0,0,0,375.76,353.84Z" style="opacity:0.1"></path><path d="M382.44,320.34c-.74.18-1.83-.45-2.79-1.06s-1.6-1.06-1.92-1c-1.16.17-17.72,6-17.72,6l-2.08-8.82,3.71-.3h.05c5.1-.4,13.67-1.08,14.27-1.14.88-.09,2.54-4.94,3.8-5S384.75,319.8,382.44,320.34Z" style="fill:#6C63FF"></path><path d="M380.17,310s.32,6.16,2.51,9.34Z" style="fill:#263238"></path><path d="M382.44,320.34c-.74.18-1.83-.45-2.79-1.06a16.22,16.22,0,0,0,2.19-.43.6.6,0,0,0,.34-.34,1.79,1.79,0,0,0,.12-.61,10,10,0,0,0-1.12-4.17,5.37,5.37,0,0,0-.72-1.14h0c-.23-.25-.43-.38-.61-.34-1.12.29-2.55,3.14-4.22,3.28-1.19.09-9.38-.23-13.94-.41,5.1-.4,13.67-1.08,14.27-1.14.88-.09,2.54-4.94,3.8-5S384.75,319.8,382.44,320.34Z" style="opacity:0.1"></path><path d="M363.37,285.65c-.74,1.22-4.38,1.3-4.8,1.85-.7.94-8.31,16.75-8.31,16.75l-7.71-4.76s.42-.51,1.13-1.32v0l10.59-12.43c.55-.68-1.71-5.28-.84-6.21.44-.47,3.37.62,5.95,2.07h0C361.84,283,364,284.67,363.37,285.65Z" style="fill:#6C63FF"></path><path d="M354.44,279.93s4.59,4.13,8.38,4.83Z" style="fill:#263238"></path><path d="M359.39,281.58a9.18,9.18,0,0,0-2.77-.4,2,2,0,0,0-.56.07c-.5.13-.8.41-.76.9.08,1.34,1.44,3.52,1,4.41s-12.16,11.18-12.64,11.59l10.59-12.43c.55-.68-1.71-5.28-.84-6.21C353.88,279,356.81,280.13,359.39,281.58Z" style="opacity:0.1"></path><g style="opacity:0.1"><path d="M320,349.83c-.38.84-1.84,1-3.24.36s-2.23-1.86-1.84-2.7,1.84-1,3.25-.36S320.43,349,320,349.83Z"></path><path d="M319.11,352.84a9.4,9.4,0,0,1-5.55-2.64,2.94,2.94,0,0,1-.9-3.25c.59-1.5,2-1.45,3.38-1.59.07,0,.09-.12,0-.13-2.35-.26-5.15.7-4.72,3.58.5,3.39,4.78,4.8,7.72,4.58C319.35,353.37,319.43,352.89,319.11,352.84Z"></path><path d="M325.36,301.65c.13.92-1.44,1.89-3.49,2.17s-3.83-.25-3.95-1.17,1.44-1.89,3.5-2.17S325.24,300.73,325.36,301.65Z"></path><path d="M320,305.77a8.34,8.34,0,0,1-3.07-1,2.29,2.29,0,0,1-.61-3.33c1.06-1.7,3.14-2.44,5-2.73a.09.09,0,0,0,0-.18c-2.34.13-5.83,1.27-6.59,3.78-1,3.24,3,3.86,5.28,3.83C320.27,306.14,320.24,305.8,320,305.77Z"></path><path d="M354.26,313.33c0,.93-1.3,1.65-2.84,1.61s-2.78-.82-2.75-1.75,1.29-1.65,2.84-1.61S354.28,312.4,354.26,313.33Z"></path><path d="M351.18,317.06c-1.44-.61-3.22-1-4.33-2.16-2.2-2.35,1.2-3.79,3.06-4.34a.08.08,0,0,0,0-.16c-2,.18-5.09,1.42-4.65,3.94s3.81,3.55,5.91,3.19A.25.25,0,0,0,351.18,317.06Z"></path><path d="M309.53,339.42c0,.72-1,1.26-2.24,1.2s-2.13-.7-2.1-1.42,1-1.25,2.24-1.19S309.56,338.7,309.53,339.42Z"></path><path d="M307.07,342.25c-1.11-.5-2.48-.81-3.32-1.75-1.66-1.87,1-2.92,2.46-3.31a.06.06,0,0,0,0-.12c-1.56.1-4,1-3.68,3s2.88,2.82,4.51,2.59A.2.2,0,0,0,307.07,342.25Z"></path><path d="M361.41,340.34c.2,1.14-1.17,2.33-3.07,2.66s-3.59-.33-3.78-1.46,1.17-2.33,3.07-2.66S361.21,339.2,361.41,340.34Z"></path><path d="M354.62,338.44c.05,0,0-.12-.05-.08-1.8,1.35-4.31,3.56-2.51,6a5.39,5.39,0,0,0,6.76,1.07.2.2,0,0,0-.13-.37,9.07,9.07,0,0,1-4.89-.61C350.88,342.94,352.92,340,354.62,338.44Z"></path></g></g></svg>